<?xml version="1.0" encoding="utf-8"?>
<!-- Generator: Adobe Illustrator 24.0.1, SVG Export Plug-In . SVG Version: 6.00 Build 0)  -->
<svg version="1.1" id="Layer_1" xmlns="http://www.w3.org/2000/svg" xmlns:xlink="http://www.w3.org/1999/xlink" x="0px" y="0px"
	 viewBox="0 0 61 32" style="enable-background:new 0 0 61 32;" xml:space="preserve">
<style type="text/css">
	.st0{fill:url(#SVGID_1_);}
	.st1{fill:#FFFFFF;}
</style>
<linearGradient id="SVGID_1_" gradientUnits="userSpaceOnUse" x1="0" y1="5.1545" x2="12.215" y2="5.1545">
	<stop  offset="0" style="stop-color:#A1BA42"/>
	<stop  offset="1" style="stop-color:#0099CC"/>
</linearGradient>
<polygon class="st0" points="0,1.9 12.2,1.9 12.2,7.8 2.5,7.6 1.8,8.4 0.9,7.5 0,7.5 "/>
<g>
	<path class="st1" d="M1.2,3.4h1.1v0.4H1.7v0.6h0.5v0.4H1.7V6H1.2V3.4z"/>
	<path class="st1" d="M3,3.4V6H2.5V3.4H3z"/>
	<path class="st1" d="M3.3,6V3.4h0.5C3.9,3.7,4.2,4.9,4.2,5h0c0-0.3,0-0.8,0-1.2V3.4h0.5V6H4.1C4,5.8,3.8,4.4,3.7,4.3h0
		c0,0.3,0,0.8,0,1.2V6H3.3z"/>
	<path class="st1" d="M5.4,5.4L5.3,6H4.8l0.4-2.6h0.7L6.3,6H5.8L5.7,5.4H5.4z M5.7,4.9c0-0.3-0.1-0.8-0.1-1.1h0
		c0,0.2-0.1,0.8-0.1,1.1H5.7z"/>
	<path class="st1" d="M6.5,3.4H7v2.2h0.6l0,0.4H6.5V3.4z"/>
	<path class="st1" d="M8.2,3.4V6H7.7V3.4H8.2z"/>
	<path class="st1" d="M8.9,5.2v0.2c0,0.2,0,0.3,0.2,0.3c0.1,0,0.1-0.1,0.1-0.2c0-0.2,0-0.3-0.3-0.5C8.6,4.6,8.5,4.4,8.5,4.1
		c0-0.4,0.1-0.7,0.6-0.7c0.5,0,0.6,0.4,0.6,0.7v0.2H9.2V4c0-0.2,0-0.2-0.1-0.2C9,3.7,9,3.8,9,4c0,0.2,0,0.2,0.2,0.4
		c0.4,0.3,0.5,0.5,0.5,0.9C9.7,5.7,9.6,6,9.1,6C8.6,6,8.4,5.7,8.4,5.3V5.2H8.9z"/>
	<path class="st1" d="M10.2,3.8H9.8V3.4H11v0.4h-0.4V6h-0.5V3.8z"/>
</g>
</svg>
