<?xml version="1.0" encoding="utf-8"?>
<!-- Generator: Adobe Illustrator 24.0.1, SVG Export Plug-In . SVG Version: 6.00 Build 0)  -->
<svg version="1.1" id="Layer_1" xmlns="http://www.w3.org/2000/svg" xmlns:xlink="http://www.w3.org/1999/xlink" x="0px" y="0px"
	 viewBox="0 0 59 26" style="enable-background:new 0 0 59 26;" xml:space="preserve">
<style type="text/css">
	.st0{fill:url(#SVGID_1_);}
	.st1{fill:#FFFFFF;}
</style>
<linearGradient id="SVGID_1_" gradientUnits="userSpaceOnUse" x1="0" y1="22.1415" x2="17.3544" y2="22.1415" gradientTransform="matrix(1 0 0 -1 0 26)">
	<stop  offset="0" style="stop-color:#A1BA42"/>
	<stop  offset="1" style="stop-color:#0099CC"/>
</linearGradient>
<polygon class="st0" points="17.4,5.8 17.4,1.9 8.7,0 0,1.9 0,5.8 8.7,7.7 "/>
<g>
	<g>
		<path class="st1" d="M4,5L3.8,2.3h0.7c0,0.3,0,1.4,0,1.7h0c0-0.4,0-1.1,0.1-1.7h0.5c0,0.4,0,1.2,0.1,1.7h0c0-0.4,0-1.5,0-1.7h0.6
			L5.6,5H4.9c0-0.2,0-0.6-0.1-1.1h0c0,0.5-0.1,0.8-0.1,1.1H4z"/>
		<path class="st1" d="M6.7,2.3V5H6.1V2.3H6.7z"/>
		<path class="st1" d="M7,5V2.3h0.7C7.8,2.6,8,3.7,8,3.8h0c0-0.4-0.1-1.1-0.1-1.4V2.3h0.6V5H7.8c0-0.2-0.2-1.5-0.2-1.6h0
			c0,0.3,0.1,1.2,0.1,1.5V5H7z"/>
		<path class="st1" d="M8.8,5V2.3h0.7c0.1,0.3,0.3,1.4,0.3,1.5h0c0-0.4-0.1-1.1-0.1-1.4V2.3h0.6V5H9.6c0-0.2-0.2-1.5-0.2-1.6h0
			c0,0.3,0.1,1.2,0.1,1.5V5H8.8z"/>
		<path class="st1" d="M11.8,3.8h-0.5v0.6h0.6L11.8,5h-1.2V2.3h1.2v0.5h-0.5v0.5h0.5V3.8z"/>
		<path class="st1" d="M12.7,3.9V5H12V2.3h0.8c0.5,0,0.7,0.3,0.7,0.7v0.1c0,0.3-0.1,0.5-0.3,0.6c0.2,0.1,0.3,0.2,0.3,0.6
			c0,0.3,0,0.6,0,0.8h-0.6c0,0,0-0.2,0-0.9C12.9,3.9,12.9,3.9,12.7,3.9L12.7,3.9z M12.7,3.4L12.7,3.4c0.2,0,0.2,0,0.2-0.2V2.9
			c0-0.2,0-0.2-0.2-0.2h0V3.4z"/>
	</g>
</g>
</svg>
