<?xml version="1.0" encoding="utf-8"?>
<!-- Generator: Adobe Illustrator 24.0.1, SVG Export Plug-In . SVG Version: 6.00 Build 0)  -->
<svg version="1.1" id="Layer_1" xmlns="http://www.w3.org/2000/svg" xmlns:xlink="http://www.w3.org/1999/xlink" x="0px" y="0px"
	 viewBox="0 0 180 180.1" style="enable-background:new 0 0 180 180.1;" xml:space="preserve">
<style type="text/css">
	.st0{fill:url(#SVGID_1_);}
	.st1{fill:#FFFFFF;}
</style>
<linearGradient id="SVGID_1_" gradientUnits="userSpaceOnUse" x1="0.4508" y1="179.3535" x2="179.2804" y2="0.5238">
	<stop  offset="0" style="stop-color:#FFFFFF"/>
	<stop  offset="8.060515e-04" style="stop-color:#97BD3E"/>
	<stop  offset="0.1167" style="stop-color:#89B758"/>
	<stop  offset="0.3582" style="stop-color:#6DAD88"/>
	<stop  offset="0.576" style="stop-color:#52A5A6"/>
	<stop  offset="0.7623" style="stop-color:#37A0BB"/>
	<stop  offset="0.9097" style="stop-color:#199DC7"/>
	<stop  offset="1" style="stop-color:#009CCC"/>
</linearGradient>
<rect x="0.5" y="0.5" class="st0" width="178.8" height="178.8"/>
<g>
	<path class="st1" d="M62.5,18.1c0.2,0.5,0.2,0.7,0.4,0.7c0.2,0,0.2-0.2,0.4-0.5c0.2-0.6,0.9-2.4,1.3-3.6l0.2-0.5l1.4,4
		c0.1,0.3,0.2,0.5,0.3,0.5c0.2,0,0.2-0.1,0.4-0.7c0.1-0.4,0.4-1.2,0.7-2.1c0.3-0.9,0.6-1.7,0.7-2.2c0.1-0.4,0.3-0.7,0.4-0.8
		c0.1,0,0.2,0,0.2,0c0.1,0,0.2-0.1,0.2-0.2c0,0,0-0.2-0.2-0.2c-0.2,0-0.4,0-0.5,0c-0.1,0-0.1,0-0.1,0c0,0-0.1,0-0.1,0
		c-0.1,0-0.4,0-0.7,0c-0.2,0-0.2,0.1-0.2,0.2c0,0.1,0.1,0.2,0.2,0.2c0.3,0,0.3,0.1,0.3,0.1c0,0.1,0,0.2-0.1,0.5
		c-0.2,0.6-0.5,1.8-0.8,2.7c-0.1,0.4-0.2,0.7-0.3,0.9l-1.4-4.1c-0.1-0.3-0.2-0.4-0.3-0.4c-0.1,0-0.2,0.1-0.3,0.4l-1.5,4.1
		c-0.3-1-0.9-3-0.9-3.4l0-0.2c0-0.2-0.1-0.4-0.1-0.5c0-0.1,0-0.1,0-0.1c0.1,0,0.2,0,0.3,0c0.1,0,0.2-0.1,0.2-0.2
		c0-0.1,0-0.2-0.2-0.2c-0.3,0-0.5,0-0.7,0c-0.1,0-0.1,0-0.1,0c0,0-0.1,0-0.2,0c-0.2,0-0.5,0-0.7,0c-0.2,0-0.2,0.1-0.2,0.2
		c0,0.1,0,0.2,0.2,0.2c0.1,0,0.2,0,0.3,0c0.2,0.1,0.2,0.1,0.4,0.5L62.5,18.1z"/>
	<path class="st1" d="M76.5,15.5c0-1.8-1.3-3-3.1-3c-2.3,0-3.2,1.9-3.2,3.1c0,1.5,1,3.1,3.1,3.1C75.1,18.8,76.5,17.4,76.5,15.5z
		 M73.5,18.3c-1.4,0-2.4-1.2-2.4-2.8c0-1.5,0.8-2.4,2.1-2.4c1.1,0,2.2,0.9,2.2,2.7C75.5,18.1,73.8,18.3,73.5,18.3z"/>
	<path class="st1" d="M79.4,18.7C79.4,18.7,79.4,18.7,79.4,18.7c0.3,0,0.6,0,0.9,0c0.2,0,0.2-0.1,0.2-0.2c0-0.1-0.1-0.2-0.2-0.2
		c-0.1,0-0.2,0-0.3,0c-0.1,0-0.2-0.1-0.2-0.3c0-0.3,0-0.9,0-1.7v-0.1l0.9,0c0.1,0.1,0.2,0.2,0.3,0.4c0.2,0.2,0.4,0.5,0.5,0.7
		l0.1,0.1c0.4,0.5,0.7,0.9,1,1c0.2,0.1,0.4,0.2,0.9,0.2h0.5c0.1,0,0.3,0,0.3-0.2c0-0.1-0.1-0.2-0.2-0.2c0,0-0.1,0-0.3,0
		c-0.2,0-0.5-0.1-0.9-0.5c-0.4-0.4-0.8-1-1.4-1.7l-0.2-0.2c0.6-0.6,0.9-1.2,0.9-1.8c0-0.6-0.4-1-0.6-1.1c-0.4-0.3-1-0.4-1.5-0.4
		c-0.2,0-0.4,0-0.7,0c-0.1,0-0.2,0-0.3,0c0,0,0,0-0.1,0c-0.2,0-0.5,0-0.8,0c-0.2,0-0.2,0.1-0.2,0.2c0,0.1,0.1,0.2,0.2,0.2
		c0.1,0,0.2,0,0.2,0c0.2,0,0.2,0.1,0.2,0.3c0,0.2,0,0.5,0,1.7v1.4c0,0.7,0,1.3,0,1.7c0,0.2-0.1,0.3-0.1,0.3c-0.1,0-0.1,0-0.2,0
		c-0.1,0-0.2,0.1-0.2,0.2c0,0.1,0,0.2,0.2,0.2C78.8,18.7,79.2,18.7,79.4,18.7L79.4,18.7z M79.8,15.6l0-2.5c0.1,0,0.2,0,0.5,0
		c0.8,0,1.2,0.5,1.2,1.4c0,0.5-0.2,0.9-0.4,1.1c-0.2,0.1-0.4,0.1-0.5,0.1C80.2,15.7,79.9,15.7,79.8,15.6h-0.1H79.8z"/>
	<path class="st1" d="M85.9,12.9c0.1,0,0.2,0,0.2,0c0.2,0,0.2,0.1,0.2,0.3c0,0.2,0,0.5,0,1.7v1.4c0,0.7,0,1.3,0,1.7
		c0,0.2-0.1,0.3-0.1,0.3c-0.1,0-0.1,0-0.2,0c-0.1,0-0.2,0.1-0.2,0.2c0,0.1,0,0.2,0.2,0.2c0.1,0,0.3,0,0.4,0c0.1,0,0.2,0,0.3,0l0.1,0
		c0.2,0,0.4,0,0.8,0l0.2,0c0.3,0,0.6,0,1.1,0c0.4,0,0.5,0,0.6-0.3c0.1-0.2,0.1-0.7,0.1-0.8c0-0.1,0-0.2-0.2-0.2
		c-0.1,0-0.2,0-0.2,0.2c0,0.1-0.1,0.3-0.2,0.4c-0.1,0.2-0.4,0.2-0.9,0.2c-0.6,0-0.8-0.1-0.8-0.1c-0.1-0.1-0.1-0.9-0.1-1.7V15
		c0-1.2,0-1.4,0-1.7c0-0.3,0.1-0.3,0.2-0.3c0.1,0,0.2,0,0.2,0c0.1,0,0.2-0.1,0.2-0.2c0-0.1,0-0.2-0.2-0.2c-0.2,0-0.5,0-0.7,0
		c-0.1,0-0.1,0-0.1,0c0,0,0,0-0.1,0c-0.2,0-0.5,0-0.8,0c-0.2,0-0.2,0.1-0.2,0.2C85.7,12.9,85.8,12.9,85.9,12.9z"/>
	<path class="st1" d="M91.5,12.9c0.1,0,0.2,0,0.2,0c0.2,0,0.2,0.1,0.2,0.3c0,0.2,0,0.5,0,1.7v1.4c0,0.7,0,1.3,0,1.7
		c0,0.2-0.1,0.3-0.1,0.3c-0.1,0-0.1,0-0.2,0c-0.1,0-0.2,0.1-0.2,0.2c0,0.1,0,0.2,0.2,0.2c0.1,0,0.1,0,0.2,0c0.1,0,0.2,0,0.3,0
		c0.2,0,0.3,0,0.3,0c0,0,0.1,0,0.2,0c0.1,0,0.3,0,0.4,0c0.4,0,0.8,0,1.1,0c1,0,1.8-0.3,2.4-0.9c0.5-0.6,0.9-1.4,0.9-2.3
		c0-1-0.4-1.7-0.8-2c-0.9-0.9-2.2-0.9-3-0.9l-0.1,0c-0.3,0-0.7,0-0.9,0c-0.1,0-0.2,0-0.2,0c0,0,0,0-0.1,0c-0.2,0-0.5,0-0.8,0
		c-0.2,0-0.2,0.1-0.2,0.2C91.3,12.9,91.4,12.9,91.5,12.9z M94.2,18.3c-0.9,0-1.2-0.2-1.2-0.3c0,0,0-0.1-0.1-0.5c0-0.1,0-0.8,0-1.7
		v-1c0-0.6,0-1.4,0-1.6c0,0,0,0,0,0l0,0c0,0,0.3,0,0.5,0c1,0,1.8,0.1,2.4,0.8c0.3,0.3,0.7,0.9,0.7,1.9c0,0.7-0.2,1.4-0.6,1.8
		C95.5,18,94.9,18.3,94.2,18.3z"/>
	<path class="st1" d="M66.3,31.3h0.5c0.1,0,0.3,0,0.3-0.2c0-0.1-0.1-0.2-0.2-0.2c0,0-0.1,0-0.3,0c-0.2,0-0.5-0.1-0.9-0.5
		c-0.4-0.4-0.8-1-1.4-1.7l-0.2-0.2c0.6-0.6,0.9-1.2,0.9-1.8c0-0.6-0.4-1-0.6-1.1c-0.4-0.3-1-0.4-1.5-0.4c-0.2,0-0.4,0-0.7,0
		c-0.1,0-0.2,0-0.3,0c0,0,0,0-0.1,0c-0.2,0-0.5,0-0.8,0c-0.2,0-0.2,0.1-0.2,0.2c0,0.1,0.1,0.2,0.2,0.2c0.1,0,0.2,0,0.2,0
		c0.2,0,0.2,0.1,0.2,0.3c0,0.2,0,0.5,0,1.7V29c0,0.7,0,1.3,0,1.7c0,0.2-0.1,0.3-0.1,0.3c-0.1,0-0.1,0-0.2,0c-0.1,0-0.2,0.1-0.2,0.2
		c0,0.1,0,0.2,0.2,0.2c0.2,0,0.6,0,0.7,0l0,0c0,0,0,0,0.1,0c0.2,0,0.5,0,0.9,0c0.2,0,0.2-0.1,0.2-0.2c0-0.1-0.1-0.2-0.2-0.2
		c-0.1,0-0.2,0-0.3,0c-0.1,0-0.2-0.1-0.2-0.3c0-0.3,0-0.9,0-1.7v-0.1l0.9,0c0.1,0.1,0.2,0.2,0.3,0.4c0.2,0.2,0.4,0.5,0.5,0.7
		l0.1,0.1c0.4,0.5,0.7,0.9,1,1C65.6,31.3,65.8,31.3,66.3,31.3z M62.6,28.3l0-2.5c0.1,0,0.2,0,0.5,0c0.8,0,1.2,0.5,1.2,1.4
		c0,0.5-0.2,0.9-0.4,1.1c-0.2,0.1-0.4,0.1-0.5,0.1C63,28.4,62.7,28.3,62.6,28.3h-0.1H62.6z"/>
	<path class="st1" d="M72,30c-0.1,0-0.2,0.1-0.2,0.2c-0.1,0.3-0.1,0.4-0.3,0.5c-0.2,0.1-0.5,0.1-0.7,0.1c-0.7,0-0.8-0.1-0.8-0.5
		c0-0.1,0-0.6,0-1l0-1c0.2,0,0.9,0,1,0c0.3,0,0.3,0.1,0.3,0.2c0,0.1,0,0.1,0,0.2c0,0.1,0.1,0.2,0.2,0.2c0.2,0,0.2-0.2,0.2-0.3
		c0,0,0-0.3,0-0.5c0-0.2,0-0.3,0-0.3c0-0.1,0-0.1,0-0.1c0-0.1-0.1-0.2-0.1-0.2c-0.1,0-0.1,0.1-0.2,0.1c0,0-0.1,0.1-0.3,0.1
		c-0.1,0-0.7,0-1.2,0l0-2.1c0.2,0,0.9,0,1,0c0.4,0,0.4,0.1,0.5,0.2c0,0.1,0,0.2,0,0.2c0,0.2,0.1,0.2,0.2,0.2c0,0,0.1,0,0.2-0.2
		c0-0.1,0-0.2,0-0.4c0-0.1,0-0.1,0-0.2c0-0.1,0-0.2,0-0.3c0,0,0-0.1,0-0.1c0-0.2-0.1-0.2-0.1-0.2c0,0-0.1,0-0.1,0c0,0-0.2,0-0.3,0
		c-0.1,0-1.2,0-1.8,0l-0.3,0c-0.2,0-0.4,0-0.6,0c-0.2,0-0.2,0.1-0.2,0.2c0,0.1,0.1,0.2,0.2,0.2c0.1,0,0.2,0,0.2,0
		c0.2,0,0.2,0.1,0.2,0.3c0,0.2,0,0.5,0,1.7V29c0,0.7,0,1.3,0,1.7c0,0.2-0.1,0.3-0.1,0.3c-0.1,0-0.1,0-0.2,0c-0.1,0-0.2,0.1-0.2,0.2
		c0,0.1,0,0.2,0.2,0.2c0.1,0,0.1,0,0.2,0c0.1,0,0.2,0,0.3,0c0.2,0,0.3,0,0.3,0c0.1,0,0.3,0,0.6,0l0.2,0c0.3,0,0.7,0,1.1,0
		c0.3,0,0.4,0,0.5-0.3c0-0.2,0.1-0.7,0.1-0.8C72.1,30.1,72.1,30,72,30z"/>
	<path class="st1" d="M76.2,27.8L76,27.6c-0.7-0.6-0.9-0.8-0.9-1.2c0-0.5,0.3-0.8,0.8-0.8c0.6,0,0.8,0.2,0.9,0.4
		c0,0.1,0.1,0.3,0.1,0.3c0,0.1,0,0.2,0.2,0.2c0.2,0,0.2-0.2,0.2-0.3c0-0.4,0-0.7,0-0.8c0,0,0-0.1,0-0.1c0,0,0-0.2-0.2-0.2
		c0,0-0.1,0-0.2,0c-0.2-0.1-0.5-0.1-0.7-0.1c-1,0-1.7,0.6-1.7,1.5c0,0.5,0.2,1,1,1.8l0.3,0.3c0.7,0.5,0.8,0.8,0.8,1.3
		c0,0.5-0.3,0.9-1,0.9c-0.3,0-0.9-0.1-1-0.7c0-0.1,0-0.2,0-0.3c0-0.2-0.1-0.2-0.2-0.2c-0.2,0-0.2,0.2-0.2,0.2l0,0.1
		c0,0.2,0,0.4,0,0.7c0,0.2,0,0.3,0.2,0.4l0,0c0.3,0.1,0.7,0.2,1.1,0.2c0.5,0,0.9-0.1,1.2-0.3c0.5-0.4,0.7-0.9,0.7-1.4
		C77.4,29.1,77.2,28.6,76.2,27.8z"/>
	<path class="st1" d="M82.5,25.1c-2.3,0-3.2,1.9-3.2,3.1c0,1.5,1,3.1,3.1,3.1c1.8,0,3.2-1.4,3.2-3.3C85.6,26.3,84.3,25.1,82.5,25.1z
		 M82.6,30.9c-1.4,0-2.4-1.2-2.4-2.8c0-1.5,0.8-2.4,2.1-2.4c1.1,0,2.2,0.9,2.2,2.7C84.6,30.8,83,30.9,82.6,30.9z"/>
	<path class="st1" d="M91.8,30.8c0.7-0.6,0.7-1.6,0.7-2.4v-0.8c0-1.2,0-1.4,0-1.7c0-0.3,0.1-0.3,0.2-0.3c0.1,0,0.1,0,0.2,0
		c0.1,0,0.2-0.1,0.2-0.2c0-0.1,0-0.2-0.2-0.2c-0.2,0-0.4,0-0.5,0c-0.1,0-0.1,0-0.1,0c0,0,0,0-0.1,0c-0.2,0-0.5,0-0.7,0
		c-0.2,0-0.2,0.1-0.2,0.2c0,0.1,0.1,0.2,0.2,0.2c0.1,0,0.2,0,0.2,0c0.2,0,0.2,0.1,0.2,0.3c0,0.2,0,0.5,0,1.7v1
		c0,0.9-0.1,1.5-0.4,1.8c-0.3,0.3-0.7,0.5-1.1,0.5c-0.4,0-0.7-0.1-1.1-0.4c-0.3-0.3-0.5-0.7-0.5-1.8v-1.1c0-1.2,0-1.4,0-1.7
		c0-0.3,0.1-0.3,0.2-0.3c0.1,0,0.1,0,0.2,0c0.1,0,0.2-0.1,0.2-0.2c0-0.1,0-0.2-0.2-0.2c-0.2,0-0.4,0-0.6,0c-0.1,0-0.2,0-0.2,0
		c0,0-0.1,0-0.2,0c-0.2,0-0.5,0-0.7,0c-0.2,0-0.2,0.1-0.2,0.2c0,0.1,0.1,0.2,0.2,0.2c0.1,0,0.2,0,0.2,0c0.2,0,0.2,0.1,0.2,0.3
		c0,0.2,0,0.5,0,1.7v1.1c0,1,0.2,1.6,0.7,2.1c0.5,0.5,1.3,0.6,1.7,0.6C90.6,31.4,91.2,31.4,91.8,30.8z"/>
	<path class="st1" d="M97.3,31.1c0-0.1-0.1-0.2-0.2-0.2c-0.1,0-0.2,0-0.3,0c-0.1,0-0.2-0.1-0.2-0.3c0-0.3,0-0.9,0-1.7v-0.1l0.9,0
		c0.1,0.1,0.2,0.2,0.3,0.4c0.2,0.2,0.4,0.5,0.6,0.7l0.1,0.1c0.4,0.5,0.7,0.9,1,1c0.2,0.1,0.4,0.2,0.9,0.2h0.5c0.1,0,0.3,0,0.3-0.2
		c0-0.1-0.1-0.2-0.2-0.2c0,0-0.1,0-0.3,0c-0.2,0-0.5-0.1-0.9-0.5c-0.4-0.4-0.8-1-1.4-1.7l-0.2-0.2c0.6-0.6,0.9-1.2,0.9-1.8
		c0-0.6-0.4-1-0.6-1.1c-0.4-0.3-1-0.4-1.5-0.4c-0.2,0-0.4,0-0.7,0c-0.1,0-0.2,0-0.3,0c0,0,0,0-0.1,0c-0.2,0-0.5,0-0.8,0
		c-0.2,0-0.2,0.1-0.2,0.2c0,0.1,0.1,0.2,0.2,0.2c0.1,0,0.2,0,0.2,0c0.2,0,0.2,0.1,0.2,0.3c0,0.2,0,0.5,0,1.7V29c0,0.7,0,1.3,0,1.7
		c0,0.2-0.1,0.3-0.1,0.3c-0.1,0-0.1,0-0.2,0c-0.1,0-0.2,0.1-0.2,0.2c0,0.1,0,0.2,0.2,0.2c0.2,0,0.6,0,0.7,0l0,0c0,0,0,0,0.1,0
		c0.2,0,0.5,0,0.9,0C97.3,31.3,97.3,31.2,97.3,31.1z M96.6,28.3l0-2.5c0.1,0,0.2,0,0.5,0c0.8,0,1.2,0.5,1.2,1.4
		c0,0.5-0.2,0.9-0.4,1.1c-0.2,0.1-0.4,0.1-0.5,0.1C97,28.4,96.7,28.3,96.6,28.3h-0.1H96.6z"/>
	<path class="st1" d="M106.8,31.2c0.2-0.1,0.2-0.1,0.3-0.3c0.1-0.3,0.2-0.9,0.2-1c0-0.2-0.1-0.2-0.2-0.2c-0.1,0-0.2,0.1-0.2,0.2
		c0,0.1-0.1,0.4-0.3,0.6c-0.3,0.3-0.7,0.4-1.3,0.4c-1.7,0-2.7-1.4-2.7-2.7c0-0.6,0.1-1.4,0.7-1.9c0.4-0.4,0.9-0.5,1.7-0.5
		c0.7,0,1.2,0.2,1.5,0.4c0.2,0.1,0.3,0.4,0.3,0.7c0,0.1,0,0.3,0.2,0.3c0.2,0,0.2-0.2,0.2-0.3c0-0.1,0-0.2,0-0.3c0-0.2,0-0.4,0-0.5
		c0-0.2,0-0.3,0-0.3c0,0,0-0.1,0-0.1c0-0.1,0-0.2-0.2-0.2c-0.2,0-0.5-0.1-0.8-0.1c-0.5-0.1-1-0.1-1.1-0.1c-1.1,0-1.9,0.3-2.4,0.9
		c-0.7,0.7-0.9,1.6-0.9,2.2c0,1,0.3,1.8,1,2.4c0.7,0.6,1.5,0.9,2.6,0.9C105.8,31.4,106.4,31.4,106.8,31.2z"/>
	<path class="st1" d="M112.2,31.3c0.3,0,0.4,0,0.5-0.3c0-0.2,0.1-0.7,0.1-0.8c0-0.1-0.1-0.2-0.2-0.2c-0.1,0-0.2,0.1-0.2,0.2
		c-0.1,0.3-0.1,0.4-0.3,0.5c-0.2,0.1-0.5,0.1-0.7,0.1c-0.7,0-0.8-0.1-0.8-0.5c0-0.1,0-0.6,0-1l0-1c0.2,0,0.9,0,1,0
		c0.3,0,0.3,0.1,0.3,0.2c0,0.1,0,0.1,0,0.2c0,0.1,0.1,0.2,0.2,0.2c0.2,0,0.2-0.2,0.2-0.3c0,0,0-0.3,0-0.5c0-0.2,0-0.3,0-0.3
		c0-0.1,0-0.1,0-0.1c0-0.1-0.1-0.2-0.1-0.2c-0.1,0-0.1,0.1-0.2,0.1c0,0-0.1,0.1-0.3,0.1c-0.1,0-0.7,0-1.2,0l0-2.1c0.2,0,0.9,0,1,0
		c0.4,0,0.4,0.1,0.5,0.2c0,0.1,0,0.2,0,0.2c0,0.2,0.1,0.2,0.2,0.2c0,0,0.1,0,0.2-0.2c0-0.1,0-0.2,0-0.4c0-0.1,0-0.1,0-0.2
		c0-0.1,0-0.2,0-0.3c0,0,0-0.1,0-0.1c0-0.2-0.1-0.2-0.1-0.2c0,0-0.1,0-0.1,0c-0.1,0-0.2,0-0.3,0c-0.1,0-1.2,0-1.8,0l-0.3,0
		c-0.2,0-0.4,0-0.6,0c-0.2,0-0.2,0.1-0.2,0.2c0,0.1,0.1,0.2,0.2,0.2c0.1,0,0.2,0,0.2,0c0.2,0,0.2,0.1,0.2,0.3c0,0.2,0,0.5,0,1.7V29
		c0,0.7,0,1.3,0,1.7c0,0.2-0.1,0.3-0.1,0.3c-0.1,0-0.1,0-0.2,0c-0.1,0-0.2,0.1-0.2,0.2c0,0.1,0,0.2,0.2,0.2c0.1,0,0.1,0,0.2,0
		c0.1,0,0.2,0,0.3,0c0.2,0,0.3,0,0.3,0c0.1,0,0.3,0,0.6,0l0.2,0C111.4,31.3,111.8,31.3,112.2,31.3z"/>
	<path class="st1" d="M117,27.8l-0.2-0.2c-0.7-0.6-0.9-0.8-0.9-1.2c0-0.5,0.3-0.8,0.8-0.8c0.6,0,0.8,0.3,0.9,0.4
		c0,0.1,0.1,0.3,0.1,0.3c0,0,0,0.2,0.2,0.2c0.2,0,0.2-0.2,0.2-0.3c0-0.4,0-0.7,0-0.8c0,0,0-0.1,0-0.1c0,0,0-0.2-0.2-0.2
		c0,0-0.1,0-0.2,0c-0.2-0.1-0.5-0.1-0.7-0.1c-1,0-1.7,0.6-1.7,1.5c0,0.5,0.2,1,1,1.8l0.3,0.3c0.7,0.5,0.8,0.8,0.8,1.3
		c0,0.5-0.3,0.9-1,0.9c-0.3,0-0.9-0.1-1-0.7c0-0.1,0-0.2,0-0.3c0-0.2-0.1-0.2-0.2-0.2c-0.2,0-0.2,0.2-0.2,0.2l0,0.1
		c0,0.2,0,0.4,0,0.7c0,0.2,0,0.3,0.2,0.4l0,0c0.3,0.1,0.7,0.2,1.1,0.2c0.5,0,0.9-0.1,1.2-0.3c0.5-0.4,0.7-0.9,0.7-1.4
		C118.1,29.1,117.9,28.6,117,27.8z"/>
	<path class="st1" d="M63.2,43.6c-0.1,0-0.2,0-0.3,0c-0.1,0-0.2-0.1-0.2-0.3c0-0.3,0-0.9,0-1.7v-1.4c0-1.2,0-1.4,0-1.7
		c0-0.3,0.1-0.3,0.2-0.3c0.1,0,0.1,0,0.2,0c0.1,0,0.2-0.1,0.2-0.2c0-0.1,0-0.2-0.2-0.2c-0.2,0-0.5,0-0.6,0c-0.1,0-0.1,0-0.1,0
		c0,0-0.1,0-0.1,0c-0.2,0-0.5,0-0.7,0c-0.2,0-0.2,0.1-0.2,0.2c0,0.1,0.1,0.2,0.2,0.2c0.1,0,0.1,0,0.2,0c0.1,0,0.2,0.1,0.2,0.3
		c0,0.2,0,0.5,0,1.7v1.4c0,0.7,0,1.3,0,1.7c0,0.2-0.1,0.3-0.1,0.3c-0.1,0-0.1,0-0.2,0c-0.1,0-0.2,0.1-0.2,0.2c0,0.1,0,0.2,0.2,0.2
		c0.2,0,0.5,0,0.6,0c0.1,0,0.1,0,0.1,0c0,0,0,0,0.1,0c0.2,0,0.5,0,0.9,0c0.2,0,0.2-0.1,0.2-0.2C63.3,43.7,63.3,43.6,63.2,43.6z"/>
	<path class="st1" d="M71.5,37.9c-0.2,0-0.4,0-0.5,0c-0.1,0-0.1,0-0.1,0c0,0-0.1,0-0.2,0c-0.2,0-0.4,0-0.6,0c-0.1,0-0.3,0-0.3,0.2
		c0,0.1,0.1,0.2,0.2,0.2c0,0,0.2,0,0.4,0c0.1,0,0.2,0.1,0.2,0.6l0.1,3.6c-0.1-0.1-0.3-0.3-0.5-0.5c-0.3-0.4-0.8-0.8-1.2-1.3
		c-1.2-1.3-2.3-2.5-2.5-2.7c0,0,0,0-0.1-0.1c-0.1-0.1-0.2-0.2-0.3-0.2c-0.2,0-0.2,0.3-0.2,0.5l0,4.4c0,0.6,0,0.8-0.2,0.9
		c-0.1,0-0.2,0-0.3,0c-0.1,0-0.2,0.1-0.2,0.2c0,0.1,0.1,0.2,0.2,0.2c0.2,0,0.5,0,0.6,0c0.1,0,0.1,0,0.2,0c0.1,0,0.4,0,0.7,0
		c0.2,0,0.2-0.1,0.2-0.2c0-0.1-0.1-0.2-0.2-0.2c0,0-0.2,0-0.4,0c-0.1,0-0.2-0.2-0.2-0.8l-0.1-3.4c0.4,0.4,1.1,1.2,1.8,2
		c0.8,0.9,1.9,2,2,2.1c0.5,0.5,0.5,0.5,0.6,0.5c0.2,0,0.2-0.2,0.2-0.7l0-4.5c0-0.5,0-0.5,0.2-0.6c0.1,0,0.1,0,0.2,0
		c0.1,0,0.2-0.1,0.2-0.2C71.8,37.9,71.6,37.9,71.5,37.9z"/>
	<path class="st1" d="M75.7,40.4l-0.2-0.2c-0.7-0.6-0.9-0.8-0.9-1.2c0-0.5,0.3-0.8,0.8-0.8c0.6,0,0.8,0.2,0.9,0.4
		c0,0.1,0.1,0.3,0.1,0.3c0,0.1,0,0.2,0.2,0.2c0.2,0,0.2-0.2,0.2-0.3c0-0.4,0-0.7,0-0.8c0,0,0-0.1,0-0.1c0,0,0-0.2-0.2-0.2
		c0,0-0.1,0-0.2,0c-0.2-0.1-0.5-0.1-0.7-0.1c-1,0-1.7,0.6-1.7,1.5c0,0.5,0.2,1,1,1.8l0.3,0.3c0.7,0.5,0.8,0.8,0.8,1.3
		c0,0.5-0.3,0.9-1,0.9c-0.3,0-0.9-0.1-1-0.7c0-0.1,0-0.2,0-0.3c0-0.2-0.1-0.2-0.2-0.2c-0.2,0-0.2,0.2-0.2,0.2l0,0.1
		c0,0.2,0,0.4,0,0.7c0,0.2,0,0.3,0.2,0.4l0,0C74.2,44,74.5,44,75,44c0.5,0,0.9-0.1,1.2-0.3c0.5-0.4,0.7-0.9,0.7-1.4
		C76.9,41.7,76.7,41.2,75.7,40.4z"/>
	<path class="st1" d="M83.6,37.8C83.6,37.8,83.6,37.8,83.6,37.8c-0.1,0-0.2,0-0.2,0c-0.1,0-0.3,0-0.5,0H80c-0.1,0-0.4,0-0.6,0
		c-0.1,0-0.2,0-0.2-0.1c0,0-0.1,0-0.1,0c-0.1,0-0.1,0.1-0.2,0.2c0,0-0.2,0.7-0.2,0.8c0,0.1,0.1,0.2,0.1,0.2c0.1,0,0.2-0.1,0.2-0.1
		c0-0.1,0-0.1,0.1-0.2c0.1-0.1,0.2-0.2,0.7-0.2l1,0v3.2c0,0.7,0,1.3,0,1.7c0,0.2-0.1,0.3-0.1,0.3c-0.1,0-0.1,0-0.2,0
		c-0.1,0-0.2,0.1-0.2,0.2c0,0.1,0,0.2,0.2,0.2c0.2,0,0.5,0,0.6,0c0.1,0,0.1,0,0.1,0c0,0,0,0,0.1,0c0.2,0,0.5,0,0.9,0
		c0.2,0,0.2-0.1,0.2-0.2c0-0.1-0.1-0.2-0.2-0.2c-0.1,0-0.2,0-0.3,0c-0.1,0-0.2-0.1-0.2-0.3c0-0.3,0-0.9,0-1.7v-3.2l0.9,0
		c0.8,0,0.8,0.2,0.8,0.3l0,0.1c0,0.1,0,0.2,0.2,0.2c0.1,0,0.2-0.1,0.2-0.2c0,0,0-0.1,0-0.2c0-0.2,0-0.5,0-0.6
		C83.8,37.9,83.7,37.8,83.6,37.8z"/>
	<path class="st1" d="M87.7,43.6c-0.1,0-0.2,0-0.3,0c-0.1,0-0.2-0.1-0.2-0.3c0-0.3,0-0.9,0-1.7v-1.4c0-1.2,0-1.4,0-1.7
		c0-0.3,0.1-0.3,0.2-0.3c0.1,0,0.1,0,0.2,0c0.1,0,0.2-0.1,0.2-0.2c0-0.1,0-0.2-0.2-0.2c-0.2,0-0.5,0-0.6,0c-0.1,0-0.1,0-0.1,0
		c0,0-0.1,0-0.1,0c-0.2,0-0.5,0-0.7,0c-0.2,0-0.2,0.1-0.2,0.2c0,0.1,0.1,0.2,0.2,0.2c0.1,0,0.1,0,0.2,0c0.1,0,0.2,0.1,0.2,0.3
		c0,0.2,0,0.5,0,1.7v1.4c0,0.7,0,1.3,0,1.7c0,0.2-0.1,0.3-0.1,0.3c-0.1,0-0.1,0-0.2,0c-0.1,0-0.2,0.1-0.2,0.2c0,0.1,0,0.2,0.2,0.2
		c0.2,0,0.5,0,0.6,0c0.1,0,0.1,0,0.1,0c0,0,0,0,0.1,0c0.2,0,0.5,0,0.9,0c0.2,0,0.2-0.1,0.2-0.2C87.9,43.7,87.9,43.6,87.7,43.6z"/>
	<path class="st1" d="M94.5,37.8C94.5,37.8,94.5,37.8,94.5,37.8c-0.1,0-0.2,0-0.2,0c-0.1,0-0.3,0-0.5,0h-2.9c-0.1,0-0.4,0-0.6,0
		c-0.1,0-0.2,0-0.2-0.1c0,0-0.1,0-0.1,0c-0.1,0-0.1,0.1-0.2,0.2c0,0-0.2,0.7-0.2,0.8c0,0.1,0.1,0.2,0.1,0.2c0.1,0,0.2-0.1,0.2-0.1
		c0-0.1,0-0.1,0.1-0.2c0.1-0.1,0.2-0.2,0.7-0.2l1,0v3.2c0,0.7,0,1.3,0,1.7c0,0.2-0.1,0.3-0.1,0.3c-0.1,0-0.1,0-0.2,0
		c-0.1,0-0.2,0.1-0.2,0.2c0,0.1,0,0.2,0.2,0.2c0.2,0,0.5,0,0.6,0c0.1,0,0.1,0,0.1,0c0,0,0,0,0.1,0c0.2,0,0.5,0,0.9,0
		c0.2,0,0.2-0.1,0.2-0.2c0-0.1-0.1-0.2-0.2-0.2c-0.1,0-0.2,0-0.3,0c-0.1,0-0.2-0.1-0.2-0.3c0-0.3,0-0.9,0-1.7v-3.2l0.9,0
		c0.8,0,0.8,0.2,0.8,0.3l0,0.1c0,0.1,0,0.2,0.2,0.2c0.1,0,0.2,0,0.2-0.2c0,0,0-0.1,0-0.2c0-0.2,0-0.5,0-0.6
		C94.7,37.9,94.6,37.8,94.5,37.8z"/>
	<path class="st1" d="M102.1,37.9c-0.2,0-0.4,0-0.5,0c-0.1,0-0.1,0-0.1,0c0,0,0,0-0.1,0c-0.2,0-0.5,0-0.7,0c-0.2,0-0.2,0.1-0.2,0.2
		c0,0.1,0.1,0.2,0.2,0.2c0.1,0,0.2,0,0.2,0c0.2,0,0.2,0.1,0.2,0.3c0,0.2,0,0.5,0,1.7v1c0,0.9-0.1,1.5-0.4,1.8
		c-0.3,0.3-0.7,0.5-1.1,0.5c-0.4,0-0.7-0.1-1.1-0.4c-0.3-0.3-0.5-0.7-0.5-1.8v-1.1c0-1.2,0-1.4,0-1.7c0-0.3,0.1-0.3,0.2-0.3
		c0.1,0,0.1,0,0.2,0c0.1,0,0.2-0.1,0.2-0.2c0-0.1,0-0.2-0.2-0.2c-0.2,0-0.4,0-0.6,0c-0.1,0-0.2,0-0.2,0c0,0-0.1,0-0.2,0
		c-0.2,0-0.5,0-0.7,0c-0.2,0-0.2,0.1-0.2,0.2c0,0.1,0.1,0.2,0.2,0.2c0.1,0,0.2,0,0.2,0c0.2,0,0.2,0.1,0.2,0.3c0,0.2,0,0.5,0,1.7v1.1
		c0,1,0.2,1.6,0.7,2.1C98.3,44,99,44,99.4,44c0.4,0,1.1-0.1,1.7-0.6c0.7-0.6,0.7-1.6,0.7-2.4v-0.8c0-1.2,0-1.4,0-1.7
		c0-0.3,0.1-0.3,0.2-0.3c0.1,0,0.1,0,0.2,0c0.1,0,0.2-0.1,0.2-0.2C102.4,38,102.3,37.9,102.1,37.9z"/>
	<path class="st1" d="M109,37.8C109,37.8,108.9,37.8,109,37.8c-0.1,0-0.2,0-0.2,0c-0.1,0-0.3,0-0.5,0h-2.9c-0.1,0-0.4,0-0.6,0
		c-0.1,0-0.2,0-0.2-0.1c0,0-0.1,0-0.1,0c-0.1,0-0.1,0.1-0.2,0.2c0,0-0.2,0.7-0.2,0.8c0,0.1,0.1,0.2,0.1,0.2c0.1,0,0.1,0,0.2-0.1
		c0-0.1,0-0.1,0.1-0.2c0.1-0.1,0.2-0.2,0.7-0.2l1,0v3.2c0,0.7,0,1.3,0,1.7c0,0.2-0.1,0.3-0.1,0.3c-0.1,0-0.1,0-0.2,0
		c-0.1,0-0.2,0.1-0.2,0.2c0,0.1,0,0.2,0.2,0.2c0.2,0,0.5,0,0.6,0c0.1,0,0.1,0,0.1,0c0,0,0,0,0.1,0c0.2,0,0.5,0,0.9,0
		c0.2,0,0.2-0.1,0.2-0.2c0-0.1-0.1-0.2-0.2-0.2c-0.1,0-0.2,0-0.3,0c-0.1,0-0.2-0.1-0.2-0.3c0-0.3,0-0.9,0-1.7v-3.2l0.9,0
		c0.8,0,0.8,0.2,0.8,0.3l0,0.1c0,0.1,0,0.2,0.2,0.2c0.1,0,0.2-0.1,0.2-0.2c0,0,0-0.1,0-0.2c0-0.2,0-0.5,0-0.6
		C109.1,37.9,109,37.8,109,37.8z"/>
	<path class="st1" d="M114.5,42.7c-0.1,0-0.2,0.1-0.2,0.2c-0.1,0.3-0.1,0.4-0.3,0.5c-0.2,0.1-0.5,0.1-0.7,0.1
		c-0.7,0-0.8-0.1-0.8-0.5c0-0.1,0-0.6,0-1l0-1c0.2,0,0.9,0,1,0c0.3,0,0.3,0.1,0.3,0.2c0,0.1,0,0.1,0,0.2c0,0.1,0.1,0.2,0.2,0.2
		c0.2,0,0.2-0.2,0.2-0.3c0,0,0-0.3,0-0.5c0-0.2,0-0.3,0-0.3c0-0.1,0-0.1,0-0.1c0-0.1-0.1-0.2-0.1-0.2c-0.1,0-0.1,0.1-0.2,0.1
		c0,0-0.1,0.1-0.3,0.1c-0.1,0-0.7,0-1.2,0l0-2.1c0.2,0,0.9,0,1,0c0.4,0,0.4,0.1,0.5,0.2c0,0.1,0,0.2,0,0.2c0,0.2,0.1,0.2,0.2,0.2
		c0,0,0.1,0,0.2-0.2c0-0.1,0-0.2,0-0.4c0-0.1,0-0.1,0-0.2c0-0.1,0-0.2,0-0.3c0,0,0-0.1,0-0.1c0-0.2-0.1-0.2-0.1-0.2c0,0-0.1,0-0.1,0
		c-0.1,0-0.2,0-0.3,0c-0.1,0-1.2,0-1.8,0l-0.3,0c-0.2,0-0.4,0-0.6,0c-0.2,0-0.2,0.1-0.2,0.2c0,0.1,0.1,0.2,0.2,0.2
		c0.1,0,0.2,0,0.2,0c0.2,0,0.2,0.1,0.2,0.3c0,0.2,0,0.5,0,1.7v1.4c0,0.7,0,1.3,0,1.7c0,0.2-0.1,0.3-0.1,0.3c-0.1,0-0.1,0-0.2,0
		c-0.1,0-0.2,0.1-0.2,0.2c0,0.1,0,0.2,0.2,0.2c0.1,0,0.1,0,0.2,0c0.1,0,0.2,0,0.3,0c0.2,0,0.3,0,0.3,0c0.1,0,0.3,0,0.6,0l0.2,0
		c0.3,0,0.7,0,1.1,0c0.3,0,0.4,0,0.5-0.3c0-0.2,0.1-0.7,0.1-0.8C114.7,42.7,114.6,42.7,114.5,42.7z"/>
</g>
<g>
	<path class="st1" d="M135.7,30.4c0,0-0.1,0-0.3,0c-0.2,0-0.4-0.1-0.8-0.5c-0.4-0.4-0.8-0.9-1.3-1.5l-0.1-0.2
		c0.6-0.5,0.8-1.1,0.8-1.6c0-0.5-0.3-0.9-0.5-1c-0.4-0.3-0.9-0.3-1.3-0.3c-0.1,0-0.4,0-0.6,0c-0.1,0-0.2,0-0.2,0c0,0,0,0-0.1,0
		c-0.2,0-0.5,0-0.7,0c-0.2,0-0.2,0.1-0.2,0.2c0,0.1,0.1,0.2,0.2,0.2c0.1,0,0.2,0,0.2,0c0.2,0,0.2,0.1,0.2,0.3c0,0.2,0,0.4,0,1.5v1.2
		c0,0.7,0,1.2,0,1.5c0,0.2-0.1,0.3-0.1,0.3c-0.1,0-0.1,0-0.2,0c-0.1,0-0.2,0.1-0.2,0.2c0,0.1,0,0.2,0.2,0.2c0.2,0,0.5,0,0.6,0l0,0
		c0,0,0,0,0.1,0c0.2,0,0.5,0,0.8,0c0.2,0,0.2-0.1,0.2-0.2c0-0.1-0.1-0.2-0.2-0.2c-0.1,0-0.2,0-0.3,0c-0.1,0-0.2-0.1-0.2-0.3
		c0-0.3,0-0.9,0-1.5v-0.1l0.8,0c0.1,0.1,0.1,0.2,0.3,0.3c0.2,0.2,0.3,0.5,0.5,0.7l0.1,0.1c0.4,0.5,0.6,0.8,0.9,0.9
		c0.2,0.1,0.4,0.1,0.8,0.1h0.5c0.1,0,0.3,0,0.3-0.2C135.9,30.5,135.8,30.4,135.7,30.4z M131.8,27.9v-2.3c0.1,0,0.2,0,0.4,0
		c0.7,0,1.1,0.5,1.1,1.3c0,0.5-0.1,0.8-0.4,1c-0.1,0.1-0.3,0.1-0.5,0.1C132.2,28,131.9,28,131.8,27.9h-0.1H131.8z"/>
	<path class="st1" d="M139,25.1c-2.1,0-2.9,1.8-2.9,2.9c0,1.4,0.9,2.9,2.8,2.9c1.7,0,2.9-1.3,2.9-3C141.9,26.2,140.7,25.1,139,25.1z
		 M139.2,30.3c-1.3,0-2.1-1.1-2.1-2.6c0-1.4,0.7-2.2,1.9-2.2c1,0,2,0.8,2,2.5C141,30.2,139.5,30.3,139.2,30.3z"/>
	<path class="st1" d="M143.5,30.6L143.5,30.6c0.3,0.1,0.6,0.2,1,0.2c0.4,0,0.8-0.1,1.1-0.3c0.5-0.3,0.6-0.9,0.6-1.3
		c0-0.7-0.3-1.1-1.1-1.7l-0.2-0.2c-0.6-0.5-0.8-0.7-0.8-1.1c0-0.4,0.3-0.7,0.8-0.7c0.6,0,0.7,0.2,0.8,0.3c0,0.1,0.1,0.2,0.1,0.3
		c0,0,0,0.2,0.2,0.2c0.2,0,0.2-0.2,0.2-0.3c0-0.4,0-0.6,0-0.7c0,0,0,0,0-0.1c0,0,0-0.2-0.2-0.2c0,0-0.1,0-0.2,0
		c-0.2-0.1-0.4-0.1-0.7-0.1c-0.9,0-1.6,0.6-1.6,1.4c0,0.5,0.2,1,1,1.6l0.3,0.3c0.6,0.5,0.8,0.8,0.8,1.2c0,0.4-0.3,0.8-0.9,0.8
		c-0.2,0-0.8-0.1-0.9-0.6c0-0.1,0-0.2,0-0.2c0-0.2-0.1-0.2-0.2-0.2c-0.1,0-0.2,0.1-0.2,0.2l0,0.1c0,0.1,0,0.4,0,0.7
		C143.3,30.4,143.3,30.5,143.5,30.6z"/>
	<path class="st1" d="M150.1,30.5c0.5-0.3,0.6-0.9,0.6-1.3c0-0.7-0.3-1.1-1.1-1.7l-0.2-0.2c-0.6-0.5-0.8-0.7-0.8-1.1
		c0-0.4,0.3-0.7,0.8-0.7c0.6,0,0.7,0.2,0.8,0.3c0,0.1,0.1,0.2,0.1,0.3c0,0,0,0.2,0.2,0.2c0.2,0,0.2-0.2,0.2-0.3c0-0.4,0-0.6,0-0.7
		c0,0,0,0,0-0.1c0,0,0-0.2-0.2-0.2c0,0-0.1,0-0.2,0c-0.2-0.1-0.4-0.1-0.7-0.1c-0.9,0-1.6,0.6-1.6,1.4c0,0.5,0.2,1,1,1.6l0.3,0.3
		c0.6,0.5,0.8,0.8,0.8,1.2c0,0.4-0.3,0.8-0.9,0.8c-0.2,0-0.8-0.1-0.9-0.6c0-0.1,0-0.2,0-0.2c0-0.2-0.1-0.2-0.2-0.2
		c-0.1,0-0.2,0.1-0.2,0.2l0,0.1c0,0.1,0,0.4,0,0.7c0,0.2,0,0.3,0.2,0.4l0,0c0.3,0.1,0.6,0.2,1,0.2C149.4,30.8,149.8,30.7,150.1,30.5
		z"/>
	<path class="st1" d="M135,41.8c-0.1,0-0.2,0.1-0.2,0.2c0,0.1-0.1,0.4-0.2,0.5c-0.3,0.3-0.6,0.3-1.1,0.3c-1.5,0-2.4-1.3-2.4-2.5
		c0-0.6,0.1-1.2,0.6-1.8c0.3-0.3,0.8-0.5,1.5-0.5c0.6,0,1.1,0.2,1.3,0.4c0.2,0.1,0.3,0.4,0.3,0.6c0,0.1,0,0.3,0.2,0.3
		c0.2,0,0.2-0.2,0.2-0.2c0,0,0-0.1,0-0.2c0-0.2,0-0.3,0-0.5c0-0.2,0-0.2,0-0.3c0,0,0-0.1,0-0.1c0-0.1,0-0.2-0.2-0.2
		c-0.2,0-0.4-0.1-0.7-0.1l0,0c-0.4-0.1-0.9-0.1-1-0.1c-1,0-1.7,0.3-2.2,0.8c-0.6,0.6-0.8,1.4-0.8,2c0,0.9,0.3,1.6,0.9,2.2
		c0.6,0.5,1.4,0.8,2.4,0.8c0.4,0,1,0,1.3-0.2c0.2-0.1,0.2-0.1,0.2-0.3c0.1-0.2,0.2-0.9,0.2-0.9C135.2,41.9,135.1,41.8,135,41.8z"/>
	<path class="st1" d="M139.8,42.2c-0.1,0-0.2,0.1-0.2,0.2c0,0.3-0.1,0.4-0.3,0.4c-0.2,0.1-0.5,0.1-0.6,0.1c-0.7,0-0.7-0.1-0.7-0.5
		c0-0.1,0-0.6,0-0.9l0-0.9c0.2,0,0.8,0,0.9,0c0.2,0,0.3,0.1,0.3,0.2c0,0.1,0,0.1,0,0.2c0,0.1,0.1,0.2,0.2,0.2c0.2,0,0.2-0.2,0.2-0.2
		c0,0,0-0.3,0-0.4c0-0.1,0-0.2,0-0.3c0,0,0-0.1,0-0.1c0-0.1-0.1-0.2-0.1-0.2c-0.1,0-0.1,0.1-0.2,0.1c0,0-0.1,0.1-0.3,0.1
		c-0.1,0-0.6,0-1,0l0-1.9c0.2,0,0.8,0,0.9,0c0.4,0,0.4,0.1,0.4,0.2c0,0.1,0,0.2,0,0.2c0,0.2,0.1,0.2,0.2,0.2c0,0,0.1,0,0.2-0.2
		c0-0.1,0-0.2,0-0.3c0-0.1,0-0.1,0-0.1c0-0.1,0-0.2,0-0.2c0,0,0-0.1,0-0.1c0-0.2-0.1-0.2-0.1-0.2c0,0-0.1,0-0.1,0c0,0-0.1,0-0.3,0
		c-0.1,0-1.1,0-1.6,0l-0.3,0c-0.2,0-0.3,0-0.5,0c-0.2,0-0.2,0.1-0.2,0.2c0,0.1,0.1,0.2,0.2,0.2c0.1,0,0.2,0,0.2,0
		c0.2,0,0.2,0.1,0.2,0.3c0,0.2,0,0.4,0,1.5v1.2c0,0.7,0,1.2,0,1.5c0,0.2-0.1,0.3-0.1,0.3c-0.1,0-0.1,0-0.2,0c-0.1,0-0.2,0.1-0.2,0.2
		c0,0.1,0,0.2,0.2,0.2c0.1,0,0.1,0,0.2,0c0.1,0,0.2,0,0.2,0c0.1,0,0.3,0,0.3,0c0.1,0,0.3,0,0.5,0l0.1,0c0.3,0,0.6,0,1,0
		c0.3,0,0.4,0,0.5-0.3c0-0.1,0.1-0.6,0.1-0.7C140,42.2,139.9,42.2,139.8,42.2z"/>
	<path class="st1" d="M147,37.8c-0.2,0-0.4,0-0.5,0c-0.1,0-0.1,0-0.3,0c-0.1,0-0.4,0-0.6,0c-0.1,0-0.2,0-0.2,0.2
		c0,0.1,0.1,0.2,0.2,0.2c0,0,0.2,0,0.3,0c0.1,0,0.2,0.1,0.2,0.6l0.1,3.3c-0.1-0.1-0.3-0.3-0.4-0.5c-0.3-0.3-0.7-0.8-1.1-1.2
		c-1.1-1.2-2.1-2.3-2.2-2.4c0,0,0,0-0.1-0.1c-0.1-0.1-0.2-0.2-0.3-0.2c-0.2,0-0.2,0.2-0.2,0.5l0,4c0,0.6,0,0.8-0.1,0.8
		c-0.1,0-0.2,0-0.3,0c-0.1,0-0.2,0.1-0.2,0.2c0,0.1,0,0.2,0.2,0.2c0.2,0,0.4,0,0.6,0c0.1,0,0.1,0,0.2,0c0.1,0,0.4,0,0.6,0
		c0.2,0,0.2-0.1,0.2-0.2c0-0.1-0.1-0.2-0.2-0.2c-0.1,0-0.2,0-0.3,0c-0.1,0-0.2-0.1-0.2-0.7l-0.1-3.1c0.3,0.4,1,1.1,1.6,1.8
		c0.7,0.8,1.8,1.8,1.8,1.9c0.4,0.4,0.5,0.5,0.6,0.5c0.2,0,0.2-0.2,0.2-0.6l0-4.1c0-0.5,0-0.5,0.2-0.5c0.1,0,0.1,0,0.1,0
		c0.1,0,0.2-0.1,0.2-0.2C147.2,37.8,147,37.8,147,37.8z"/>
	<path class="st1" d="M153,37.8C152.9,37.8,152.9,37.8,153,37.8c-0.1,0-0.2,0-0.2,0c-0.1,0-0.3,0-0.5,0h-2.6c-0.1,0-0.3,0-0.5,0
		c-0.1,0-0.2,0-0.2-0.1c0,0-0.1,0-0.1,0c-0.1,0-0.1,0.1-0.2,0.2c0,0-0.2,0.7-0.2,0.8c0,0.1,0.1,0.2,0.1,0.2c0.1,0,0.1,0,0.2-0.1
		c0,0,0-0.1,0.1-0.2c0.1-0.1,0.2-0.2,0.6-0.2l0.9,0v2.9c0,0.7,0,1.2,0,1.5c0,0.2-0.1,0.3-0.1,0.3c-0.1,0-0.1,0-0.2,0
		c-0.1,0-0.2,0.1-0.2,0.2c0,0.1,0,0.2,0.2,0.2c0.2,0,0.4,0,0.6,0c0.1,0,0.1,0,0.1,0l0.1,0c0.2,0,0.5,0,0.8,0c0.2,0,0.2-0.1,0.2-0.2
		c0-0.1-0.1-0.2-0.2-0.2c-0.1,0-0.2,0-0.3,0c-0.1,0-0.2-0.1-0.2-0.3c0-0.3,0-0.9,0-1.5v-2.9l0.8,0c0.7,0,0.7,0.2,0.8,0.3l0,0.1
		c0,0.1,0,0.2,0.2,0.2c0.1,0,0.2,0,0.2-0.2c0,0,0-0.1,0-0.2c0-0.2,0-0.4,0-0.6C153.1,37.8,153,37.8,153,37.8z"/>
	<path class="st1" d="M157.6,42.2c-0.1,0-0.2,0.1-0.2,0.2c0,0.3-0.1,0.4-0.3,0.4c-0.2,0.1-0.5,0.1-0.6,0.1c-0.7,0-0.7-0.1-0.7-0.5
		c0-0.1,0-0.6,0-0.9l0-0.9c0.2,0,0.8,0,0.9,0c0.2,0,0.3,0.1,0.3,0.2c0,0.1,0,0.1,0,0.2c0,0.1,0.1,0.2,0.2,0.2c0.2,0,0.2-0.2,0.2-0.2
		c0,0,0-0.3,0-0.4c0-0.1,0-0.2,0-0.3c0,0,0-0.1,0-0.1c0-0.1-0.1-0.2-0.1-0.2c-0.1,0-0.1,0.1-0.2,0.1c0,0-0.1,0.1-0.3,0.1
		c-0.1,0-0.6,0-1,0l0-1.9c0.2,0,0.8,0,0.9,0c0.4,0,0.4,0.1,0.4,0.2c0,0.1,0,0.2,0,0.2c0,0.2,0.1,0.2,0.2,0.2c0,0,0.1,0,0.2-0.2
		c0-0.1,0-0.2,0-0.3c0-0.1,0-0.1,0-0.1c0-0.1,0-0.2,0-0.2c0,0,0-0.1,0-0.1c0-0.2-0.1-0.2-0.1-0.2c0,0-0.1,0-0.1,0c0,0-0.1,0-0.3,0
		c-0.1,0-1.1,0-1.6,0l-0.3,0c-0.2,0-0.3,0-0.5,0c-0.2,0-0.2,0.1-0.2,0.2c0,0.1,0.1,0.2,0.2,0.2c0.1,0,0.2,0,0.2,0
		c0.2,0,0.2,0.1,0.2,0.3c0,0.2,0,0.4,0,1.5v1.2c0,0.7,0,1.2,0,1.5c0,0.2-0.1,0.3-0.1,0.3c-0.1,0-0.1,0-0.2,0c-0.1,0-0.2,0.1-0.2,0.2
		c0,0.1,0,0.2,0.2,0.2c0.1,0,0.1,0,0.2,0c0.1,0,0.2,0,0.2,0c0.1,0,0.3,0,0.3,0c0.1,0,0.3,0,0.5,0l0.1,0c0.3,0,0.6,0,1,0
		c0.3,0,0.4,0,0.5-0.3c0-0.1,0.1-0.6,0.1-0.7C157.8,42.2,157.7,42.2,157.6,42.2z"/>
	<path class="st1" d="M164.6,43c0,0-0.1,0-0.3,0c-0.2,0-0.4-0.1-0.8-0.5c-0.4-0.4-0.8-0.9-1.3-1.5l-0.1-0.2c0.6-0.5,0.8-1.1,0.8-1.6
		c0-0.5-0.3-0.9-0.5-1c-0.4-0.3-0.9-0.3-1.3-0.3c-0.1,0-0.4,0-0.6,0c-0.1,0-0.2,0-0.2,0c0,0,0,0-0.1,0c-0.2,0-0.5,0-0.7,0
		c-0.2,0-0.2,0.1-0.2,0.2c0,0.1,0.1,0.2,0.2,0.2c0.1,0,0.2,0,0.2,0c0.2,0,0.2,0.1,0.2,0.3c0,0.2,0,0.4,0,1.5v1.2c0,0.7,0,1.2,0,1.5
		c0,0.2-0.1,0.3-0.1,0.3c-0.1,0-0.1,0-0.2,0c-0.1,0-0.2,0.1-0.2,0.2c0,0.1,0,0.2,0.2,0.2c0.2,0,0.5,0,0.6,0l0,0c0,0,0,0,0.1,0
		c0.2,0,0.5,0,0.8,0c0.2,0,0.2-0.1,0.2-0.2c0-0.1-0.1-0.2-0.2-0.2c-0.1,0-0.2,0-0.3,0c-0.1,0-0.2-0.1-0.2-0.3c0-0.3,0-0.9,0-1.5
		v-0.1l0.8,0c0.1,0.1,0.1,0.2,0.3,0.3c0.2,0.2,0.3,0.5,0.5,0.7l0.1,0.1c0.4,0.5,0.6,0.8,0.9,0.9c0.2,0.1,0.4,0.1,0.8,0.1h0.5
		c0.1,0,0.3,0,0.3-0.2C164.7,43.1,164.7,43,164.6,43z M160.6,40.6v-2.3c0.1,0,0.2,0,0.4,0c0.7,0,1.1,0.5,1.1,1.3
		c0,0.5-0.1,0.8-0.4,1c-0.1,0.1-0.3,0.1-0.5,0.1C161,40.7,160.7,40.6,160.6,40.6h-0.1H160.6z"/>
</g>
<path class="st1" d="M124.7,24.9c-0.1,0-0.2,0.1-0.2,0.2V44c0,0.1,0.1,0.2,0.2,0.2c0.1,0,0.2-0.1,0.2-0.2V25.2
	C124.9,25,124.8,24.9,124.7,24.9z"/>
<polygon class="st1" points="25,12.4 23,14.4 24.9,16.4 27,14.3 25,12.4 "/>
<polygon class="st1" points="38.8,30.3 46.3,37.7 48.3,35.7 40.9,28.2 38.8,30.3 "/>
<polygon class="st1" points="22.7,19.6 24.8,21.7 33,13.4 35.9,16.4 38,14.3 33,9.3 "/>
<polygon class="st1" points="44.3,19.6 46.4,21.7 48.3,19.7 46.3,17.7 44.3,19.6 "/>
<rect x="22.5" y="36.8" transform="matrix(0.7071 -0.7071 0.7071 0.7071 -18.9378 30.8203)" class="st1" width="10.5" height="2.9"/>
<rect x="33" y="26.1" transform="matrix(0.7071 -0.7071 0.7071 0.7071 -8.2606 35.2429)" class="st1" width="10.9" height="2.9"/>
<polygon class="st1" points="39,19.5 47.3,27.7 44.3,30.6 46.4,32.7 51.4,27.7 41.1,17.4 39,19.5 "/>
<polygon class="st1" points="17.7,35.7 19.7,37.7 21.7,35.8 19.6,33.7 17.7,35.7 "/>
<rect x="33" y="15.7" transform="matrix(0.7071 -0.7071 0.7071 0.7071 -0.8925 32.0817)" class="st1" width="10.5" height="2.9"/>
<polygon class="st1" points="14.6,27.7 24.9,38 27,35.9 18.7,27.7 21.7,24.8 19.6,22.7 14.6,27.7 "/>
<polygon class="st1" points="28,19.5 35.7,27.2 37.8,25.1 30.1,17.4 28,19.5 "/>
<rect x="39.6" y="39.7" transform="matrix(0.7071 -0.7071 0.7071 0.7071 -16.9904 41.0319)" class="st1" width="2.9" height="2.7"/>
<rect x="21" y="17.2" transform="matrix(0.7071 -0.7071 0.7071 0.7071 -9.2846 22.4286)" class="st1" width="2.9" height="10.5"/>
<rect x="31.7" y="27.6" transform="matrix(0.7071 -0.7071 0.7071 0.7071 -13.708 33.1076)" class="st1" width="2.9" height="10.9"/>
<polygon class="st1" points="33,42 30.1,39 28,41.1 33,46.1 43.3,35.8 41.2,33.7 "/>
<rect x="22.1" y="26.3" transform="matrix(0.7071 -0.7071 0.7071 0.7071 -11.5741 27.6572)" class="st1" width="10.9" height="2.9"/>
<g>
	<path class="st1" d="M17.6,60.8h15.7c8.7,0,15.1,5.2,15.1,15.6c0,10-5.9,15.5-15.8,15.5H27v21.2h-9.4V60.8z M27,84.4h4.6
		c5.3,0,7.5-2.6,7.5-8.1c0-5.3-2.7-7.9-7-7.9H27V84.4z"/>
	<path class="st1" d="M61.8,90.8v22.3h-9.3V60.8h16c9.5,0,14.9,5,14.9,14.3c0,7.6-4.1,10.8-6.8,11.9c4,1.9,6,5.3,6,13.1v2.1
		c0,5.9,0.3,8.2,0.7,11h-9c-0.8-2.4-0.8-6.6-0.8-11.1v-1.9c0-7-1.6-9.4-7.6-9.4H61.8z M61.8,83.2h4.4c5.6,0,7.9-2.4,7.9-7.7
		c0-4.6-2.2-7.2-7-7.2h-5.3V83.2z"/>
	<path class="st1" d="M98.4,60.8v52.3h-9.4V60.8H98.4z"/>
	<path class="st1" d="M102.4,106.6L122.8,69H104v-8.2h29v7.5L113.3,105H134l-1.2,8.1h-30.4V106.6z"/>
	<path class="st1" d="M163.7,89.8h-16.8v15.2h18.9l-1.2,8h-26.9V60.8h26.8V69h-17.6v12.7h16.8V89.8z"/>
</g>
<g>
	<path class="st1" d="M67.4,153.7c-0.2,2.5-1.3,12.7-11.9,12.7c-11.6,0-12.5-12.2-12.5-22.7c0-12.7,3.4-22.1,13-22.1
		c10.5,0,11.1,9.8,11.2,12.5h-4.8c-0.1-1.5-0.4-8.2-6.5-8.2c-6.9,0-8,9.4-8,17.8c0,9.2,1,18.5,7.6,18.5c5.8,0,6.7-6.3,6.9-8.5H67.4z
		"/>
	<path class="st1" d="M76.6,122.2v43.5h-4.8v-43.5H76.6z"/>
	<path class="st1" d="M89.7,126.5H80v-4.2h24.2v4.2h-9.7v39.3h-4.8V126.5z"/>
	<path class="st1" d="M112.5,122.2v43.5h-4.8v-43.5H112.5z"/>
	<path class="st1" d="M138.5,144.9h-14.6v16.7h16.2l-0.6,4.2h-20.3v-43.5h20v4.2h-15.3v14.2h14.6V144.9z"/>
	<path class="st1" d="M146.8,154.4c0.4,4.4,2.5,8,7.3,8c4.6,0,6.9-2.5,6.9-7.5c0-4.6-1.9-7.1-7.8-9.9c-6.8-3.3-9.8-6.3-9.8-12.6
		c0-6,3.8-10.8,11-10.8c8.4,0,10.6,6,10.8,11.1h-4.7c-0.3-2.1-0.9-7.1-6.3-7.1c-4.2,0-6,2.9-6,6.3c0,4.2,1.9,6.2,7.3,8.7
		c7.6,3.7,10.4,7.3,10.4,13.8c0,6.9-3.8,11.9-11.9,11.9c-8.7,0-11.6-5.7-11.9-12H146.8z"/>
</g>
<g>
	<g>
		<path class="st1" d="M18.5,166.2v-11.4h2.2v8.8H26v-8.3h2.2v8.3h7.6v2.5H18.5z"/>
		<path class="st1" d="M27.1,137.2c4.8,0,9,2.7,9,8.2c0,5.2-4,8-8.9,8c-5,0-9-3-9-8.2C18.2,140.3,21.9,137.2,27.1,137.2z
			 M27.1,150.8c3.7,0,6.8-1.8,6.8-5.4c0-3.9-3.2-5.4-6.8-5.4c-3.7,0-6.7,1.7-6.7,5.4C20.4,149.2,23.4,150.8,27.1,150.8z"/>
		<path class="st1" d="M28.3,131.9h7.5v2.6H18.5v-7c0-3.6,2-5.5,4.7-5.5c2.3,0,3.6,1.3,4.1,2.9c0.4-1.3,1.4-2.6,4.4-2.6h0.8
			c1.2,0,2.7,0,3.4-0.2v2.5c-0.8,0.3-2.1,0.3-3.8,0.3h-0.3c-2.4,0-3.4,0.7-3.4,3.7V131.9z M26.2,131.9v-3.7c0-2.6-1-3.6-2.8-3.6
			c-1.8,0-2.8,1.2-2.8,3.4v3.9H26.2z"/>
	</g>
</g>
</svg>
