<?xml version="1.0" encoding="utf-8"?>
<!-- Generator: Adobe Illustrator 24.0.1, SVG Export Plug-In . SVG Version: 6.00 Build 0)  -->
<svg version="1.1" id="Layer_1" xmlns="http://www.w3.org/2000/svg" xmlns:xlink="http://www.w3.org/1999/xlink" x="0px" y="0px"
	 viewBox="0 0 198 108" style="enable-background:new 0 0 198 108;" xml:space="preserve">
<style type="text/css">
	.st0{fill:url(#SVGID_1_);}
	.st1{fill:#FFFFFF;}
</style>
<linearGradient id="SVGID_1_" gradientUnits="userSpaceOnUse" x1="26.5593" y1="126.8878" x2="171.9771" y2="-18.53">
	<stop  offset="0" style="stop-color:#FFFFFF"/>
	<stop  offset="8.060515e-04" style="stop-color:#97BD3E"/>
	<stop  offset="0.1167" style="stop-color:#89B758"/>
	<stop  offset="0.3582" style="stop-color:#6DAD88"/>
	<stop  offset="0.576" style="stop-color:#52A5A6"/>
	<stop  offset="0.7623" style="stop-color:#37A0BB"/>
	<stop  offset="0.9097" style="stop-color:#199DC7"/>
	<stop  offset="1" style="stop-color:#009CCC"/>
</linearGradient>
<rect x="4.3" y="3.7" class="st0" width="189.9" height="100.9"/>
<g>
	<path class="st1" d="M66.4,23.9c0.2,0.6,0.2,0.8,0.4,0.8c0.2,0,0.3-0.2,0.4-0.5c0.2-0.6,1-2.8,1.5-4l0.2-0.5l1.6,4.6
		c0.1,0.3,0.2,0.5,0.4,0.5c0.2,0,0.2-0.1,0.5-0.8c0.2-0.5,0.5-1.4,0.8-2.3c0.3-1,0.6-1.9,0.8-2.5c0.2-0.5,0.3-0.8,0.5-0.9
		c0.1,0,0.2,0,0.3,0c0.1,0,0.2-0.1,0.2-0.2c0,0,0-0.2-0.2-0.2c-0.2,0-0.4,0-0.6,0c-0.1,0-0.1,0-0.1,0c0,0-0.1,0-0.1,0
		c-0.2,0-0.4,0-0.8,0c-0.2,0-0.3,0.1-0.3,0.2c0,0.1,0.1,0.2,0.2,0.2c0.4,0,0.4,0.1,0.4,0.1c0,0.1,0,0.2-0.1,0.5
		c-0.2,0.7-0.6,2-0.9,3.1c-0.1,0.4-0.2,0.8-0.3,1.1l-1.6-4.6c-0.1-0.3-0.2-0.5-0.3-0.5c-0.2,0-0.2,0.1-0.3,0.5l-1.7,4.6
		c-0.3-1.1-1-3.4-1.1-3.9l-0.1-0.2c-0.1-0.2-0.1-0.5-0.1-0.5c0-0.1,0-0.1,0-0.1c0.1,0,0.2,0,0.3,0c0.2,0,0.2-0.1,0.2-0.2
		c0-0.1,0-0.2-0.3-0.2c-0.3,0-0.6,0-0.8,0c-0.1,0-0.1,0-0.1,0c0,0-0.1,0-0.2,0c-0.2,0-0.5,0-0.8,0c-0.2,0-0.3,0.1-0.3,0.2
		c0,0.1,0.1,0.2,0.2,0.2c0.1,0,0.3,0,0.3,0c0.2,0.1,0.3,0.1,0.4,0.6L66.4,23.9z"/>
	<path class="st1" d="M82.2,21c0-2-1.4-3.4-3.5-3.4c-2.6,0-3.6,2.2-3.6,3.5c0,1.7,1.1,3.5,3.5,3.5C80.7,24.7,82.2,23.2,82.2,21z
		 M78.8,24.1c-1.6,0-2.7-1.3-2.7-3.2c0-1.7,0.9-2.7,2.4-2.7c1.2,0,2.5,1,2.5,3.1C81.1,24,79.2,24.1,78.8,24.1z"/>
	<path class="st1" d="M85.4,24.6c0,0,0,0,0.1,0c0.2,0,0.6,0,1,0c0.2,0,0.3-0.1,0.3-0.2c0-0.1-0.1-0.2-0.2-0.2c-0.1,0-0.3,0-0.4,0
		c-0.2,0-0.2-0.1-0.2-0.4c0-0.4,0-1.1,0-1.9v-0.2l1,0c0.1,0.1,0.2,0.3,0.3,0.4c0.2,0.3,0.4,0.6,0.6,0.8l0.1,0.1
		c0.4,0.6,0.7,1,1.1,1.2c0.3,0.1,0.5,0.2,1,0.2h0.6c0.1,0,0.3,0,0.3-0.2c0-0.1-0.1-0.2-0.2-0.2c0,0-0.2,0-0.3,0
		c-0.2,0-0.6-0.1-1-0.6c-0.4-0.5-1-1.1-1.6-1.9l-0.2-0.2c0.7-0.7,1-1.3,1-2c0-0.6-0.4-1.1-0.7-1.3c-0.5-0.4-1.1-0.4-1.7-0.4
		c-0.2,0-0.5,0-0.7,0c-0.1,0-0.3,0-0.3,0c0,0-0.1,0-0.1,0c-0.2,0-0.6,0-0.9,0c-0.2,0-0.3,0.1-0.3,0.2c0,0.1,0.1,0.2,0.2,0.2
		c0.1,0,0.2,0,0.3,0c0.2,0,0.3,0.1,0.3,0.4c0,0.3,0,0.5,0,1.9v1.5c0,0.8,0,1.5,0,1.9c0,0.3-0.1,0.4-0.2,0.4c-0.1,0-0.2,0-0.2,0
		c-0.1,0-0.2,0.1-0.2,0.2c0,0.1,0,0.2,0.3,0.2C84.8,24.6,85.3,24.6,85.4,24.6L85.4,24.6z M85.9,21.2l0-2.8c0.1,0,0.3,0,0.5,0
		c0.9,0,1.4,0.6,1.4,1.6c0,0.6-0.2,1-0.5,1.2c-0.2,0.1-0.4,0.1-0.6,0.1C86.4,21.3,86,21.2,85.9,21.2h-0.1H85.9z"/>
	<path class="st1" d="M92.8,18.1c0.1,0,0.2,0,0.3,0c0.2,0,0.3,0.1,0.3,0.4c0,0.3,0,0.5,0,1.9v1.5c0,0.8,0,1.5,0,1.9
		c0,0.3-0.1,0.4-0.2,0.4c-0.1,0-0.2,0-0.2,0c-0.1,0-0.2,0.1-0.2,0.2c0,0.1,0,0.2,0.3,0.2c0.1,0,0.3,0,0.5,0c0.1,0,0.2,0,0.3,0l0.1,0
		c0.2,0,0.5,0,0.9,0l0.3,0c0.3,0,0.7,0,1.2,0c0.5,0,0.6,0,0.7-0.3c0.1-0.3,0.1-0.8,0.1-0.9c0-0.1,0-0.3-0.2-0.3
		c-0.1,0-0.2,0-0.2,0.2c0,0.2-0.1,0.4-0.2,0.5c-0.2,0.2-0.5,0.2-1,0.2c-0.7,0-0.9-0.1-1-0.2c-0.1-0.1-0.2-1-0.2-1.9v-1.5
		c0-1.4,0-1.6,0-1.9c0-0.3,0.1-0.4,0.2-0.4c0.1,0,0.2,0,0.3,0c0.1,0,0.2-0.1,0.2-0.2c0-0.1,0-0.2-0.3-0.2c-0.2,0-0.6,0-0.8,0
		c-0.1,0-0.1,0-0.2,0c0,0-0.1,0-0.1,0c-0.2,0-0.6,0-0.9,0c-0.2,0-0.3,0.1-0.3,0.2C92.6,18.1,92.7,18.1,92.8,18.1z"/>
	<path class="st1" d="M99.1,18.1c0.1,0,0.2,0,0.3,0c0.2,0,0.3,0.1,0.3,0.4c0,0.3,0,0.5,0,1.9v1.5c0,0.8,0,1.5,0,1.9
		c0,0.3-0.1,0.4-0.2,0.4c-0.1,0-0.2,0-0.2,0c-0.1,0-0.2,0.1-0.2,0.2c0,0.1,0,0.2,0.3,0.2c0.1,0,0.1,0,0.2,0c0.1,0,0.2,0,0.3,0
		c0.2,0,0.3,0,0.3,0c0,0,0.1,0,0.2,0c0.1,0,0.3,0,0.5,0c0.5,0,0.9,0.1,1.2,0.1c1.1,0,2.1-0.4,2.7-1c0.6-0.7,1-1.6,1-2.5
		c0-1.1-0.5-1.9-0.9-2.3c-1-1-2.5-1-3.4-1l-0.2,0c-0.4,0-0.7,0-1,0c-0.1,0-0.2,0-0.2,0c0,0-0.1,0-0.1,0c-0.2,0-0.6,0-0.9,0
		c-0.2,0-0.3,0.1-0.3,0.2C98.9,18.1,99,18.1,99.1,18.1z M102.1,24.1c-1,0-1.3-0.2-1.4-0.3c0,0-0.1-0.1-0.1-0.6c0-0.2,0-1,0-1.9v-1.1
		c0-0.7,0-1.6,0-1.9c0,0,0,0,0,0l0,0c0,0,0.3,0,0.5,0c1.1,0,2,0.2,2.8,0.9c0.3,0.3,0.8,1,0.8,2.1c0,0.8-0.3,1.6-0.7,2
		C103.6,23.8,102.9,24.1,102.1,24.1z"/>
	<path class="st1" d="M70.7,38.8h0.6c0.1,0,0.3,0,0.3-0.2c0-0.1-0.1-0.2-0.2-0.2c0,0-0.2,0-0.3,0c-0.2,0-0.6-0.1-1-0.6
		c-0.4-0.5-1-1.1-1.6-1.9l-0.2-0.2c0.7-0.7,1-1.3,1-2c0-0.6-0.4-1.1-0.7-1.3C68.2,32,67.6,32,67.1,32c-0.2,0-0.5,0-0.7,0
		c-0.1,0-0.3,0-0.3,0c0,0-0.1,0-0.1,0c-0.2,0-0.6,0-0.9,0c-0.2,0-0.3,0.1-0.3,0.2c0,0.1,0.1,0.2,0.2,0.2c0.1,0,0.2,0,0.3,0
		c0.2,0,0.3,0.1,0.3,0.4c0,0.3,0,0.5,0,1.9v1.5c0,0.8,0,1.5,0,1.9c0,0.3-0.1,0.4-0.2,0.4c-0.1,0-0.2,0-0.2,0c-0.1,0-0.2,0.1-0.2,0.2
		c0,0.1,0,0.2,0.3,0.2c0.2,0,0.7,0,0.8,0l0,0c0,0,0,0,0.1,0c0.2,0,0.6,0,1,0c0.2,0,0.3-0.1,0.3-0.2c0-0.1-0.1-0.2-0.2-0.2
		c-0.1,0-0.3,0-0.4,0c-0.2,0-0.2-0.1-0.2-0.4c0-0.4,0-1.1,0-1.9V36l1,0c0.1,0.1,0.2,0.3,0.3,0.4c0.2,0.3,0.4,0.6,0.6,0.8l0.1,0.1
		c0.4,0.6,0.7,1,1.1,1.2C69.9,38.8,70.2,38.8,70.7,38.8z M66.5,35.4l0-2.8c0.1,0,0.3,0,0.5,0c0.9,0,1.4,0.6,1.4,1.6
		c0,0.6-0.2,1-0.5,1.2c-0.2,0.1-0.4,0.1-0.6,0.1C67,35.5,66.6,35.5,66.5,35.4h-0.1H66.5z"/>
	<path class="st1" d="M77.1,37.4c-0.2,0-0.2,0.2-0.2,0.2c-0.1,0.4-0.2,0.5-0.3,0.5c-0.2,0.1-0.6,0.1-0.8,0.1c-0.8,0-0.9-0.1-0.9-0.6
		c0-0.1,0-0.7,0-1.1l0-1.1c0.2,0,1,0,1.2,0c0.3,0,0.3,0.1,0.3,0.2c0,0.1,0,0.2,0,0.3c0,0.1,0.1,0.2,0.2,0.2c0.2,0,0.2-0.2,0.2-0.3
		c0-0.1,0-0.4,0-0.5c0-0.2,0-0.3,0.1-0.4c0-0.1,0-0.1,0-0.1c0-0.1-0.1-0.2-0.2-0.2c-0.1,0-0.1,0.1-0.2,0.2c0,0.1-0.1,0.1-0.3,0.1
		c-0.1,0-0.7,0-1.3,0l0-2.3c0.3,0,1,0,1.1,0c0.4,0,0.5,0.1,0.5,0.2c0,0.1,0,0.2,0,0.3c0,0.2,0.2,0.2,0.2,0.2c0.1,0,0.1,0,0.2-0.2
		c0-0.1,0-0.2,0-0.4c0-0.1,0-0.1,0-0.2c0-0.1,0-0.2,0-0.3c0-0.1,0-0.1,0-0.1c0-0.2-0.1-0.2-0.2-0.2c-0.1,0-0.1,0-0.2,0
		c-0.1,0-0.2,0-0.4,0c-0.2,0-1.3,0-2,0L74,32c-0.2,0-0.4,0-0.6,0c-0.2,0-0.3,0.1-0.3,0.2c0,0.1,0.1,0.2,0.2,0.2c0.1,0,0.2,0,0.3,0
		c0.2,0,0.3,0.1,0.3,0.4c0,0.3,0,0.5,0,1.9v1.5c0,0.8,0,1.5,0,1.9c0,0.3-0.1,0.4-0.2,0.4c-0.1,0-0.2,0-0.2,0c-0.1,0-0.2,0.1-0.2,0.2
		c0,0.1,0,0.2,0.3,0.2c0.1,0,0.1,0,0.2,0c0.1,0,0.2,0,0.3,0c0.2,0,0.3,0,0.3,0c0.1,0,0.3,0,0.7,0l0.2,0c0.3,0,0.7,0,1.3,0
		c0.3,0,0.5,0,0.6-0.3c0-0.2,0.1-0.8,0.1-0.9C77.3,37.5,77.2,37.4,77.1,37.4z"/>
	<path class="st1" d="M81.9,34.9l-0.2-0.2c-0.8-0.6-1-0.9-1-1.4c0-0.5,0.4-0.9,0.9-0.9c0.7,0,0.9,0.3,1,0.4c0,0.1,0.1,0.3,0.1,0.4
		c0,0.1,0,0.2,0.2,0.2c0.2,0,0.2-0.2,0.2-0.3c0-0.5,0-0.7,0-0.9c0,0,0-0.1,0-0.1c0-0.1,0-0.2-0.2-0.2c-0.1,0-0.1,0-0.3,0
		c-0.3-0.1-0.5-0.1-0.8-0.1c-1.2,0-1.9,0.7-1.9,1.7c0,0.6,0.2,1.2,1.2,2l0.4,0.3c0.8,0.6,1,0.9,1,1.5c0,0.5-0.4,1-1.1,1
		c-0.3,0-1-0.1-1.2-0.8c0-0.1,0-0.2,0-0.3c0-0.2-0.1-0.2-0.2-0.2c-0.2,0-0.2,0.2-0.2,0.3l0,0.1c0,0.2,0,0.5,0,0.8
		c0,0.2,0,0.3,0.2,0.4l0,0c0.3,0.2,0.7,0.2,1.2,0.2c0.5,0,1-0.1,1.4-0.4c0.6-0.4,0.8-1.1,0.8-1.5C83.2,36.3,83,35.7,81.9,34.9z"/>
	<path class="st1" d="M88.9,31.9c-2.6,0-3.6,2.2-3.6,3.5c0,1.7,1.1,3.5,3.5,3.5c2.1,0,3.6-1.5,3.6-3.7C92.5,33.2,91,31.9,88.9,31.9z
		 M89.1,38.4c-1.6,0-2.7-1.3-2.7-3.2c0-1.7,0.9-2.7,2.4-2.7c1.2,0,2.5,1,2.5,3.1C91.4,38.2,89.5,38.4,89.1,38.4z"/>
	<path class="st1" d="M99.5,38.3c0.7-0.7,0.8-1.8,0.8-2.7v-0.9c0-1.4,0-1.6,0-1.9c0-0.3,0.1-0.4,0.2-0.4c0.1,0,0.1,0,0.2,0
		c0.1,0,0.2-0.1,0.2-0.2c0-0.1,0-0.2-0.3-0.2c-0.2,0-0.4,0-0.6,0c-0.1,0-0.1,0-0.1,0c0,0-0.1,0-0.1,0c-0.2,0-0.5,0-0.8,0
		c-0.2,0-0.3,0.1-0.3,0.2c0,0.1,0.1,0.2,0.2,0.2c0.1,0,0.2,0,0.3,0c0.2,0,0.3,0.1,0.3,0.4c0,0.3,0,0.5,0,1.9v1.1
		c0,1-0.1,1.6-0.5,2.1c-0.3,0.4-0.8,0.6-1.3,0.6c-0.5,0-0.8-0.1-1.2-0.4c-0.3-0.3-0.6-0.8-0.6-2.1v-1.2c0-1.4,0-1.6,0-1.9
		c0-0.3,0.1-0.4,0.2-0.4c0.1,0,0.1,0,0.2,0c0.1,0,0.2-0.1,0.2-0.2c0-0.1,0-0.2-0.3-0.2c-0.2,0-0.4,0-0.6,0c-0.1,0-0.2,0-0.2,0
		c0,0-0.1,0-0.2,0c-0.2,0-0.5,0-0.8,0c-0.2,0-0.3,0.1-0.3,0.2c0,0.1,0.1,0.2,0.2,0.2c0.1,0,0.2,0,0.3,0c0.2,0,0.3,0.1,0.3,0.4
		c0,0.3,0,0.5,0,1.9v1.3c0,1.1,0.2,1.9,0.8,2.4c0.6,0.6,1.4,0.7,1.9,0.7C98.1,38.9,98.8,38.9,99.5,38.3z"/>
	<path class="st1" d="M105.7,38.6c0-0.1-0.1-0.2-0.2-0.2c-0.1,0-0.3,0-0.4,0c-0.2,0-0.2-0.1-0.2-0.4c0-0.4,0-1.1,0-1.9V36l1,0
		c0.1,0.1,0.2,0.3,0.3,0.4c0.2,0.3,0.4,0.6,0.6,0.8l0.1,0.1c0.4,0.6,0.7,1,1.1,1.2c0.3,0.1,0.5,0.2,1,0.2h0.6c0.1,0,0.3,0,0.3-0.2
		c0-0.1-0.1-0.2-0.2-0.2c0,0-0.2,0-0.3,0c-0.2,0-0.6-0.1-1-0.6c-0.4-0.5-1-1.1-1.6-1.9l-0.2-0.2c0.7-0.7,1-1.3,1-2
		c0-0.6-0.4-1.1-0.7-1.3c-0.5-0.4-1.1-0.4-1.7-0.4c-0.2,0-0.5,0-0.7,0c-0.1,0-0.3,0-0.3,0c0,0-0.1,0-0.1,0c-0.2,0-0.6,0-0.9,0
		c-0.2,0-0.3,0.1-0.3,0.2c0,0.1,0.1,0.2,0.2,0.2c0.1,0,0.2,0,0.3,0c0.2,0,0.3,0.1,0.3,0.4c0,0.3,0,0.5,0,1.9v1.5c0,0.8,0,1.5,0,1.9
		c0,0.3-0.1,0.4-0.2,0.4c-0.1,0-0.2,0-0.2,0c-0.1,0-0.2,0.1-0.2,0.2c0,0.1,0,0.2,0.3,0.2c0.2,0,0.7,0,0.8,0l0,0c0,0,0,0,0.1,0
		c0.2,0,0.6,0,1,0C105.7,38.8,105.7,38.7,105.7,38.6z M104.8,35.4l0-2.8c0.1,0,0.3,0,0.5,0c0.9,0,1.4,0.6,1.4,1.6
		c0,0.6-0.2,1-0.5,1.2c-0.2,0.1-0.4,0.1-0.6,0.1C105.3,35.5,104.9,35.5,104.8,35.4h-0.1H104.8z"/>
	<path class="st1" d="M116.3,38.7c0.2-0.1,0.2-0.1,0.3-0.3c0.1-0.3,0.2-1.1,0.2-1.1c0-0.2-0.2-0.3-0.2-0.3c-0.2,0-0.2,0.2-0.2,0.2
		c0,0.1-0.1,0.5-0.3,0.7c-0.3,0.3-0.8,0.4-1.4,0.4c-1.9,0-3-1.6-3-3.1c0-0.7,0.1-1.6,0.7-2.2c0.4-0.4,1-0.6,1.9-0.6
		c0.8,0,1.4,0.2,1.7,0.5c0.2,0.2,0.3,0.5,0.3,0.8c0,0.1,0,0.3,0.2,0.3c0.2,0,0.2-0.2,0.2-0.3c0-0.1,0-0.2,0-0.3c0-0.2,0-0.4,0-0.6
		c0-0.2,0-0.3,0-0.4c0-0.1,0-0.1,0-0.1c0-0.1,0-0.2-0.2-0.2c-0.3,0-0.5-0.1-0.9-0.1c-0.5-0.1-1.1-0.1-1.3-0.1c-1.2,0-2.1,0.3-2.7,1
		c-0.7,0.7-1,1.8-1,2.5c0,1.1,0.4,2,1.1,2.7c0.7,0.7,1.7,1,3,1C115.2,38.9,115.9,38.9,116.3,38.7z"/>
	<path class="st1" d="M122.5,38.8c0.3,0,0.5,0,0.6-0.3c0-0.2,0.1-0.8,0.1-0.9c0-0.2-0.1-0.3-0.2-0.3c-0.2,0-0.2,0.2-0.2,0.2
		c-0.1,0.4-0.2,0.5-0.3,0.5c-0.2,0.1-0.6,0.1-0.8,0.1c-0.8,0-0.9-0.1-0.9-0.6c0-0.1,0-0.7,0-1.1l0-1.1c0.2,0,1,0,1.2,0
		c0.3,0,0.3,0.1,0.3,0.2c0,0.1,0,0.2,0,0.3c0,0.1,0.1,0.2,0.2,0.2c0.2,0,0.2-0.2,0.2-0.3c0-0.1,0-0.4,0-0.5c0-0.2,0-0.3,0.1-0.4
		c0-0.1,0-0.1,0-0.1c0-0.1-0.1-0.2-0.2-0.2c-0.1,0-0.1,0.1-0.2,0.2c0,0.1-0.1,0.1-0.3,0.1c-0.1,0-0.8,0-1.3,0l0-2.3c0.3,0,1,0,1.1,0
		c0.4,0,0.5,0.1,0.5,0.2c0,0.1,0,0.2,0,0.3c0,0.2,0.2,0.2,0.2,0.2c0.1,0,0.1,0,0.2-0.2c0-0.1,0-0.2,0-0.4c0-0.1,0-0.1,0-0.2
		c0-0.1,0-0.2,0.1-0.3c0-0.1,0-0.1,0-0.1c0-0.2-0.1-0.2-0.2-0.2c-0.1,0-0.1,0-0.2,0c-0.1,0-0.2,0-0.4,0c-0.2,0-1.3,0-2,0l-0.4,0
		c-0.2,0-0.4,0-0.6,0c-0.2,0-0.3,0.1-0.3,0.2c0,0.1,0.1,0.2,0.2,0.2c0.1,0,0.2,0,0.3,0c0.2,0,0.3,0.1,0.3,0.4c0,0.3,0,0.5,0,1.9v1.5
		c0,0.8,0,1.5,0,1.9c0,0.3-0.1,0.4-0.2,0.4c-0.1,0-0.2,0-0.2,0c-0.1,0-0.2,0.1-0.2,0.2c0,0.1,0,0.2,0.3,0.2c0.1,0,0.1,0,0.2,0
		c0.1,0,0.2,0,0.3,0c0.2,0,0.3,0,0.3,0c0.1,0,0.3,0,0.7,0l0.2,0C121.5,38.8,121.9,38.8,122.5,38.8z"/>
	<path class="st1" d="M127.8,34.9l-0.2-0.2c-0.8-0.6-1-0.9-1-1.4c0-0.5,0.4-0.9,0.9-0.9c0.7,0,0.9,0.3,1,0.4c0,0.1,0.1,0.3,0.1,0.4
		c0,0.1,0,0.2,0.2,0.2c0.2,0,0.2-0.2,0.2-0.3c0-0.5,0-0.7,0-0.9c0,0,0-0.1,0-0.1c0-0.1,0-0.2-0.2-0.2c-0.1,0-0.1,0-0.3,0
		c-0.3-0.1-0.5-0.1-0.8-0.1c-1.2,0-1.9,0.7-1.9,1.7c0,0.6,0.2,1.2,1.2,2l0.4,0.3c0.8,0.6,1,0.9,1,1.5c0,0.5-0.4,1-1.1,1
		c-0.3,0-1-0.1-1.2-0.8c0-0.1,0-0.2,0-0.3c0-0.2-0.1-0.2-0.2-0.2c-0.2,0-0.2,0.2-0.2,0.3l0,0.1c0,0.2,0,0.5,0,0.8
		c0,0.2,0,0.3,0.2,0.4l0,0c0.3,0.2,0.7,0.2,1.2,0.2c0.5,0,1-0.1,1.4-0.4c0.6-0.4,0.8-1.1,0.8-1.5C129.1,36.3,128.9,35.7,127.8,34.9z
		"/>
	<path class="st1" d="M67.2,52.7c-0.1,0-0.3,0-0.4,0c-0.2,0-0.2-0.1-0.2-0.4c0-0.4,0-1.1,0-1.9v-1.5c0-1.4,0-1.6,0-1.9
		c0-0.3,0.1-0.4,0.2-0.4c0.1,0,0.1,0,0.2,0c0.1,0,0.2-0.1,0.2-0.2c0-0.1,0-0.2-0.3-0.2c-0.2,0-0.5,0-0.7,0c-0.1,0-0.1,0-0.1,0
		c0,0-0.1,0-0.1,0c-0.2,0-0.5,0-0.7,0c-0.2,0-0.3,0.1-0.3,0.2c0,0.1,0.1,0.2,0.2,0.2c0.1,0,0.2,0,0.2,0c0.1,0,0.2,0.1,0.2,0.4
		c0,0.3,0,0.5,0,1.9v1.5c0,0.8,0,1.5,0,1.9c0,0.3-0.1,0.4-0.2,0.4c-0.1,0-0.2,0-0.2,0c-0.1,0-0.2,0.1-0.2,0.2c0,0.1,0,0.2,0.3,0.2
		c0.2,0,0.5,0,0.7,0c0.1,0,0.1,0,0.1,0c0,0,0,0,0.1,0c0.2,0,0.6,0,1,0c0.2,0,0.3-0.1,0.3-0.2C67.4,52.8,67.3,52.7,67.2,52.7z"/>
	<path class="st1" d="M76.6,46.2c-0.2,0-0.4,0-0.6,0c-0.1,0-0.1,0-0.2,0c0,0-0.1,0-0.2,0c-0.2,0-0.5,0-0.7,0c-0.1,0-0.3,0-0.3,0.2
		c0,0.1,0.1,0.2,0.2,0.2c0.1,0,0.2,0,0.4,0c0.2,0,0.2,0.1,0.2,0.7l0.1,4.1c-0.1-0.2-0.3-0.4-0.5-0.6c-0.4-0.4-0.9-1-1.3-1.4
		c-1.3-1.4-2.6-2.8-2.8-3c0,0,0,0-0.1-0.1c-0.1-0.1-0.2-0.2-0.3-0.2c-0.2,0-0.2,0.3-0.2,0.6l0,5c0,0.7,0,0.9-0.2,1
		c-0.1,0-0.2,0-0.3,0c-0.1,0-0.2,0.1-0.2,0.2c0,0.1,0.1,0.2,0.3,0.2c0.3,0,0.5,0,0.7,0c0.1,0,0.1,0,0.3,0c0.2,0,0.4,0,0.8,0
		c0.2,0,0.3-0.1,0.3-0.2c0-0.1-0.1-0.2-0.2-0.2c0,0-0.2,0-0.4,0c-0.1,0-0.2-0.2-0.3-0.9L71,47.9c0.4,0.5,1.2,1.4,2,2.2
		c0.9,1,2.2,2.3,2.3,2.4c0.5,0.5,0.6,0.6,0.7,0.6c0.2,0,0.2-0.2,0.2-0.7l0-5.1c0-0.6,0.1-0.6,0.2-0.7c0.1,0,0.1,0,0.2,0
		c0.1,0,0.2-0.1,0.2-0.2C76.9,46.2,76.6,46.2,76.6,46.2z"/>
	<path class="st1" d="M81.3,49.1l-0.2-0.2c-0.8-0.6-1-0.9-1-1.4c0-0.5,0.4-0.9,0.9-0.9c0.7,0,0.9,0.3,1,0.4c0,0.1,0.1,0.3,0.1,0.4
		c0,0.1,0,0.2,0.2,0.2c0.2,0,0.2-0.2,0.2-0.3c0-0.5,0-0.7,0-0.9c0,0,0-0.1,0-0.1c0-0.1,0-0.2-0.2-0.2c-0.1,0-0.1,0-0.3,0
		c-0.3-0.1-0.5-0.1-0.8-0.1c-1.2,0-1.9,0.7-1.9,1.7c0,0.6,0.2,1.2,1.2,2l0.4,0.3c0.8,0.6,1,0.9,1,1.5c0,0.5-0.4,1-1.1,1
		c-0.3,0-1-0.1-1.2-0.8c0-0.1,0-0.2,0-0.3c0-0.2-0.1-0.2-0.2-0.2c-0.2,0-0.2,0.2-0.2,0.3l0,0.1c0,0.2,0,0.5,0,0.8
		c0,0.2,0,0.3,0.2,0.4l0,0c0.3,0.2,0.7,0.2,1.2,0.2c0.5,0,1-0.1,1.4-0.4c0.6-0.4,0.8-1.1,0.8-1.5C82.7,50.5,82.4,50,81.3,49.1z"/>
	<path class="st1" d="M90.2,46.2c0,0-0.1,0-0.1,0c0,0-0.1,0-0.2,0c-0.1,0-0.3,0-0.6,0h-3.3c-0.1,0-0.4,0-0.7,0c-0.1,0-0.2,0-0.3-0.1
		c0,0-0.1,0-0.1,0c-0.1,0-0.2,0.1-0.2,0.3c0,0-0.2,0.8-0.2,0.9c0,0.1,0.1,0.2,0.2,0.2c0.1,0,0.2-0.1,0.2-0.2c0-0.1,0-0.1,0.1-0.3
		c0.1-0.1,0.2-0.2,0.8-0.2l1.2,0v3.6c0,0.8,0,1.5,0,1.9c0,0.3-0.1,0.4-0.2,0.4c-0.1,0-0.2,0-0.2,0c-0.1,0-0.2,0.1-0.2,0.2
		c0,0.1,0,0.2,0.3,0.2c0.2,0,0.5,0,0.7,0c0.1,0,0.1,0,0.1,0c0,0,0,0,0.1,0c0.2,0,0.6,0,1,0c0.2,0,0.3-0.1,0.3-0.2
		c0-0.1-0.1-0.2-0.2-0.2c-0.1,0-0.3,0-0.4,0c-0.2,0-0.2-0.1-0.2-0.4c0-0.4,0-1.1,0-1.9v-3.6l1,0c0.9,0,0.9,0.3,1,0.4l0,0.1
		c0,0.1,0,0.3,0.2,0.3c0.1,0,0.2-0.1,0.2-0.2c0,0,0-0.1,0-0.3c0-0.2,0-0.5,0-0.7C90.4,46.2,90.3,46.2,90.2,46.2z"/>
	<path class="st1" d="M94.9,52.7c-0.1,0-0.3,0-0.4,0c-0.2,0-0.2-0.1-0.2-0.4c0-0.4,0-1.1,0-1.9v-1.5c0-1.4,0-1.6,0-1.9
		c0-0.3,0.1-0.4,0.2-0.4c0.1,0,0.1,0,0.2,0c0.1,0,0.2-0.1,0.2-0.2c0-0.1,0-0.2-0.3-0.2c-0.2,0-0.5,0-0.7,0c-0.1,0-0.1,0-0.1,0
		c0,0-0.1,0-0.1,0c-0.2,0-0.5,0-0.7,0c-0.2,0-0.3,0.1-0.3,0.2c0,0.1,0.1,0.2,0.2,0.2c0.1,0,0.2,0,0.2,0c0.1,0,0.2,0.1,0.2,0.4
		c0,0.3,0,0.5,0,1.9v1.5c0,0.8,0,1.5,0,1.9c0,0.3-0.1,0.4-0.2,0.4c-0.1,0-0.2,0-0.2,0c-0.1,0-0.2,0.1-0.2,0.2c0,0.1,0,0.2,0.3,0.2
		c0.2,0,0.5,0,0.7,0c0.1,0,0.1,0,0.1,0c0,0,0,0,0.1,0c0.2,0,0.6,0,1,0c0.2,0,0.3-0.1,0.3-0.2C95.1,52.8,95,52.7,94.9,52.7z"/>
	<path class="st1" d="M102.5,46.2c0,0-0.1,0-0.1,0c0,0-0.1,0-0.2,0c-0.1,0-0.3,0-0.6,0h-3.3c-0.1,0-0.4,0-0.7,0
		c-0.1,0-0.2,0-0.3-0.1c0,0-0.1,0-0.1,0c-0.1,0-0.2,0.1-0.2,0.3c0,0-0.2,0.8-0.2,0.9c0,0.1,0.1,0.2,0.2,0.2c0.1,0,0.2-0.1,0.2-0.2
		c0-0.1,0-0.1,0.1-0.3c0.1-0.1,0.2-0.2,0.8-0.2l1.2,0v3.6c0,0.8,0,1.5,0,1.9c0,0.3-0.1,0.4-0.2,0.4c-0.1,0-0.2,0-0.2,0
		c-0.1,0-0.2,0.1-0.2,0.2c0,0.1,0,0.2,0.3,0.2c0.2,0,0.5,0,0.7,0c0.1,0,0.1,0,0.1,0c0,0,0,0,0.1,0c0.2,0,0.6,0,1,0
		c0.2,0,0.3-0.1,0.3-0.2c0-0.1-0.1-0.2-0.2-0.2c-0.1,0-0.3,0-0.4,0c-0.2,0-0.2-0.1-0.2-0.4c0-0.4,0-1.1,0-1.9v-3.6l1,0
		c0.9,0,0.9,0.3,1,0.4l0,0.1c0,0.1,0,0.3,0.2,0.3c0.1,0,0.2,0,0.2-0.2c0,0,0-0.1,0-0.3c0-0.2,0-0.5,0-0.7
		C102.7,46.2,102.6,46.2,102.5,46.2z"/>
	<path class="st1" d="M111.1,46.2c-0.2,0-0.4,0-0.6,0c-0.1,0-0.1,0-0.1,0c0,0-0.1,0-0.1,0c-0.2,0-0.5,0-0.8,0
		c-0.2,0-0.3,0.1-0.3,0.2c0,0.1,0.1,0.2,0.2,0.2c0.1,0,0.2,0,0.3,0c0.2,0,0.3,0.1,0.3,0.4c0,0.3,0,0.5,0,1.9V50c0,1-0.1,1.6-0.5,2.1
		c-0.3,0.4-0.8,0.6-1.3,0.6c-0.5,0-0.8-0.1-1.2-0.4c-0.3-0.3-0.6-0.8-0.6-2.1v-1.2c0-1.4,0-1.6,0-1.9c0-0.3,0.1-0.4,0.2-0.4
		c0.1,0,0.1,0,0.2,0c0.1,0,0.2-0.1,0.2-0.2c0-0.1,0-0.2-0.3-0.2c-0.2,0-0.5,0-0.6,0c-0.1,0-0.2,0-0.2,0c0,0-0.1,0-0.2,0
		c-0.2,0-0.5,0-0.8,0c-0.2,0-0.3,0.1-0.3,0.2c0,0.1,0.1,0.2,0.2,0.2c0.1,0,0.2,0,0.3,0c0.2,0,0.3,0.1,0.3,0.4c0,0.3,0,0.5,0,1.9v1.3
		c0,1.1,0.2,1.8,0.8,2.4c0.6,0.6,1.4,0.7,1.9,0.7c0.5,0,1.2-0.1,1.9-0.7c0.7-0.7,0.8-1.8,0.8-2.7v-0.9c0-1.4,0-1.6,0-1.9
		c0-0.3,0.1-0.4,0.2-0.4c0.1,0,0.1,0,0.2,0c0.1,0,0.2-0.1,0.2-0.2C111.4,46.3,111.3,46.2,111.1,46.2z"/>
	<path class="st1" d="M118.8,46.2c0,0-0.1,0-0.1,0c0,0-0.1,0-0.2,0c-0.1,0-0.3,0-0.6,0h-3.3c-0.1,0-0.4,0-0.7,0
		c-0.1,0-0.2,0-0.3-0.1c0,0-0.1,0-0.1,0c-0.1,0-0.2,0.1-0.2,0.3c0,0-0.2,0.8-0.2,0.9c0,0.1,0.1,0.2,0.2,0.2c0.1,0,0.2-0.1,0.2-0.2
		c0-0.1,0-0.1,0.1-0.3c0.1-0.1,0.2-0.2,0.8-0.2l1.2,0v3.6c0,0.8,0,1.5,0,1.9c0,0.3-0.1,0.4-0.2,0.4c-0.1,0-0.2,0-0.2,0
		c-0.1,0-0.2,0.1-0.2,0.2c0,0.1,0,0.2,0.3,0.2c0.2,0,0.5,0,0.7,0c0.1,0,0.1,0,0.1,0c0,0,0,0,0.1,0c0.2,0,0.6,0,1,0
		c0.2,0,0.3-0.1,0.3-0.2c0-0.1-0.1-0.2-0.2-0.2c-0.1,0-0.3,0-0.4,0c-0.2,0-0.2-0.1-0.2-0.4c0-0.4,0-1.1,0-1.9v-3.6l1,0
		c0.9,0,0.9,0.3,1,0.4l0,0.1c0,0.1,0,0.3,0.2,0.3c0.1,0,0.2-0.1,0.2-0.2c0,0,0-0.1,0-0.3c0-0.2,0-0.5,0-0.7
		C119,46.2,118.9,46.2,118.8,46.2z"/>
	<path class="st1" d="M125,51.6c-0.2,0-0.2,0.2-0.2,0.2c-0.1,0.4-0.2,0.5-0.3,0.5c-0.2,0.1-0.6,0.1-0.8,0.1c-0.8,0-0.9-0.1-0.9-0.6
		c0-0.1,0-0.7,0-1.1l0-1.1c0.2,0,1,0,1.2,0c0.3,0,0.3,0.1,0.3,0.2c0,0.1,0,0.2,0,0.3c0,0.1,0.1,0.2,0.2,0.2c0.2,0,0.2-0.2,0.2-0.3
		c0-0.1,0-0.4,0-0.5c0-0.2,0-0.3,0.1-0.4c0-0.1,0-0.1,0-0.1c0-0.1-0.1-0.2-0.2-0.2c-0.1,0-0.1,0.1-0.2,0.2c0,0.1-0.1,0.1-0.3,0.1
		c-0.1,0-0.8,0-1.3,0l0-2.3c0.3,0,1,0,1.1,0c0.4,0,0.5,0.1,0.5,0.2c0,0.1,0,0.2,0,0.3c0,0.2,0.2,0.2,0.2,0.2c0.1,0,0.1,0,0.2-0.2
		c0-0.1,0-0.2,0-0.4c0-0.1,0-0.1,0-0.2c0-0.1,0-0.2,0.1-0.3c0-0.1,0-0.1,0-0.1c0-0.2-0.1-0.2-0.2-0.2c-0.1,0-0.1,0-0.2,0
		c-0.1,0-0.2,0-0.4,0c-0.2,0-1.3,0-2,0l-0.4,0c-0.2,0-0.4,0-0.6,0c-0.2,0-0.3,0.1-0.3,0.2c0,0.1,0.1,0.2,0.2,0.2c0.1,0,0.2,0,0.3,0
		c0.2,0,0.3,0.1,0.3,0.4c0,0.3,0,0.5,0,1.9v1.5c0,0.8,0,1.5,0,1.9c0,0.3-0.1,0.4-0.2,0.4c-0.1,0-0.2,0-0.2,0c-0.1,0-0.2,0.1-0.2,0.2
		c0,0.1,0,0.2,0.3,0.2c0.1,0,0.1,0,0.2,0c0.1,0,0.2,0,0.3,0c0.2,0,0.3,0,0.3,0c0.1,0,0.3,0,0.7,0l0.2,0c0.3,0,0.7,0,1.3,0
		c0.3,0,0.5,0,0.6-0.3c0-0.2,0.1-0.8,0.1-0.9C125.2,51.7,125.1,51.6,125,51.6z"/>
</g>
<g>
	<path class="st1" d="M149,37.8c0,0-0.1,0-0.3,0c-0.2,0-0.5-0.1-0.9-0.5c-0.4-0.4-0.9-1-1.4-1.7l-0.1-0.2c0.6-0.6,0.9-1.2,0.9-1.8
		c0-0.6-0.4-1-0.6-1.2c-0.5-0.3-1-0.4-1.5-0.4c-0.2,0-0.4,0-0.7,0c-0.1,0-0.2,0-0.3,0c0,0,0,0-0.1,0c-0.2,0-0.5,0-0.8,0
		c-0.2,0-0.2,0.1-0.2,0.2c0,0.1,0.1,0.2,0.2,0.2c0.1,0,0.2,0,0.2,0c0.2,0,0.2,0.1,0.2,0.3c0,0.2,0,0.5,0,1.7v1.4c0,0.7,0,1.4,0,1.7
		c0,0.2-0.1,0.3-0.1,0.3c-0.1,0-0.2,0-0.2,0c-0.1,0-0.2,0.1-0.2,0.2c0,0.1,0,0.2,0.2,0.2c0.2,0,0.6,0,0.7,0l0,0c0,0,0,0,0.1,0
		c0.2,0,0.5,0,0.9,0c0.2,0,0.2-0.2,0.2-0.2c0-0.1-0.1-0.2-0.2-0.2c-0.1,0-0.2,0-0.3,0c-0.1,0-0.2-0.1-0.2-0.3c0-0.3,0-1,0-1.7v-0.1
		l0.9,0c0.1,0.1,0.2,0.2,0.3,0.4c0.2,0.2,0.4,0.5,0.6,0.8l0.1,0.1c0.4,0.5,0.7,0.9,1,1.1c0.2,0.1,0.5,0.2,0.9,0.2h0.6
		c0.1,0,0.3,0,0.3-0.2C149.2,37.9,149.1,37.8,149,37.8z M144.5,35v-2.6c0.1,0,0.3,0,0.5,0c0.8,0,1.2,0.5,1.2,1.5
		c0,0.5-0.2,0.9-0.4,1.1c-0.2,0.1-0.4,0.1-0.5,0.1C144.9,35.1,144.6,35.1,144.5,35h-0.1H144.5z"/>
	<path class="st1" d="M152.6,31.8c-2.4,0-3.2,2-3.2,3.2c0,1.6,1,3.2,3.2,3.2c1.9,0,3.3-1.4,3.3-3.4C155.9,33,154.6,31.8,152.6,31.8z
		 M152.8,37.7c-1.4,0-2.4-1.2-2.4-2.9c0-1.6,0.8-2.5,2.2-2.5c1.1,0,2.3,0.9,2.3,2.8C154.9,37.6,153.2,37.7,152.8,37.7z"/>
	<path class="st1" d="M157.7,38L157.7,38c0.3,0.2,0.7,0.2,1.1,0.2c0.5,0,0.9-0.1,1.3-0.4c0.5-0.4,0.7-1,0.7-1.4c0-0.7-0.3-1.3-1.2-2
		l-0.2-0.2c-0.7-0.6-0.9-0.8-0.9-1.2c0-0.5,0.3-0.8,0.8-0.8c0.6,0,0.8,0.3,0.9,0.4c0,0.1,0.1,0.3,0.1,0.4c0,0.1,0,0.2,0.2,0.2
		c0.2,0,0.2-0.2,0.2-0.3c0-0.4,0-0.7,0-0.8c0,0,0-0.1,0-0.1c0,0,0-0.2-0.2-0.2c-0.1,0-0.1,0-0.2,0c-0.2-0.1-0.5-0.1-0.8-0.1
		c-1.1,0-1.8,0.6-1.8,1.5c0,0.6,0.2,1.1,1.1,1.8l0.4,0.3c0.7,0.6,0.9,0.8,0.9,1.3c0,0.5-0.3,0.9-1,0.9c-0.3,0-0.9-0.1-1.1-0.7
		c0-0.1,0-0.2,0-0.3c0-0.2-0.1-0.2-0.2-0.2c-0.1,0-0.2,0.1-0.2,0.2l0,0.1c0,0.2,0,0.4,0,0.8C157.5,37.8,157.5,37.9,157.7,38z"/>
	<path class="st1" d="M165.1,37.9c0.5-0.4,0.7-1,0.7-1.4c0-0.7-0.3-1.3-1.2-2l-0.2-0.2c-0.7-0.6-0.9-0.8-0.9-1.2
		c0-0.5,0.3-0.8,0.8-0.8c0.6,0,0.8,0.3,0.9,0.4c0,0.1,0.1,0.3,0.1,0.4c0,0.1,0,0.2,0.2,0.2c0.2,0,0.2-0.2,0.2-0.3c0-0.4,0-0.7,0-0.8
		c0,0,0-0.1,0-0.1c0,0,0-0.2-0.2-0.2c-0.1,0-0.1,0-0.2,0c-0.2-0.1-0.5-0.1-0.8-0.1c-1.1,0-1.8,0.6-1.8,1.5c0,0.6,0.2,1.1,1.1,1.8
		l0.4,0.3c0.7,0.6,0.9,0.8,0.9,1.3c0,0.5-0.3,0.9-1,0.9c-0.3,0-0.9-0.1-1.1-0.7c0-0.1,0-0.2,0-0.3c0-0.2-0.1-0.2-0.2-0.2
		c-0.1,0-0.2,0.1-0.2,0.2l0,0.1c0,0.2,0,0.4,0,0.8c0,0.2,0,0.3,0.2,0.4l0,0c0.3,0.2,0.7,0.2,1.1,0.2
		C164.3,38.3,164.7,38.1,165.1,37.9z"/>
	<path class="st1" d="M148.2,50.7c-0.2,0-0.2,0.2-0.2,0.2c0,0.1-0.1,0.5-0.3,0.6c-0.3,0.3-0.7,0.4-1.3,0.4c-1.7,0-2.7-1.4-2.7-2.8
		c0-0.7,0.1-1.4,0.7-2c0.4-0.4,0.9-0.5,1.7-0.5c0.7,0,1.3,0.2,1.5,0.4c0.2,0.1,0.3,0.4,0.3,0.7c0,0.1,0,0.3,0.2,0.3
		c0.2,0,0.2-0.2,0.2-0.3c0,0,0-0.2,0-0.3c0-0.2,0-0.4,0-0.5c0-0.2,0-0.3,0-0.3c0-0.1,0-0.1,0-0.1c0-0.1,0-0.2-0.2-0.2
		c-0.2,0-0.5-0.1-0.8-0.1l0,0c-0.5-0.1-1-0.1-1.2-0.1c-1.1,0-1.9,0.3-2.5,0.9c-0.7,0.7-0.9,1.6-0.9,2.2c0,1,0.3,1.8,1,2.4
		c0.7,0.6,1.5,0.9,2.7,0.9c0.5,0,1.1-0.1,1.5-0.2c0.2-0.1,0.2-0.1,0.3-0.3c0.1-0.3,0.2-1,0.2-1C148.3,50.8,148.2,50.7,148.2,50.7z"
		/>
	<path class="st1" d="M153.5,51.1c-0.2,0-0.2,0.2-0.2,0.2c-0.1,0.3-0.1,0.4-0.3,0.5c-0.2,0.1-0.5,0.1-0.7,0.1
		c-0.7,0-0.8-0.1-0.8-0.5c0-0.1,0-0.6,0-1l0-1c0.2,0,0.9,0,1.1,0c0.3,0,0.3,0.1,0.3,0.2c0,0.1,0,0.2,0,0.2c0,0.1,0.1,0.2,0.2,0.2
		c0.2,0,0.2-0.2,0.2-0.3c0,0,0-0.3,0-0.5c0-0.2,0-0.3,0-0.3c0-0.1,0-0.1,0-0.1c0-0.1-0.1-0.2-0.2-0.2c-0.1,0-0.1,0.1-0.2,0.1
		c0,0-0.1,0.1-0.3,0.1c-0.1,0-0.7,0-1.2,0l0-2.1c0.2,0,0.9,0,1,0c0.4,0,0.4,0.1,0.5,0.2c0,0.1,0,0.2,0,0.2c0,0.2,0.2,0.2,0.2,0.2
		c0.1,0,0.1,0,0.2-0.2c0-0.1,0-0.2,0-0.4c0-0.1,0-0.1,0-0.2c0-0.1,0-0.2,0-0.3c0,0,0-0.1,0-0.1c0-0.2-0.1-0.2-0.2-0.2
		c-0.1,0-0.1,0-0.1,0c0,0-0.2,0-0.3,0c-0.1,0-1.2,0-1.8,0l-0.3,0c-0.2,0-0.4,0-0.6,0c-0.2,0-0.2,0.1-0.2,0.2c0,0.1,0.1,0.2,0.2,0.2
		c0.1,0,0.2,0,0.2,0c0.2,0,0.2,0.1,0.2,0.3c0,0.2,0,0.5,0,1.7V50c0,0.7,0,1.4,0,1.7c0,0.2-0.1,0.3-0.1,0.3c-0.1,0-0.2,0-0.2,0
		c-0.1,0-0.2,0.1-0.2,0.2c0,0.1,0,0.2,0.2,0.2c0.1,0,0.1,0,0.2,0c0.1,0,0.2,0,0.3,0c0.2,0,0.3,0,0.3,0c0.1,0,0.3,0,0.6,0l0.2,0
		c0.3,0,0.7,0,1.2,0c0.3,0,0.5,0,0.5-0.3c0-0.2,0.1-0.7,0.1-0.8C153.7,51.1,153.7,51.1,153.5,51.1z"/>
	<path class="st1" d="M161.6,46.1c-0.2,0-0.4,0-0.5,0c-0.1,0-0.1,0-0.3,0c-0.2,0-0.4,0-0.7,0c-0.1,0-0.3,0-0.3,0.2
		c0,0.1,0.1,0.2,0.2,0.2c0.1,0,0.2,0,0.4,0c0.1,0,0.2,0.1,0.2,0.6l0.1,3.7c-0.1-0.1-0.3-0.3-0.5-0.5c-0.4-0.4-0.8-0.9-1.2-1.3
		c-1.2-1.3-2.4-2.6-2.5-2.7c0,0,0,0-0.1-0.1c-0.1-0.1-0.2-0.2-0.3-0.2c-0.2,0-0.2,0.3-0.2,0.5l0,4.5c0,0.6,0,0.9-0.2,0.9
		c-0.1,0-0.2,0-0.3,0c-0.1,0-0.2,0.1-0.2,0.2c0,0.1,0,0.2,0.2,0.2c0.2,0,0.5,0,0.6,0c0.1,0,0.1,0,0.2,0c0.1,0,0.4,0,0.7,0
		c0.2,0,0.3-0.1,0.3-0.2c0-0.1-0.1-0.2-0.2-0.2c-0.1,0-0.2,0-0.4,0c-0.1,0-0.2-0.1-0.2-0.8l-0.1-3.5c0.4,0.4,1.1,1.2,1.8,2
		c0.8,0.9,2,2.1,2.1,2.1c0.5,0.5,0.5,0.5,0.7,0.5c0.2,0,0.2-0.2,0.2-0.7l0-4.6c0-0.5,0.1-0.6,0.2-0.6c0.1,0,0.1,0,0.2,0
		c0.1,0,0.2-0.1,0.2-0.2C161.9,46.1,161.7,46.1,161.6,46.1z"/>
	<path class="st1" d="M168.4,46.1C168.3,46.1,168.3,46.1,168.4,46.1c-0.1,0-0.2,0-0.2,0c-0.1,0-0.3,0-0.5,0h-3c-0.1,0-0.4,0-0.6,0
		c-0.1,0-0.2,0-0.2-0.1c0,0-0.1,0-0.1,0c-0.1,0-0.2,0.1-0.2,0.2c0,0-0.2,0.7-0.2,0.9c0,0.1,0.1,0.2,0.2,0.2c0.1,0,0.2-0.1,0.2-0.2
		c0,0,0-0.1,0.1-0.2c0.1-0.1,0.2-0.2,0.7-0.2l1,0V50c0,0.7,0,1.4,0,1.7c0,0.2-0.1,0.3-0.1,0.3c-0.1,0-0.2,0-0.2,0
		c-0.1,0-0.2,0.1-0.2,0.2c0,0.1,0,0.2,0.2,0.2c0.2,0,0.5,0,0.6,0c0.1,0,0.1,0,0.1,0l0.1,0c0.2,0,0.5,0,0.9,0c0.2,0,0.2-0.2,0.2-0.2
		c0-0.1-0.1-0.2-0.2-0.2c-0.1,0-0.2,0-0.3,0c-0.1,0-0.2-0.1-0.2-0.3c0-0.3,0-1,0-1.7v-3.2l0.9,0c0.8,0,0.8,0.2,0.9,0.3l0,0.1
		c0,0.1,0,0.2,0.2,0.2c0.1,0,0.2,0,0.2-0.2c0,0,0-0.1,0-0.2c0-0.2,0-0.5,0-0.6C168.5,46.1,168.4,46.1,168.4,46.1z"/>
	<path class="st1" d="M173.6,51.1c-0.2,0-0.2,0.2-0.2,0.2c-0.1,0.3-0.1,0.4-0.3,0.5c-0.2,0.1-0.5,0.1-0.7,0.1
		c-0.7,0-0.8-0.1-0.8-0.5c0-0.1,0-0.6,0-1l0-1c0.2,0,0.9,0,1.1,0c0.3,0,0.3,0.1,0.3,0.2c0,0.1,0,0.2,0,0.2c0,0.1,0.1,0.2,0.2,0.2
		c0.2,0,0.2-0.2,0.2-0.3c0,0,0-0.3,0-0.5c0-0.2,0-0.3,0-0.3c0-0.1,0-0.1,0-0.1c0-0.1-0.1-0.2-0.2-0.2c-0.1,0-0.1,0.1-0.2,0.1
		c0,0-0.1,0.1-0.3,0.1c-0.1,0-0.7,0-1.2,0l0-2.1c0.2,0,0.9,0,1,0c0.4,0,0.4,0.1,0.5,0.2c0,0.1,0,0.2,0,0.2c0,0.2,0.2,0.2,0.2,0.2
		c0,0,0.1,0,0.2-0.2c0-0.1,0-0.2,0-0.4c0-0.1,0-0.1,0-0.2c0-0.1,0-0.2,0-0.3c0,0,0-0.1,0-0.1c0-0.2-0.1-0.2-0.2-0.2
		c-0.1,0-0.1,0-0.1,0c0,0-0.2,0-0.3,0c-0.1,0-1.2,0-1.8,0l-0.3,0c-0.2,0-0.4,0-0.6,0c-0.2,0-0.2,0.1-0.2,0.2c0,0.1,0.1,0.2,0.2,0.2
		c0.1,0,0.2,0,0.2,0c0.2,0,0.2,0.1,0.2,0.3c0,0.2,0,0.5,0,1.7V50c0,0.7,0,1.4,0,1.7c0,0.2-0.1,0.3-0.1,0.3c-0.1,0-0.2,0-0.2,0
		c-0.1,0-0.2,0.1-0.2,0.2c0,0.1,0,0.2,0.2,0.2c0.1,0,0.1,0,0.2,0c0.1,0,0.2,0,0.3,0c0.2,0,0.3,0,0.3,0c0.1,0,0.3,0,0.6,0l0.2,0
		c0.3,0,0.7,0,1.2,0c0.3,0,0.5,0,0.5-0.3c0-0.2,0.1-0.7,0.1-0.8C173.8,51.1,173.7,51.1,173.6,51.1z"/>
	<path class="st1" d="M181.4,52c0,0-0.1,0-0.3,0c-0.2,0-0.5-0.1-0.9-0.5c-0.4-0.4-0.9-1-1.4-1.7l-0.1-0.2c0.6-0.6,0.9-1.2,0.9-1.8
		c0-0.6-0.4-1-0.6-1.2c-0.5-0.3-1-0.4-1.5-0.4c-0.2,0-0.4,0-0.7,0c-0.1,0-0.2,0-0.3,0c0,0,0,0-0.1,0c-0.2,0-0.5,0-0.8,0
		c-0.2,0-0.2,0.1-0.2,0.2c0,0.1,0.1,0.2,0.2,0.2c0.1,0,0.2,0,0.2,0c0.2,0,0.2,0.1,0.2,0.3c0,0.2,0,0.5,0,1.7V50c0,0.7,0,1.4,0,1.7
		c0,0.2-0.1,0.3-0.1,0.3c-0.1,0-0.2,0-0.2,0c-0.1,0-0.2,0.1-0.2,0.2c0,0.1,0,0.2,0.2,0.2c0.2,0,0.6,0,0.7,0l0,0c0,0,0,0,0.1,0
		c0.2,0,0.5,0,0.9,0c0.2,0,0.2-0.2,0.2-0.2c0-0.1-0.1-0.2-0.2-0.2c-0.1,0-0.2,0-0.3,0c-0.1,0-0.2-0.1-0.2-0.3c0-0.3,0-1,0-1.7v-0.1
		l0.9,0c0.1,0.1,0.2,0.2,0.3,0.4c0.2,0.2,0.4,0.5,0.6,0.8l0.1,0.1c0.4,0.5,0.7,0.9,1,1.1c0.2,0.1,0.5,0.2,0.9,0.2h0.6
		c0.1,0,0.3,0,0.3-0.2C181.6,52.1,181.5,52,181.4,52z M177,49.3v-2.6c0.1,0,0.3,0,0.5,0c0.8,0,1.2,0.5,1.2,1.5
		c0,0.5-0.2,0.9-0.4,1.1c-0.2,0.1-0.4,0.1-0.5,0.1C177.4,49.4,177,49.3,177,49.3h-0.1H177z"/>
</g>
<path class="st1" d="M136.5,31.7c-0.1,0-0.2,0.1-0.2,0.2v21.2c0,0.1,0.1,0.2,0.2,0.2s0.2-0.1,0.2-0.2V31.9
	C136.7,31.8,136.6,31.7,136.5,31.7z"/>
<polygon class="st1" points="24.2,17.5 21.9,19.8 24.1,22 26.4,19.7 24.2,17.5 "/>
<polygon class="st1" points="39.7,37.7 48.1,46.1 50.5,43.7 42.1,35.3 39.7,37.7 "/>
<polygon class="st1" points="21.6,25.6 23.9,28 33.2,18.7 36.5,22 38.8,19.7 33.2,14 "/>
<polygon class="st1" points="46,25.6 48.3,28 50.5,25.8 48.1,23.5 46,25.6 "/>
<rect x="21.3" y="45" transform="matrix(0.7071 -0.7071 0.7071 0.7071 -25.018 32.9394)" class="st1" width="11.9" height="3.3"/>
<rect x="33.1" y="33" transform="matrix(0.7071 -0.7071 0.7071 0.7071 -12.9874 37.9226)" class="st1" width="12.3" height="3.3"/>
<polygon class="st1" points="40,25.5 49.3,34.8 46,38.1 48.3,40.4 53.9,34.8 42.3,23.2 40,25.5 "/>
<polygon class="st1" points="15.9,43.7 18.2,46.1 20.4,43.9 18.1,41.5 15.9,43.7 "/>
<rect x="33.2" y="21.2" transform="matrix(0.7071 -0.7071 0.7071 0.7071 -4.6854 34.3607)" class="st1" width="11.9" height="3.3"/>
<polygon class="st1" points="12.5,34.8 24.1,46.4 26.4,44 17.1,34.8 20.4,31.4 18.1,29.1 12.5,34.8 "/>
<polygon class="st1" points="27.6,25.5 36.3,34.2 38.6,31.8 29.9,23.1 27.6,25.5 "/>
<rect x="40.6" y="48.2" transform="matrix(0.7071 -0.7071 0.7071 0.7071 -22.8238 44.4455)" class="st1" width="3.3" height="3.1"/>
<rect x="19.6" y="22.9" transform="matrix(0.7071 -0.7071 0.7071 0.7071 -14.1412 23.484)" class="st1" width="3.3" height="11.9"/>
<rect x="31.7" y="34.7" transform="matrix(0.7071 -0.7071 0.7071 0.7071 -19.1253 35.5167)" class="st1" width="3.3" height="12.3"/>
<polygon class="st1" points="33.2,50.8 29.9,47.5 27.6,49.8 33.2,55.5 44.8,43.9 42.5,41.5 "/>
<rect x="20.9" y="33.2" transform="matrix(0.7071 -0.7071 0.7071 0.7071 -16.7209 29.3755)" class="st1" width="12.3" height="3.3"/>
<g>
	<path class="st1" d="M16.8,66.1h7.7c4.2,0,7.4,2.5,7.4,7.6c0,4.9-2.9,7.5-7.7,7.5h-2.8v10.4h-4.6V66.1z M21.4,77.6h2.2
		c2.6,0,3.7-1.3,3.7-4c0-2.6-1.3-3.8-3.4-3.8h-2.5V77.6z"/>
	<path class="st1" d="M38.8,80.7v10.9h-4.5V66.1h7.8c4.6,0,7.3,2.5,7.3,7c0,3.7-2,5.3-3.3,5.8c2,0.9,2.9,2.6,2.9,6.4v1
		c0,2.9,0.2,4,0.3,5.4h-4.4c-0.4-1.2-0.4-3.2-0.4-5.4v-0.9c0-3.4-0.8-4.6-3.7-4.6H38.8z M38.8,77H41c2.8,0,3.8-1.2,3.8-3.7
		c0-2.2-1.1-3.5-3.4-3.5h-2.6V77z"/>
	<path class="st1" d="M57.1,66.1v25.5h-4.6V66.1H57.1z"/>
	<path class="st1" d="M59.5,88.5l10-18.4h-9.2v-4h14.1v3.7l-9.6,17.9h10.1l-0.6,4H59.5V88.5z"/>
	<path class="st1" d="M89.9,80.3h-8.2v7.4h9.2l-0.6,3.9H77.1V66.1h13.1v4h-8.6v6.2h8.2V80.3z"/>
</g>
<g>
	<path class="st1" d="M124.4,84.6c-0.1,1.5-0.8,7.4-6.9,7.4c-6.8,0-7.3-7.2-7.3-13.3c0-7.4,2-13,7.6-13c6.2,0,6.5,5.7,6.6,7.3h-2.8
		c-0.1-0.9-0.2-4.8-3.8-4.8c-4,0-4.7,5.5-4.7,10.4c0,5.4,0.6,10.8,4.5,10.8c3.4,0,3.9-3.7,4-5H124.4z"/>
	<path class="st1" d="M130.1,66.1v25.5h-2.8V66.1H130.1z"/>
	<path class="st1" d="M138.1,68.6h-5.7v-2.5h14.2v2.5h-5.7v23h-2.8V68.6z"/>
	<path class="st1" d="M151.7,66.1v25.5h-2.8V66.1H151.7z"/>
	<path class="st1" d="M167.3,79.4h-8.5v9.8h9.5l-0.4,2.5H156V66.1h11.7v2.5h-8.9v8.3h8.5V79.4z"/>
	<path class="st1" d="M172.5,84.9c0.2,2.6,1.5,4.7,4.3,4.7c2.7,0,4-1.5,4-4.4c0-2.7-1.1-4.1-4.6-5.8c-4-1.9-5.7-3.7-5.7-7.4
		c0-3.5,2.3-6.3,6.4-6.3c4.9,0,6.2,3.5,6.3,6.5h-2.7c-0.2-1.2-0.5-4.2-3.7-4.2c-2.4,0-3.5,1.7-3.5,3.7c0,2.4,1.1,3.6,4.3,5.1
		c4.5,2.1,6.1,4.3,6.1,8.1c0,4-2.3,6.9-6.9,6.9c-5.1,0-6.8-3.3-7-7H172.5z"/>
</g>
<g>
	<g>
		<path class="st1" d="M95.7,91.9v-6.7H97v5.2h3.2v-4.8h1.3v4.8h4.5v1.5H95.7z"/>
		<path class="st1" d="M100.8,74.6c2.8,0,5.3,1.6,5.3,4.8c0,3-2.3,4.7-5.2,4.7c-2.9,0-5.3-1.7-5.3-4.8
			C95.6,76.4,97.7,74.6,100.8,74.6z M100.8,82.5c2.2,0,4-1.1,4-3.2c0-2.3-1.9-3.2-4-3.2c-2.2,0-3.9,1-3.9,3.2
			C96.9,81.5,98.7,82.5,100.8,82.5z"/>
		<path class="st1" d="M101.5,71.1h4.4v1.5H95.7v-4.1c0-2.1,1.2-3.2,2.7-3.2c1.3,0,2.1,0.8,2.4,1.7c0.2-0.8,0.8-1.5,2.6-1.5h0.4
			c0.7,0,1.6,0,2-0.1v1.5c-0.4,0.2-1.2,0.2-2.2,0.2h-0.2c-1.4,0-2,0.4-2,2.2V71.1z M100.3,71.1v-2.1c0-1.5-0.6-2.1-1.7-2.1
			c-1,0-1.6,0.7-1.6,2v2.3H100.3z"/>
	</g>
</g>
</svg>
