<?xml version="1.0" encoding="utf-8"?>
<!-- Generator: Adobe Illustrator 24.0.1, SVG Export Plug-In . SVG Version: 6.00 Build 0)  -->
<svg version="1.1" id="Layer_1" xmlns="http://www.w3.org/2000/svg" xmlns:xlink="http://www.w3.org/1999/xlink" x="0px" y="0px"
	 viewBox="0 0 180 180.1" style="enable-background:new 0 0 180 180.1;" xml:space="preserve">
<style type="text/css">
	.st0{fill:#FFFFFF;}
</style>
<g>
	<path class="st0" d="M36.9,7.4c0.1,0.4,0.2,0.5,0.3,0.5c0.1,0,0.2-0.1,0.3-0.4c0.2-0.4,0.7-1.8,1-2.7l0.1-0.3l1.1,3
		c0.1,0.2,0.1,0.4,0.3,0.4c0.1,0,0.2-0.1,0.3-0.6c0.1-0.3,0.3-0.9,0.5-1.6c0.2-0.6,0.4-1.3,0.6-1.7c0.1-0.3,0.2-0.5,0.3-0.6
		c0,0,0.1,0,0.2,0c0.1,0,0.1-0.1,0.1-0.1c0,0,0-0.1-0.2-0.1c-0.1,0-0.3,0-0.4,0c0,0-0.1,0-0.1,0c0,0,0,0-0.1,0c-0.1,0-0.3,0-0.5,0
		c-0.1,0-0.2,0.1-0.2,0.1c0,0.1,0.1,0.1,0.1,0.1c0.2,0,0.2,0.1,0.2,0.1c0,0.1,0,0.1-0.1,0.3c-0.1,0.5-0.4,1.3-0.6,2
		c-0.1,0.3-0.2,0.5-0.2,0.7l-1.1-3.1c-0.1-0.2-0.1-0.3-0.2-0.3c-0.1,0-0.1,0.1-0.2,0.3l-1.1,3.1c-0.2-0.7-0.6-2.3-0.7-2.6l0-0.2
		c0-0.2-0.1-0.3-0.1-0.4c0-0.1,0-0.1,0-0.1c0.1,0,0.2,0,0.2,0c0.1,0,0.1-0.1,0.1-0.1c0-0.1,0-0.1-0.2-0.1c-0.2,0-0.4,0-0.5,0
		c0,0-0.1,0-0.1,0c0,0-0.1,0-0.1,0c-0.1,0-0.4,0-0.6,0c-0.2,0-0.2,0.1-0.2,0.1c0,0.1,0,0.1,0.1,0.1c0,0,0.2,0,0.2,0
		c0.1,0,0.2,0.1,0.3,0.4L36.9,7.4z"/>
	<path class="st0" d="M47.4,5.5c0-1.3-0.9-2.3-2.4-2.3c-1.7,0-2.4,1.4-2.4,2.3c0,1.1,0.7,2.4,2.3,2.4C46.4,7.9,47.4,6.9,47.4,5.5z
		 M45.2,7.5c-1,0-1.8-0.9-1.8-2.1c0-1.1,0.6-1.8,1.6-1.8c0.8,0,1.7,0.6,1.7,2.1C46.7,7.4,45.4,7.5,45.2,7.5z"/>
	<path class="st0" d="M49.6,7.8C49.6,7.8,49.6,7.8,49.6,7.8c0.2,0,0.5,0,0.7,0c0.2,0,0.2-0.1,0.2-0.1c0-0.1,0-0.1-0.1-0.1
		c0,0-0.2,0-0.3,0c-0.1,0-0.1-0.1-0.2-0.2c0-0.2,0-0.7,0-1.2V6l0.7,0c0,0.1,0.1,0.2,0.2,0.3c0.1,0.2,0.3,0.4,0.4,0.6l0.1,0.1
		c0.3,0.4,0.5,0.6,0.7,0.8c0.2,0.1,0.3,0.1,0.7,0.1h0.4c0.1,0,0.2,0,0.2-0.1c0-0.1-0.1-0.1-0.1-0.1c0,0-0.1,0-0.2,0
		c-0.1,0-0.4-0.1-0.7-0.4c-0.3-0.3-0.6-0.8-1-1.3l-0.1-0.2c0.5-0.4,0.7-0.9,0.7-1.3c0-0.4-0.3-0.7-0.4-0.9c-0.3-0.2-0.7-0.3-1.1-0.3
		c-0.1,0-0.3,0-0.5,0c-0.1,0-0.2,0-0.2,0c0,0,0,0-0.1,0c-0.1,0-0.4,0-0.6,0c-0.2,0-0.2,0.1-0.2,0.1c0,0.1,0.1,0.1,0.1,0.1
		c0.1,0,0.1,0,0.2,0c0.1,0,0.2,0.1,0.2,0.3c0,0.2,0,0.3,0,1.2v1c0,0.5,0,1,0,1.2c0,0.2-0.1,0.2-0.1,0.2c0,0-0.1,0-0.2,0
		c-0.1,0-0.1,0.1-0.1,0.1c0,0,0,0.1,0.2,0.1C49.2,7.8,49.5,7.8,49.6,7.8L49.6,7.8z M49.9,5.6l0-1.9c0,0,0.2,0,0.4,0
		c0.6,0,0.9,0.4,0.9,1.1c0,0.4-0.1,0.7-0.3,0.8c-0.1,0.1-0.3,0.1-0.4,0.1C50.2,5.6,50,5.6,49.9,5.6L49.9,5.6L49.9,5.6z"/>
	<path class="st0" d="M54.5,3.5c0.1,0,0.1,0,0.2,0c0.1,0,0.2,0.1,0.2,0.3c0,0.2,0,0.3,0,1.2v1c0,0.5,0,1,0,1.2
		c0,0.2-0.1,0.2-0.1,0.2c0,0-0.1,0-0.2,0c-0.1,0-0.1,0.1-0.1,0.1c0,0,0,0.1,0.2,0.1c0.1,0,0.2,0,0.3,0c0.1,0,0.2,0,0.2,0l0,0
		c0.2,0,0.3,0,0.6,0l0.2,0c0.2,0,0.5,0,0.8,0c0.3,0,0.4,0,0.4-0.2c0-0.2,0.1-0.5,0.1-0.6c0,0,0-0.2-0.1-0.2c0,0-0.1,0-0.1,0.1
		c0,0.1-0.1,0.2-0.1,0.3c-0.1,0.1-0.3,0.1-0.6,0.1c-0.4,0-0.6,0-0.6-0.1c-0.1-0.1-0.1-0.7-0.1-1.3v-1c0-0.9,0-1.1,0-1.2
		c0-0.2,0.1-0.2,0.2-0.3c0.1,0,0.1,0,0.2,0c0.1,0,0.1-0.1,0.1-0.1c0,0,0-0.1-0.2-0.1c-0.1,0-0.4,0-0.5,0c-0.1,0-0.1,0-0.1,0
		c0,0,0,0-0.1,0c-0.1,0-0.4,0-0.6,0c-0.2,0-0.2,0.1-0.2,0.1C54.3,3.5,54.4,3.5,54.5,3.5z"/>
	<path class="st0" d="M58.7,3.5c0.1,0,0.1,0,0.2,0C59,3.6,59,3.6,59,3.8c0,0.2,0,0.3,0,1.2v1c0,0.5,0,1,0,1.2c0,0.2-0.1,0.2-0.1,0.2
		c0,0-0.1,0-0.2,0c-0.1,0-0.1,0.1-0.1,0.1c0,0,0,0.1,0.2,0.1c0,0,0.1,0,0.1,0c0.1,0,0.1,0,0.2,0c0.1,0,0.2,0,0.2,0c0,0,0.1,0,0.2,0
		c0.1,0,0.2,0,0.3,0c0.3,0,0.6,0,0.8,0c0.8,0,1.4-0.2,1.8-0.7c0.4-0.4,0.6-1,0.6-1.7c0-0.8-0.3-1.3-0.6-1.5
		c-0.7-0.7-1.7-0.7-2.3-0.7l-0.1,0c-0.2,0-0.5,0-0.6,0c-0.1,0-0.1,0-0.1,0c0,0,0,0-0.1,0c-0.1,0-0.4,0-0.6,0c-0.2,0-0.2,0.1-0.2,0.1
		C58.6,3.5,58.6,3.5,58.7,3.5z M60.7,7.5c-0.7,0-0.9-0.1-0.9-0.2c0,0,0-0.1,0-0.4c0-0.1,0-0.6,0-1.3V5c0-0.4,0-1,0-1.2c0,0,0,0,0,0
		l0,0c0,0,0.2,0,0.3,0c0.7,0,1.3,0.1,1.8,0.6c0.2,0.2,0.5,0.7,0.5,1.4c0,0.5-0.2,1.1-0.4,1.3C61.7,7.3,61.2,7.5,60.7,7.5z"/>
	<path class="st0" d="M39.7,17.3h0.4c0.1,0,0.2,0,0.2-0.1c0-0.1-0.1-0.1-0.1-0.1c0,0-0.1,0-0.2,0c-0.1,0-0.4-0.1-0.7-0.4
		c-0.3-0.3-0.6-0.8-1-1.3l-0.1-0.2c0.5-0.4,0.7-0.9,0.7-1.3c0-0.4-0.3-0.7-0.4-0.9c-0.3-0.2-0.7-0.3-1.1-0.3c-0.1,0-0.3,0-0.5,0
		c-0.1,0-0.2,0-0.2,0c0,0,0,0-0.1,0c-0.1,0-0.4,0-0.6,0c-0.2,0-0.2,0.1-0.2,0.1c0,0.1,0.1,0.1,0.1,0.1c0.1,0,0.1,0,0.2,0
		c0.1,0,0.2,0.1,0.2,0.3c0,0.2,0,0.3,0,1.2v1c0,0.5,0,1,0,1.2c0,0.2-0.1,0.2-0.1,0.2c0,0-0.1,0-0.2,0c-0.1,0-0.1,0.1-0.1,0.1
		c0,0,0,0.1,0.2,0.1c0.1,0,0.4,0,0.5,0l0,0c0,0,0,0,0.1,0c0.1,0,0.4,0,0.6,0c0.2,0,0.2-0.1,0.2-0.1c0-0.1,0-0.1-0.1-0.1
		c0,0-0.2,0-0.3,0C37,17,37,17,37,16.8c0-0.2,0-0.7,0-1.2v-0.1l0.7,0c0,0.1,0.1,0.2,0.2,0.3c0.1,0.2,0.3,0.4,0.4,0.6l0.1,0.1
		c0.3,0.4,0.5,0.6,0.7,0.8C39.3,17.3,39.4,17.3,39.7,17.3z M37,15l0-1.9c0,0,0.2,0,0.4,0c0.6,0,0.9,0.4,0.9,1.1
		c0,0.4-0.1,0.7-0.3,0.8c-0.1,0.1-0.3,0.1-0.4,0.1C37.3,15.1,37,15.1,37,15L37,15L37,15z"/>
	<path class="st0" d="M44,16.4c-0.1,0-0.1,0.1-0.1,0.2c0,0.2-0.1,0.3-0.2,0.4c-0.1,0.1-0.4,0.1-0.5,0.1c-0.6,0-0.6-0.1-0.6-0.4
		c0-0.1,0-0.5,0-0.7l0-0.7c0.2,0,0.6,0,0.8,0c0.2,0,0.2,0.1,0.2,0.1c0,0.1,0,0.1,0,0.2c0,0.1,0.1,0.1,0.1,0.1c0.1,0,0.1-0.1,0.1-0.2
		c0,0,0-0.2,0-0.4c0-0.1,0-0.2,0-0.2c0,0,0-0.1,0-0.1c0-0.1-0.1-0.1-0.1-0.1c-0.1,0-0.1,0-0.1,0.1c0,0-0.1,0-0.2,0.1
		c-0.1,0-0.5,0-0.9,0l0-1.6c0.2,0,0.7,0,0.7,0c0.3,0,0.3,0.1,0.3,0.1c0,0.1,0,0.1,0,0.2c0,0.1,0.1,0.2,0.1,0.2c0,0,0.1,0,0.1-0.1
		c0,0,0-0.1,0-0.3c0-0.1,0-0.1,0-0.1c0-0.1,0-0.2,0-0.2c0,0,0-0.1,0-0.1c0-0.1-0.1-0.1-0.1-0.1c0,0-0.1,0-0.1,0c0,0-0.1,0-0.2,0
		c-0.1,0-0.9,0-1.3,0l-0.2,0c-0.1,0-0.3,0-0.4,0c-0.2,0-0.2,0.1-0.2,0.1c0,0.1,0.1,0.1,0.1,0.1c0.1,0,0.1,0,0.2,0
		c0.1,0,0.2,0.1,0.2,0.3c0,0.2,0,0.3,0,1.2v1c0,0.5,0,1,0,1.2c0,0.2-0.1,0.2-0.1,0.2c0,0-0.1,0-0.2,0c-0.1,0-0.1,0.1-0.1,0.1
		c0,0,0,0.1,0.2,0.1c0,0,0.1,0,0.1,0c0.1,0,0.1,0,0.2,0c0.1,0,0.2,0,0.2,0c0.1,0,0.2,0,0.4,0l0.1,0c0.2,0,0.5,0,0.9,0
		c0.2,0,0.3,0,0.4-0.2c0-0.1,0.1-0.5,0.1-0.6C44.1,16.4,44.1,16.4,44,16.4z"/>
	<path class="st0" d="M47.2,14.7L47,14.6c-0.5-0.4-0.7-0.6-0.7-0.9c0-0.4,0.3-0.6,0.6-0.6c0.5,0,0.6,0.2,0.7,0.3
		c0,0,0.1,0.2,0.1,0.3c0,0,0,0.1,0.1,0.1c0.1,0,0.1-0.2,0.1-0.2c0-0.3,0-0.5,0-0.6c0,0,0,0,0,0c0,0,0-0.1-0.1-0.1c0,0-0.1,0-0.2,0
		c-0.2,0-0.3-0.1-0.6-0.1c-0.8,0-1.3,0.5-1.3,1.1c0,0.4,0.1,0.8,0.8,1.3l0.3,0.2c0.5,0.4,0.6,0.6,0.6,1c0,0.3-0.3,0.7-0.7,0.7
		c-0.2,0-0.7-0.1-0.8-0.5c0-0.1,0-0.1,0-0.2c0-0.1-0.1-0.1-0.1-0.1c-0.1,0-0.1,0.1-0.1,0.2l0,0.1c0,0.1,0,0.3,0,0.5
		c0,0.2,0,0.2,0.1,0.3l0,0c0.2,0.1,0.5,0.2,0.8,0.2c0.4,0,0.7-0.1,0.9-0.3c0.4-0.3,0.5-0.7,0.5-1C48.1,15.6,47.9,15.3,47.2,14.7z"/>
	<path class="st0" d="M51.9,12.7c-1.7,0-2.4,1.4-2.4,2.3c0,1.1,0.7,2.4,2.3,2.4c1.4,0,2.4-1,2.4-2.5C54.2,13.6,53.3,12.7,51.9,12.7z
		 M52,17c-1,0-1.8-0.9-1.8-2.1c0-1.1,0.6-1.8,1.6-1.8c0.8,0,1.7,0.6,1.7,2.1C53.5,16.9,52.3,17,52,17z"/>
	<path class="st0" d="M58.9,16.9c0.5-0.4,0.6-1.2,0.6-1.8v-0.6c0-0.9,0-1.1,0-1.2c0-0.2,0.1-0.2,0.2-0.3c0.1,0,0.1,0,0.1,0
		c0.1,0,0.1-0.1,0.1-0.1c0,0,0-0.1-0.2-0.1c-0.1,0-0.3,0-0.4,0c0,0-0.1,0-0.1,0c0,0,0,0-0.1,0c-0.1,0-0.3,0-0.5,0
		c-0.2,0-0.2,0.1-0.2,0.1c0,0.1,0.1,0.1,0.1,0.1c0.1,0,0.1,0,0.2,0c0.1,0,0.2,0.1,0.2,0.3c0,0.2,0,0.3,0,1.2v0.7
		c0,0.7-0.1,1.1-0.3,1.4c-0.2,0.2-0.5,0.4-0.8,0.4c-0.3,0-0.6,0-0.8-0.3c-0.2-0.2-0.4-0.5-0.4-1.4v-0.8c0-0.9,0-1.1,0-1.2
		c0-0.2,0.1-0.2,0.2-0.3c0.1,0,0.1,0,0.1,0c0.1,0,0.1-0.1,0.1-0.1c0,0,0-0.1-0.2-0.1c-0.1,0-0.3,0-0.4,0c-0.1,0-0.1,0-0.1,0
		c0,0-0.1,0-0.1,0c-0.1,0-0.4,0-0.5,0c-0.2,0-0.2,0.1-0.2,0.1c0,0.1,0.1,0.1,0.1,0.1c0.1,0,0.1,0,0.2,0c0.1,0,0.2,0.1,0.2,0.3
		c0,0.2,0,0.3,0,1.2v0.8c0,0.7,0.2,1.2,0.5,1.6c0.4,0.4,1,0.4,1.2,0.4C58,17.4,58.5,17.4,58.9,16.9z"/>
	<path class="st0" d="M63,17.2c0-0.1,0-0.1-0.1-0.1c0,0-0.2,0-0.2,0c-0.1,0-0.1-0.1-0.2-0.2c0-0.2,0-0.7,0-1.2v-0.1l0.7,0
		c0,0.1,0.1,0.2,0.2,0.3c0.1,0.2,0.3,0.4,0.4,0.6l0.1,0.1c0.3,0.4,0.5,0.6,0.7,0.8c0.2,0.1,0.3,0.1,0.7,0.1h0.4c0.1,0,0.2,0,0.2-0.1
		c0-0.1-0.1-0.1-0.1-0.1c0,0-0.1,0-0.2,0c-0.1,0-0.4-0.1-0.7-0.4c-0.3-0.3-0.6-0.8-1-1.3l-0.1-0.2c0.5-0.4,0.7-0.9,0.7-1.3
		c0-0.4-0.3-0.7-0.4-0.9c-0.3-0.2-0.7-0.3-1.1-0.3c-0.1,0-0.3,0-0.5,0c-0.1,0-0.2,0-0.2,0c0,0,0,0-0.1,0c-0.1,0-0.4,0-0.6,0
		c-0.2,0-0.2,0.1-0.2,0.1c0,0.1,0.1,0.1,0.1,0.1c0.1,0,0.1,0,0.2,0c0.1,0,0.2,0.1,0.2,0.3c0,0.2,0,0.3,0,1.2v1c0,0.5,0,1,0,1.2
		c0,0.2-0.1,0.2-0.1,0.2c0,0-0.1,0-0.2,0c-0.1,0-0.1,0.1-0.1,0.1c0,0,0,0.1,0.2,0.1c0.1,0,0.4,0,0.5,0l0,0c0,0,0,0,0.1,0
		c0.1,0,0.4,0,0.6,0C63,17.3,63,17.2,63,17.2z M62.5,15l0-1.9c0,0,0.2,0,0.4,0c0.6,0,0.9,0.4,0.9,1.1c0,0.4-0.1,0.7-0.3,0.8
		c-0.1,0.1-0.3,0.1-0.4,0.1C62.8,15.1,62.6,15.1,62.5,15L62.5,15L62.5,15z"/>
	<path class="st0" d="M70.1,17.3c0.1-0.1,0.2-0.1,0.2-0.2c0.1-0.2,0.1-0.7,0.1-0.8c0-0.2-0.1-0.2-0.1-0.2c-0.1,0-0.1,0.1-0.1,0.2
		c0,0.1-0.1,0.3-0.2,0.4c-0.2,0.2-0.5,0.3-0.9,0.3c-1.3,0-2-1-2-2c0-0.5,0.1-1,0.5-1.5c0.3-0.3,0.7-0.4,1.3-0.4
		c0.5,0,0.9,0.2,1.1,0.3c0.1,0.1,0.2,0.3,0.2,0.5c0,0.1,0,0.2,0.1,0.2c0.1,0,0.1-0.1,0.1-0.2c0,0,0-0.1,0-0.2c0-0.1,0-0.3,0-0.4
		c0-0.1,0-0.2,0-0.2c0,0,0-0.1,0-0.1c0,0,0-0.1-0.2-0.1c-0.2,0-0.4,0-0.6-0.1c-0.3-0.1-0.7-0.1-0.9-0.1c-0.8,0-1.4,0.2-1.8,0.6
		c-0.5,0.5-0.7,1.2-0.7,1.6c0,0.7,0.2,1.3,0.7,1.8c0.5,0.4,1.1,0.6,2,0.6C69.4,17.4,69.9,17.4,70.1,17.3z"/>
	<path class="st0" d="M74.2,17.3c0.2,0,0.3,0,0.4-0.2c0-0.1,0.1-0.5,0.1-0.6c0-0.1,0-0.2-0.1-0.2c-0.1,0-0.1,0.1-0.1,0.2
		c0,0.2-0.1,0.3-0.2,0.4c-0.1,0.1-0.4,0.1-0.5,0.1c-0.6,0-0.6-0.1-0.6-0.4c0-0.1,0-0.5,0-0.7l0-0.7c0.2,0,0.6,0,0.8,0
		c0.2,0,0.2,0.1,0.2,0.1c0,0.1,0,0.1,0,0.2c0,0.1,0.1,0.1,0.1,0.1c0.1,0,0.1-0.1,0.1-0.2c0,0,0-0.2,0-0.4c0-0.1,0-0.2,0-0.2
		c0,0,0-0.1,0-0.1c0-0.1-0.1-0.1-0.1-0.1c-0.1,0-0.1,0-0.1,0.1c0,0-0.1,0-0.2,0.1c-0.1,0-0.5,0-0.9,0l0-1.6c0.2,0,0.7,0,0.7,0
		c0.3,0,0.3,0.1,0.3,0.1c0,0.1,0,0.1,0,0.2c0,0.1,0.1,0.2,0.1,0.2c0,0,0.1,0,0.1-0.1c0,0,0-0.1,0-0.3c0-0.1,0-0.1,0-0.1
		c0-0.1,0-0.2,0-0.2c0,0,0-0.1,0-0.1c0-0.1-0.1-0.1-0.1-0.1c0,0-0.1,0-0.1,0c0,0-0.1,0-0.2,0c-0.1,0-0.9,0-1.3,0l-0.2,0
		c-0.1,0-0.3,0-0.4,0c-0.2,0-0.2,0.1-0.2,0.1C72,13,72,13,72.1,13c0.1,0,0.1,0,0.2,0c0.1,0,0.2,0.1,0.2,0.3c0,0.2,0,0.3,0,1.2v1
		c0,0.5,0,1,0,1.2c0,0.2-0.1,0.2-0.1,0.2c0,0-0.1,0-0.2,0c-0.1,0-0.1,0.1-0.1,0.1c0,0,0,0.1,0.2,0.1c0,0,0.1,0,0.1,0
		c0.1,0,0.1,0,0.2,0c0.1,0,0.2,0,0.2,0c0.1,0,0.2,0,0.4,0l0.1,0C73.6,17.3,73.9,17.3,74.2,17.3z"/>
	<path class="st0" d="M77.8,14.7l-0.2-0.1c-0.5-0.4-0.7-0.6-0.7-0.9c0-0.4,0.3-0.6,0.6-0.6c0.5,0,0.6,0.2,0.7,0.3
		c0,0,0.1,0.2,0.1,0.3c0,0,0,0.1,0.1,0.1c0.1,0,0.1-0.2,0.1-0.2c0-0.3,0-0.5,0-0.6c0,0,0,0,0,0c0,0,0-0.1-0.1-0.1c0,0-0.1,0-0.2,0
		c-0.2,0-0.3-0.1-0.6-0.1c-0.8,0-1.3,0.5-1.3,1.1c0,0.4,0.1,0.8,0.8,1.3l0.3,0.2c0.5,0.4,0.6,0.6,0.6,1c0,0.3-0.3,0.7-0.7,0.7
		c-0.2,0-0.7-0.1-0.8-0.5c0-0.1,0-0.1,0-0.2c0-0.1-0.1-0.1-0.1-0.1c-0.1,0-0.1,0.1-0.1,0.2l0,0.1c0,0.1,0,0.3,0,0.6
		c0,0.2,0,0.2,0.1,0.3l0,0c0.2,0.1,0.5,0.2,0.8,0.2c0.4,0,0.7-0.1,0.9-0.3c0.4-0.3,0.5-0.7,0.5-1C78.7,15.6,78.5,15.3,77.8,14.7z"/>
	<path class="st0" d="M37.4,26.5c0,0-0.2,0-0.3,0c-0.1,0-0.1-0.1-0.2-0.2c0-0.2,0-0.7,0-1.2v-1c0-0.9,0-1.1,0-1.2
		c0-0.2,0.1-0.2,0.2-0.3c0.1,0,0.1,0,0.1,0c0.1,0,0.1-0.1,0.1-0.1c0,0,0-0.1-0.2-0.1c-0.1,0-0.3,0-0.5,0c-0.1,0-0.1,0-0.1,0
		c0,0,0,0-0.1,0c-0.1,0-0.4,0-0.5,0c-0.2,0-0.2,0.1-0.2,0.1c0,0.1,0.1,0.1,0.1,0.1c0,0,0.1,0,0.2,0c0.1,0,0.1,0,0.1,0.2
		c0,0.2,0,0.3,0,1.2v1c0,0.5,0,1,0,1.2c0,0.2-0.1,0.2-0.1,0.2c0,0-0.1,0-0.2,0c-0.1,0-0.1,0.1-0.1,0.1c0,0,0,0.1,0.2,0.1
		c0.1,0,0.3,0,0.5,0c0,0,0.1,0,0.1,0c0,0,0,0,0.1,0c0.1,0,0.4,0,0.6,0c0.2,0,0.2-0.1,0.2-0.1C37.5,26.6,37.5,26.5,37.4,26.5z"/>
	<path class="st0" d="M43.7,22.2c-0.2,0-0.3,0-0.4,0c0,0-0.1,0-0.1,0c0,0-0.1,0-0.1,0c-0.1,0-0.3,0-0.5,0c-0.1,0-0.2,0-0.2,0.1
		c0,0.1,0,0.1,0.1,0.1c0,0,0.2,0,0.3,0c0.1,0,0.2,0.1,0.2,0.5l0.1,2.7c-0.1-0.1-0.2-0.2-0.4-0.4c-0.3-0.3-0.6-0.6-0.9-1
		c-0.9-1-1.8-1.9-1.8-2c0,0,0,0,0-0.1c-0.1-0.1-0.1-0.2-0.2-0.2c-0.1,0-0.1,0.2-0.1,0.4l0,3.3c0,0.5,0,0.6-0.1,0.7
		c-0.1,0-0.2,0-0.2,0c-0.1,0-0.1,0.1-0.1,0.1c0,0.1,0.1,0.1,0.2,0.1c0.2,0,0.4,0,0.5,0c0.1,0,0.1,0,0.2,0c0.1,0,0.3,0,0.5,0
		c0.2,0,0.2-0.1,0.2-0.1c0-0.1,0-0.1-0.1-0.1c0,0-0.2,0-0.3,0c-0.1,0-0.2-0.1-0.2-0.6l-0.1-2.6c0.3,0.3,0.8,0.9,1.4,1.5
		c0.6,0.7,1.5,1.5,1.5,1.6c0.3,0.3,0.4,0.4,0.5,0.4c0.1,0,0.1-0.1,0.1-0.5l0-3.4c0-0.4,0-0.4,0.2-0.4c0.1,0,0.1,0,0.1,0
		c0.1,0,0.1-0.1,0.1-0.1C43.9,22.2,43.7,22.2,43.7,22.2z"/>
	<path class="st0" d="M46.8,24.2L46.7,24c-0.5-0.4-0.7-0.6-0.7-0.9c0-0.4,0.3-0.6,0.6-0.6c0.5,0,0.6,0.2,0.7,0.3
		c0,0,0.1,0.2,0.1,0.3c0,0,0,0.1,0.1,0.1c0.1,0,0.1-0.2,0.1-0.2c0-0.3,0-0.5,0-0.6c0,0,0,0,0,0c0,0,0-0.1-0.1-0.1c0,0-0.1,0-0.2,0
		c-0.2,0-0.3-0.1-0.6-0.1c-0.8,0-1.3,0.5-1.3,1.1c0,0.4,0.1,0.8,0.8,1.3l0.3,0.2c0.5,0.4,0.6,0.6,0.6,1c0,0.3-0.3,0.7-0.7,0.7
		c-0.2,0-0.7-0.1-0.8-0.5c0-0.1,0-0.1,0-0.2c0-0.1-0.1-0.1-0.1-0.1c-0.1,0-0.1,0.1-0.1,0.2l0,0.1c0,0.1,0,0.3,0,0.6
		c0,0.2,0,0.2,0.1,0.3l0,0c0.2,0.1,0.5,0.2,0.8,0.2c0.4,0,0.7-0.1,0.9-0.3c0.4-0.3,0.5-0.7,0.5-1C47.7,25.1,47.6,24.7,46.8,24.2z"/>
	<path class="st0" d="M52.8,22.2C52.8,22.2,52.7,22.2,52.8,22.2c-0.1,0-0.1,0-0.2,0c-0.1,0-0.2,0-0.4,0H50c-0.1,0-0.3,0-0.5,0
		c-0.1,0-0.1,0-0.2,0c0,0-0.1,0-0.1,0c-0.1,0-0.1,0.1-0.1,0.2c0,0-0.1,0.5-0.1,0.6c0,0.1,0.1,0.1,0.1,0.1c0.1,0,0.1-0.1,0.1-0.1
		c0,0,0-0.1,0.1-0.2c0.1-0.1,0.2-0.1,0.5-0.1l0.8,0V25c0,0.5,0,1,0,1.2c0,0.2-0.1,0.2-0.1,0.2c0,0-0.1,0-0.2,0
		c-0.1,0-0.1,0.1-0.1,0.1c0,0,0,0.1,0.2,0.1c0.1,0,0.3,0,0.5,0c0.1,0,0.1,0,0.1,0c0,0,0,0,0.1,0c0.1,0,0.4,0,0.6,0
		c0.2,0,0.2-0.1,0.2-0.1c0-0.1,0-0.1-0.1-0.1c0,0-0.2,0-0.3,0c-0.1,0-0.1-0.1-0.2-0.2c0-0.2,0-0.7,0-1.2v-2.4l0.6,0
		c0.6,0,0.6,0.2,0.6,0.2l0,0.1c0,0.1,0,0.2,0.1,0.2c0.1,0,0.1,0,0.1-0.2c0,0,0-0.1,0-0.2c0-0.1,0-0.3,0-0.5
		C52.9,22.2,52.8,22.2,52.8,22.2z"/>
	<path class="st0" d="M55.9,26.5c0,0-0.2,0-0.3,0c-0.1,0-0.1-0.1-0.2-0.2c0-0.2,0-0.7,0-1.2v-1c0-0.9,0-1.1,0-1.2
		c0-0.2,0.1-0.2,0.2-0.3c0.1,0,0.1,0,0.1,0c0.1,0,0.1-0.1,0.1-0.1c0,0,0-0.1-0.2-0.1c-0.1,0-0.3,0-0.5,0c-0.1,0-0.1,0-0.1,0
		c0,0,0,0-0.1,0c-0.1,0-0.4,0-0.5,0c-0.2,0-0.2,0.1-0.2,0.1c0,0.1,0.1,0.1,0.1,0.1c0,0,0.1,0,0.2,0c0.1,0,0.1,0,0.1,0.2
		c0,0.2,0,0.3,0,1.2v1c0,0.5,0,1,0,1.2c0,0.2-0.1,0.2-0.1,0.2c0,0-0.1,0-0.2,0c-0.1,0-0.1,0.1-0.1,0.1c0,0,0,0.1,0.2,0.1
		c0.1,0,0.3,0,0.5,0c0,0,0.1,0,0.1,0c0,0,0,0,0.1,0c0.1,0,0.4,0,0.6,0c0.2,0,0.2-0.1,0.2-0.1C56,26.6,55.9,26.5,55.9,26.5z"/>
	<path class="st0" d="M61,22.2C60.9,22.2,60.9,22.2,61,22.2c-0.1,0-0.1,0-0.2,0c-0.1,0-0.2,0-0.4,0h-2.2c-0.1,0-0.3,0-0.5,0
		c-0.1,0-0.1,0-0.2,0c0,0-0.1,0-0.1,0c-0.1,0-0.1,0.1-0.1,0.2c0,0-0.1,0.5-0.1,0.6c0,0.1,0.1,0.1,0.1,0.1c0.1,0,0.1-0.1,0.1-0.1
		c0,0,0-0.1,0.1-0.2c0.1-0.1,0.2-0.1,0.5-0.1l0.8,0V25c0,0.5,0,1,0,1.2c0,0.2-0.1,0.2-0.1,0.2c0,0-0.1,0-0.2,0
		c-0.1,0-0.1,0.1-0.1,0.1c0,0,0,0.1,0.2,0.1c0.1,0,0.3,0,0.5,0c0.1,0,0.1,0,0.1,0c0,0,0,0,0.1,0c0.1,0,0.4,0,0.6,0
		c0.2,0,0.2-0.1,0.2-0.1c0-0.1,0-0.1-0.1-0.1c0,0-0.2,0-0.2,0c-0.1,0-0.1-0.1-0.2-0.2c0-0.2,0-0.7,0-1.2v-2.4l0.6,0
		c0.6,0,0.6,0.2,0.6,0.2l0,0.1c0,0.1,0,0.2,0.1,0.2c0,0,0.1,0,0.1-0.2c0,0,0-0.1,0-0.2c0-0.1,0-0.3,0-0.5C61.1,22.2,61,22.2,61,22.2
		z"/>
	<path class="st0" d="M66.7,22.2c-0.1,0-0.3,0-0.4,0c0,0-0.1,0-0.1,0c0,0,0,0-0.1,0c-0.1,0-0.3,0-0.5,0c-0.2,0-0.2,0.1-0.2,0.1
		c0,0.1,0.1,0.1,0.1,0.1c0.1,0,0.1,0,0.2,0c0.1,0,0.2,0.1,0.2,0.3c0,0.2,0,0.3,0,1.2v0.7c0,0.7-0.1,1.1-0.3,1.4
		c-0.2,0.2-0.5,0.4-0.8,0.4c-0.3,0-0.6,0-0.8-0.3c-0.2-0.2-0.4-0.5-0.4-1.4V24c0-0.9,0-1.1,0-1.2c0-0.2,0.1-0.2,0.2-0.3
		c0.1,0,0.1,0,0.1,0c0.1,0,0.1-0.1,0.1-0.1c0,0,0-0.1-0.2-0.1c-0.1,0-0.3,0-0.4,0c-0.1,0-0.1,0-0.1,0c0,0-0.1,0-0.1,0
		c-0.1,0-0.4,0-0.5,0c-0.2,0-0.2,0.1-0.2,0.1c0,0.1,0.1,0.1,0.1,0.1c0.1,0,0.1,0,0.2,0c0.1,0,0.2,0.1,0.2,0.3c0,0.2,0,0.3,0,1.2v0.8
		c0,0.7,0.2,1.2,0.5,1.6c0.4,0.4,1,0.4,1.2,0.4c0.3,0,0.8,0,1.2-0.4c0.5-0.4,0.6-1.2,0.6-1.8V24c0-0.9,0-1.1,0-1.2
		c0-0.2,0.1-0.2,0.2-0.3c0.1,0,0.1,0,0.1,0c0.1,0,0.1-0.1,0.1-0.1C66.8,22.3,66.8,22.2,66.7,22.2z"/>
	<path class="st0" d="M71.8,22.2C71.8,22.2,71.7,22.2,71.8,22.2c-0.1,0-0.1,0-0.2,0c-0.1,0-0.2,0-0.4,0H69c-0.1,0-0.3,0-0.5,0
		c-0.1,0-0.1,0-0.2,0c0,0-0.1,0-0.1,0c-0.1,0-0.1,0.1-0.1,0.2c0,0-0.1,0.5-0.1,0.6c0,0.1,0.1,0.1,0.1,0.1c0.1,0,0.1,0,0.1-0.1
		c0,0,0-0.1,0.1-0.2c0.1-0.1,0.2-0.1,0.5-0.1l0.8,0V25c0,0.5,0,1,0,1.2c0,0.2-0.1,0.2-0.1,0.2c0,0-0.1,0-0.2,0
		c-0.1,0-0.1,0.1-0.1,0.1c0,0,0,0.1,0.2,0.1c0.1,0,0.3,0,0.5,0c0.1,0,0.1,0,0.1,0c0,0,0,0,0.1,0c0.1,0,0.4,0,0.6,0
		c0.2,0,0.2-0.1,0.2-0.1c0-0.1,0-0.1-0.1-0.1c0,0-0.2,0-0.2,0c-0.1,0-0.1-0.1-0.2-0.2c0-0.2,0-0.7,0-1.2v-2.4l0.6,0
		c0.6,0,0.6,0.2,0.6,0.2l0,0.1c0,0.1,0,0.2,0.1,0.2c0.1,0,0.1,0,0.1-0.2c0,0,0-0.1,0-0.2c0-0.1,0-0.3,0-0.5
		C71.9,22.2,71.8,22.2,71.8,22.2z"/>
	<path class="st0" d="M75.9,25.8c-0.1,0-0.1,0.1-0.1,0.2c0,0.2-0.1,0.3-0.2,0.4c-0.1,0.1-0.4,0.1-0.5,0.1c-0.6,0-0.6-0.1-0.6-0.4
		c0-0.1,0-0.5,0-0.7l0-0.7c0.2,0,0.6,0,0.8,0c0.2,0,0.2,0.1,0.2,0.1c0,0.1,0,0.1,0,0.2c0,0.1,0.1,0.1,0.1,0.1c0.1,0,0.1-0.1,0.1-0.2
		c0,0,0-0.2,0-0.4c0-0.1,0-0.2,0-0.2c0,0,0-0.1,0-0.1c0-0.1-0.1-0.1-0.1-0.1c-0.1,0-0.1,0-0.1,0.1c0,0-0.1,0-0.2,0.1
		c-0.1,0-0.5,0-0.9,0l0-1.6c0.2,0,0.7,0,0.7,0c0.3,0,0.3,0.1,0.3,0.1c0,0.1,0,0.1,0,0.2c0,0.1,0.1,0.2,0.1,0.2c0,0,0.1,0,0.1-0.1
		c0,0,0-0.1,0-0.3c0-0.1,0-0.1,0-0.1c0-0.1,0-0.2,0-0.2c0,0,0-0.1,0-0.1c0-0.1-0.1-0.1-0.1-0.1c0,0-0.1,0-0.1,0c0,0-0.1,0-0.2,0
		c-0.1,0-0.9,0-1.3,0l-0.2,0c-0.1,0-0.3,0-0.4,0c-0.2,0-0.2,0.1-0.2,0.1c0,0.1,0.1,0.1,0.1,0.1c0.1,0,0.1,0,0.2,0
		c0.1,0,0.2,0.1,0.2,0.3c0,0.2,0,0.3,0,1.2v1c0,0.5,0,1,0,1.2c0,0.2-0.1,0.2-0.1,0.2c0,0-0.1,0-0.2,0c-0.1,0-0.1,0.1-0.1,0.1
		c0,0,0,0.1,0.2,0.1c0,0,0.1,0,0.1,0c0.1,0,0.1,0,0.2,0c0.1,0,0.2,0,0.2,0c0.1,0,0.2,0,0.4,0l0.1,0c0.2,0,0.5,0,0.9,0
		c0.2,0,0.3,0,0.4-0.2c0-0.1,0.1-0.5,0.1-0.6C76,25.9,76,25.8,75.9,25.8z"/>
</g>
<g>
	<path class="st0" d="M91.9,16.6c0,0-0.1,0-0.2,0c-0.1,0-0.3-0.1-0.6-0.4c-0.3-0.3-0.6-0.7-0.9-1.2L90,15c0.4-0.4,0.6-0.8,0.6-1.2
		c0-0.4-0.2-0.7-0.4-0.8c-0.3-0.2-0.7-0.2-1-0.2c-0.1,0-0.3,0-0.4,0c-0.1,0-0.2,0-0.2,0c0,0,0,0-0.1,0c-0.1,0-0.3,0-0.5,0
		c-0.1,0-0.2,0.1-0.2,0.1c0,0.1,0.1,0.1,0.1,0.1c0,0,0.1,0,0.2,0c0.1,0,0.2,0.1,0.2,0.2c0,0.2,0,0.3,0,1.1v0.9c0,0.5,0,0.9,0,1.1
		c0,0.2,0,0.2-0.1,0.2c-0.1,0-0.1,0-0.1,0c-0.1,0-0.1,0.1-0.1,0.1c0,0,0,0.1,0.2,0.1c0.1,0,0.4,0,0.5,0l0,0c0,0,0,0,0.1,0
		c0.1,0,0.4,0,0.6,0c0.2,0,0.2-0.1,0.2-0.1c0-0.1,0-0.1-0.1-0.1c0,0-0.2,0-0.2,0c-0.1,0-0.1-0.1-0.1-0.2c0-0.2,0-0.6,0-1.1v-0.1
		l0.6,0c0,0.1,0.1,0.2,0.2,0.3c0.1,0.2,0.3,0.3,0.4,0.5l0.1,0.1c0.3,0.4,0.4,0.6,0.7,0.7c0.2,0.1,0.3,0.1,0.6,0.1h0.4
		c0.1,0,0.2,0,0.2-0.1C92,16.7,91.9,16.6,91.9,16.6z M88.9,14.8v-1.7c0.1,0,0.2,0,0.3,0c0.5,0,0.8,0.4,0.8,1c0,0.3-0.1,0.6-0.3,0.7
		c-0.1,0.1-0.3,0.1-0.3,0.1C89.2,14.9,89,14.8,88.9,14.8L88.9,14.8L88.9,14.8z"/>
	<path class="st0" d="M94.3,12.6c-1.6,0-2.2,1.3-2.2,2.1c0,1,0.7,2.2,2.1,2.2c1.3,0,2.2-0.9,2.2-2.2C96.5,13.5,95.6,12.6,94.3,12.6z
		 M94.4,16.6c-0.9,0-1.6-0.8-1.6-1.9c0-1,0.5-1.7,1.5-1.7c0.7,0,1.5,0.6,1.5,1.9C95.8,16.5,94.7,16.6,94.4,16.6z"/>
	<path class="st0" d="M97.7,16.8L97.7,16.8c0.2,0.1,0.5,0.2,0.7,0.2c0.3,0,0.6-0.1,0.8-0.2c0.4-0.3,0.5-0.7,0.5-0.9
		c0-0.5-0.2-0.8-0.8-1.3l-0.1-0.1c-0.5-0.4-0.6-0.6-0.6-0.8c0-0.3,0.2-0.5,0.6-0.5c0.4,0,0.6,0.2,0.6,0.2c0,0,0.1,0.2,0.1,0.2
		c0,0,0,0.1,0.1,0.1c0.1,0,0.1-0.1,0.1-0.2c0-0.3,0-0.4,0-0.5c0,0,0,0,0,0c0,0,0-0.1-0.1-0.1c0,0-0.1,0-0.2,0
		c-0.2,0-0.3-0.1-0.5-0.1c-0.7,0-1.2,0.4-1.2,1c0,0.4,0.1,0.7,0.7,1.2l0.2,0.2c0.5,0.4,0.6,0.6,0.6,0.9c0,0.3-0.2,0.6-0.7,0.6
		c-0.2,0-0.6,0-0.7-0.5c0-0.1,0-0.1,0-0.2c0-0.1-0.1-0.1-0.1-0.1c-0.1,0-0.1,0.1-0.1,0.2l0,0.1c0,0.1,0,0.3,0,0.5
		C97.5,16.7,97.5,16.7,97.7,16.8z"/>
	<path class="st0" d="M102.6,16.7c0.4-0.3,0.5-0.7,0.5-0.9c0-0.5-0.2-0.8-0.8-1.3l-0.1-0.1c-0.5-0.4-0.6-0.6-0.6-0.8
		c0-0.3,0.2-0.5,0.6-0.5c0.4,0,0.6,0.2,0.6,0.2c0,0,0.1,0.2,0.1,0.2c0,0,0,0.1,0.1,0.1c0.1,0,0.1-0.1,0.1-0.2c0-0.3,0-0.4,0-0.5
		c0,0,0,0,0,0c0,0,0-0.1-0.1-0.1c0,0-0.1,0-0.2,0c-0.2,0-0.3-0.1-0.5-0.1c-0.7,0-1.2,0.4-1.2,1c0,0.4,0.1,0.7,0.7,1.2l0.2,0.2
		c0.5,0.4,0.6,0.6,0.6,0.9c0,0.3-0.2,0.6-0.7,0.6c-0.2,0-0.6,0-0.7-0.5c0-0.1,0-0.1,0-0.2c0-0.1-0.1-0.1-0.1-0.1
		c-0.1,0-0.1,0.1-0.1,0.2l0,0.1c0,0.1,0,0.3,0,0.5c0,0.1,0,0.2,0.1,0.3l0,0c0.2,0.1,0.5,0.2,0.7,0.2
		C102.1,16.9,102.4,16.9,102.6,16.7z"/>
	<path class="st0" d="M91.3,25.2c-0.1,0-0.1,0.1-0.1,0.1c0,0.1-0.1,0.3-0.2,0.4C90.8,26,90.5,26,90.2,26c-1.1,0-1.8-0.9-1.8-1.8
		c0-0.4,0.1-0.9,0.4-1.3c0.3-0.2,0.6-0.4,1.2-0.4c0.5,0,0.8,0.1,1,0.3c0.1,0.1,0.2,0.3,0.2,0.5c0,0.1,0,0.2,0.1,0.2
		c0.1,0,0.1-0.1,0.1-0.2c0,0,0-0.1,0-0.2c0-0.1,0-0.3,0-0.4c0-0.1,0-0.2,0-0.2c0,0,0-0.1,0-0.1c0,0,0-0.1-0.1-0.1
		c-0.2,0-0.3,0-0.5-0.1l0,0c-0.3-0.1-0.7-0.1-0.8-0.1c-0.7,0-1.3,0.2-1.7,0.6c-0.5,0.5-0.6,1.1-0.6,1.5c0,0.7,0.2,1.2,0.7,1.6
		c0.4,0.4,1,0.6,1.8,0.6c0.3,0,0.7,0,1-0.1c0.1-0.1,0.1-0.1,0.2-0.2c0.1-0.2,0.1-0.6,0.1-0.7C91.4,25.3,91.4,25.2,91.3,25.2z"/>
	<path class="st0" d="M94.9,25.5c-0.1,0-0.1,0.1-0.1,0.1c0,0.2-0.1,0.3-0.2,0.3C94.5,26,94.3,26,94.1,26c-0.5,0-0.5-0.1-0.5-0.4
		c0-0.1,0-0.4,0-0.7l0-0.6c0.2,0,0.6,0,0.7,0c0.2,0,0.2,0.1,0.2,0.1c0,0.1,0,0.1,0,0.2c0,0.1,0.1,0.1,0.1,0.1c0.1,0,0.1-0.1,0.1-0.2
		c0,0,0-0.2,0-0.3c0-0.1,0-0.2,0-0.2c0,0,0-0.1,0-0.1c0-0.1-0.1-0.1-0.1-0.1c-0.1,0-0.1,0-0.1,0.1c0,0-0.1,0-0.2,0
		c-0.1,0-0.4,0-0.8,0l0-1.4c0.2,0,0.6,0,0.7,0c0.3,0,0.3,0.1,0.3,0.1c0,0,0,0.1,0,0.2c0,0.1,0.1,0.2,0.1,0.2c0,0,0.1,0,0.1-0.1
		c0,0,0-0.2,0-0.3c0,0,0-0.1,0-0.1c0-0.1,0-0.1,0-0.2c0,0,0-0.1,0-0.1c0-0.1-0.1-0.1-0.1-0.1c0,0-0.1,0-0.1,0c0,0-0.1,0-0.2,0
		c-0.1,0-0.8,0-1.2,0l-0.2,0c-0.1,0-0.3,0-0.4,0c-0.1,0-0.2,0.1-0.2,0.1c0,0.1,0.1,0.1,0.1,0.1c0,0,0.1,0,0.2,0
		c0.1,0,0.2,0.1,0.2,0.2c0,0.2,0,0.3,0,1.1v0.9c0,0.5,0,0.9,0,1.1c0,0.2,0,0.2-0.1,0.2c-0.1,0-0.1,0-0.1,0c-0.1,0-0.1,0.1-0.1,0.1
		c0,0,0,0.1,0.2,0.1c0,0,0.1,0,0.1,0c0.1,0,0.1,0,0.2,0c0.1,0,0.2,0,0.2,0c0.1,0,0.2,0,0.4,0l0.1,0c0.2,0,0.5,0,0.8,0
		c0.2,0,0.3,0,0.4-0.2c0-0.1,0.1-0.5,0.1-0.5C95,25.5,95,25.5,94.9,25.5z"/>
	<path class="st0" d="M100.3,22.2c-0.1,0-0.3,0-0.4,0c-0.1,0-0.1,0-0.2,0c-0.1,0-0.3,0-0.4,0c0,0-0.2,0-0.2,0.1c0,0.1,0,0.1,0.1,0.1
		c0,0,0.1,0,0.2,0c0.1,0,0.1,0.1,0.1,0.4l0.1,2.5c-0.1-0.1-0.2-0.2-0.3-0.4c-0.2-0.3-0.5-0.6-0.8-0.9c-0.8-0.9-1.6-1.7-1.7-1.8
		c0,0,0,0,0,0c-0.1-0.1-0.1-0.1-0.2-0.1c-0.1,0-0.1,0.2-0.1,0.3l0,3c0,0.4,0,0.6-0.1,0.6c-0.1,0-0.2,0-0.2,0c-0.1,0-0.1,0.1-0.1,0.1
		c0,0.1,0,0.1,0.2,0.1c0.2,0,0.3,0,0.4,0c0.1,0,0.1,0,0.2,0c0.1,0,0.3,0,0.5,0c0.1,0,0.2-0.1,0.2-0.1c0-0.1,0-0.1-0.1-0.1
		c0,0-0.2,0-0.2,0C97,26.1,97,26,97,25.5l-0.1-2.3c0.3,0.3,0.7,0.8,1.2,1.3c0.5,0.6,1.3,1.4,1.4,1.4c0.3,0.3,0.4,0.4,0.4,0.4
		c0.1,0,0.1-0.1,0.1-0.5l0-3.1c0-0.3,0-0.4,0.1-0.4c0.1,0,0.1,0,0.1,0c0.1,0,0.1-0.1,0.1-0.1C100.5,22.2,100.3,22.2,100.3,22.2z"/>
	<path class="st0" d="M104.8,22.2C104.8,22.2,104.7,22.2,104.8,22.2c-0.1,0-0.1,0-0.2,0c-0.1,0-0.2,0-0.4,0h-2c-0.1,0-0.3,0-0.4,0
		c-0.1,0-0.1,0-0.2,0c0,0-0.1,0-0.1,0c-0.1,0-0.1,0.1-0.1,0.2c0,0-0.1,0.5-0.1,0.6c0,0.1,0.1,0.1,0.1,0.1c0.1,0,0.1,0,0.1-0.1
		c0,0,0-0.1,0.1-0.1c0.1-0.1,0.1-0.1,0.5-0.1l0.7,0v2.1c0,0.5,0,0.9,0,1.1c0,0.2,0,0.2-0.1,0.2c-0.1,0-0.1,0-0.1,0
		c-0.1,0-0.1,0.1-0.1,0.1c0,0,0,0.1,0.2,0.1c0.1,0,0.3,0,0.4,0c0,0,0.1,0,0.1,0l0.1,0c0.1,0,0.4,0,0.6,0c0.2,0,0.2-0.1,0.2-0.1
		c0-0.1,0-0.1-0.1-0.1c0,0-0.2,0-0.2,0c-0.1,0-0.1-0.1-0.1-0.2c0-0.2,0-0.6,0-1.1v-2.1l0.6,0c0.5,0,0.6,0.2,0.6,0.2l0,0.1
		c0,0,0,0.2,0.1,0.2c0,0,0.1,0,0.1-0.2c0,0,0-0.1,0-0.2c0-0.1,0-0.3,0-0.4C104.9,22.2,104.8,22.2,104.8,22.2z"/>
	<path class="st0" d="M108.3,25.5c-0.1,0-0.1,0.1-0.1,0.1c0,0.2-0.1,0.3-0.2,0.3c-0.1,0.1-0.4,0.1-0.5,0.1c-0.5,0-0.5-0.1-0.5-0.4
		c0-0.1,0-0.4,0-0.7l0-0.6c0.2,0,0.6,0,0.7,0c0.2,0,0.2,0.1,0.2,0.1c0,0.1,0,0.1,0,0.1c0,0.1,0.1,0.1,0.1,0.1c0.1,0,0.1-0.1,0.1-0.2
		c0,0,0-0.2,0-0.3c0-0.1,0-0.2,0-0.2c0,0,0-0.1,0-0.1c0-0.1-0.1-0.1-0.1-0.1c-0.1,0-0.1,0-0.1,0.1c0,0-0.1,0-0.2,0
		c-0.1,0-0.4,0-0.8,0l0-1.4c0.2,0,0.6,0,0.7,0c0.3,0,0.3,0.1,0.3,0.1c0,0,0,0.1,0,0.2c0,0.1,0.1,0.2,0.1,0.2c0,0,0.1,0,0.1-0.1
		c0,0,0-0.2,0-0.3c0,0,0-0.1,0-0.1c0-0.1,0-0.1,0-0.2c0,0,0-0.1,0-0.1c0-0.1-0.1-0.1-0.1-0.1c0,0-0.1,0-0.1,0c0,0-0.1,0-0.2,0
		c-0.1,0-0.8,0-1.2,0l-0.2,0c-0.1,0-0.3,0-0.4,0c-0.1,0-0.2,0.1-0.2,0.1c0,0.1,0.1,0.1,0.1,0.1c0,0,0.1,0,0.2,0
		c0.1,0,0.2,0.1,0.2,0.2c0,0.2,0,0.3,0,1.1v0.9c0,0.5,0,0.9,0,1.1c0,0.2,0,0.2-0.1,0.2c-0.1,0-0.1,0-0.1,0c-0.1,0-0.1,0.1-0.1,0.1
		c0,0,0,0.1,0.2,0.1c0,0,0.1,0,0.1,0c0.1,0,0.1,0,0.2,0c0.1,0,0.2,0,0.2,0c0.1,0,0.2,0,0.4,0l0.1,0c0.2,0,0.5,0,0.8,0
		c0.2,0,0.3,0,0.4-0.2c0-0.1,0.1-0.5,0.1-0.5C108.4,25.5,108.3,25.5,108.3,25.5z"/>
	<path class="st0" d="M113.5,26.1c0,0-0.1,0-0.2,0c-0.1,0-0.3-0.1-0.6-0.4c-0.3-0.3-0.6-0.7-0.9-1.2l-0.1-0.1
		c0.4-0.4,0.6-0.8,0.6-1.2c0-0.4-0.2-0.7-0.4-0.8c-0.3-0.2-0.7-0.2-1-0.2c-0.1,0-0.3,0-0.4,0c-0.1,0-0.2,0-0.2,0c0,0,0,0-0.1,0
		c-0.1,0-0.3,0-0.5,0c-0.1,0-0.2,0.1-0.2,0.1c0,0.1,0.1,0.1,0.1,0.1c0,0,0.1,0,0.2,0c0.1,0,0.2,0.1,0.2,0.2c0,0.2,0,0.3,0,1.1v0.9
		c0,0.5,0,0.9,0,1.1c0,0.2,0,0.2-0.1,0.2c-0.1,0-0.1,0-0.1,0c-0.1,0-0.1,0.1-0.1,0.1c0,0,0,0.1,0.2,0.1c0.1,0,0.4,0,0.5,0l0,0
		c0,0,0,0,0.1,0c0.1,0,0.4,0,0.6,0c0.2,0,0.2-0.1,0.2-0.1c0-0.1,0-0.1-0.1-0.1c0,0-0.2,0-0.2,0c-0.1,0-0.1-0.1-0.1-0.2
		c0-0.2,0-0.6,0-1.1v-0.1l0.6,0c0,0.1,0.1,0.2,0.2,0.3c0.1,0.2,0.3,0.3,0.4,0.5l0.1,0.1c0.3,0.4,0.4,0.6,0.7,0.7
		c0.2,0.1,0.3,0.1,0.6,0.1h0.4c0.1,0,0.2,0,0.2-0.1C113.6,26.2,113.6,26.1,113.5,26.1z M110.5,24.3v-1.7c0.1,0,0.2,0,0.3,0
		c0.5,0,0.8,0.4,0.8,1c0,0.3-0.1,0.6-0.3,0.7c-0.1,0.1-0.3,0.1-0.3,0.1C110.8,24.3,110.6,24.3,110.5,24.3L110.5,24.3L110.5,24.3z"/>
</g>
<path class="st0" d="M83.6,12.5c-0.1,0-0.2,0.1-0.2,0.2v14.1c0,0.1,0.1,0.2,0.2,0.2s0.2-0.1,0.2-0.2V12.7
	C83.7,12.6,83.6,12.5,83.6,12.5z"/>
<polygon class="st0" points="8.8,3.1 7.3,4.7 8.7,6.1 10.3,4.6 8.8,3.1 "/>
<polygon class="st0" points="19.2,16.5 24.7,22.1 26.3,20.6 20.7,15 19.2,16.5 "/>
<polygon class="st0" points="7.1,8.5 8.6,10.1 14.8,3.9 17,6.1 18.5,4.6 14.8,0.8 "/>
<polygon class="st0" points="23.3,8.5 24.8,10.1 26.3,8.6 24.7,7.1 23.3,8.5 "/>
<rect x="6.9" y="21.4" transform="matrix(0.7071 -0.7071 0.7071 0.7071 -12.7672 14.2617)" class="st0" width="7.9" height="2.2"/>
<rect x="14.7" y="13.4" transform="matrix(0.7071 -0.7071 0.7071 0.7071 -4.7569 17.5797)" class="st0" width="8.2" height="2.2"/>
<polygon class="st0" points="19.3,8.4 25.5,14.6 23.3,16.8 24.8,18.4 28.6,14.6 20.9,6.9 19.3,8.4 "/>
<polygon class="st0" points="3.3,20.6 4.8,22.1 6.3,20.7 4.7,19.1 3.3,20.6 "/>
<rect x="14.8" y="5.6" transform="matrix(0.7071 -0.7071 0.7071 0.7071 0.7709 15.2081)" class="st0" width="7.9" height="2.2"/>
<polygon class="st0" points="1,14.6 8.7,22.3 10.3,20.8 4.1,14.6 6.3,12.4 4.7,10.9 1,14.6 "/>
<polygon class="st0" points="11,8.4 16.8,14.2 18.4,12.7 12.6,6.9 11,8.4 "/>
<rect x="19.7" y="23.6" transform="matrix(0.7071 -0.7071 0.7071 0.7071 -11.3062 21.9228)" class="st0" width="2.2" height="2.1"/>
<rect x="5.8" y="6.7" transform="matrix(0.7071 -0.7071 0.7071 0.7071 -5.5251 7.9661)" class="st0" width="2.2" height="7.9"/>
<rect x="13.8" y="14.6" transform="matrix(0.7071 -0.7071 0.7071 0.7071 -8.8437 15.9778)" class="st0" width="2.2" height="8.2"/>
<polygon class="st0" points="14.8,25.3 12.6,23.1 11,24.7 14.8,28.4 22.5,20.7 21,19.1 "/>
<rect x="6.6" y="13.6" transform="matrix(0.7071 -0.7071 0.7071 0.7071 -7.2427 11.8888)" class="st0" width="8.2" height="2.2"/>
<g>
	<path class="st0" d="M3.2,39.4H15c6.5,0,11.4,3.9,11.4,11.7c0,7.5-4.4,11.6-11.9,11.6h-4.2v15.9h-7V39.4z M10.2,57.1h3.4
		c3.9,0,5.6-2,5.6-6.1c0-3.9-2-5.9-5.2-5.9h-3.8V57.1z"/>
	<path class="st0" d="M36.4,61.9v16.8h-7V39.4h12c7.1,0,11.2,3.8,11.2,10.7c0,5.7-3.1,8.1-5.1,8.9c3,1.4,4.5,4,4.5,9.8v1.6
		c0,4.5,0.2,6.1,0.5,8.2h-6.8c-0.6-1.8-0.6-4.9-0.6-8.3V69c0-5.3-1.2-7.1-5.7-7.1H36.4z M36.4,56.3h3.3c4.2,0,5.9-1.8,5.9-5.7
		c0-3.4-1.6-5.4-5.2-5.4h-4V56.3z"/>
	<path class="st0" d="M63.9,39.4v39.2h-7V39.4H63.9z"/>
	<path class="st0" d="M66.8,73.8l15.3-28.2H68v-6.1h21.7v5.6L75,72.6h15.5l-0.9,6.1H66.8V73.8z"/>
	<path class="st0" d="M112.9,61.2h-12.6v11.4h14.1l-0.9,6H93.3V39.4h20.1v6.1h-13.2v9.6h12.6V61.2z"/>
</g>
<g>
	<path class="st0" d="M40.6,109.2c-0.1,1.9-1,9.5-8.9,9.5c-8.7,0-9.4-9.2-9.4-17c0-9.5,2.5-16.6,9.8-16.6c7.9,0,8.3,7.4,8.4,9.4
		h-3.6c-0.1-1.1-0.3-6.2-4.9-6.2c-5.1,0-6,7-6,13.4c0,6.9,0.8,13.9,5.7,13.9c4.4,0,5-4.7,5.1-6.4H40.6z"/>
	<path class="st0" d="M47.5,85.5v32.7h-3.6V85.5H47.5z"/>
	<path class="st0" d="M57.3,88.7h-7.3v-3.2h18.1v3.2h-7.3v29.5h-3.6V88.7z"/>
	<path class="st0" d="M74.4,85.5v32.7h-3.6V85.5H74.4z"/>
	<path class="st0" d="M93.9,102.5H83V115h12.1l-0.5,3.2H79.4V85.5h15v3.2H83v10.6h10.9V102.5z"/>
	<path class="st0" d="M100.2,109.6c0.3,3.3,1.9,6,5.5,6c3.4,0,5.1-1.9,5.1-5.6c0-3.4-1.4-5.3-5.9-7.4c-5.1-2.5-7.4-4.7-7.4-9.4
		c0-4.5,2.9-8.1,8.2-8.1c6.3,0,8,4.5,8.1,8.3h-3.5c-0.2-1.5-0.7-5.3-4.7-5.3c-3.1,0-4.5,2.2-4.5,4.8c0,3.1,1.4,4.6,5.5,6.5
		c5.7,2.7,7.8,5.5,7.8,10.3c0,5.1-2.9,8.9-8.9,8.9c-6.5,0-8.7-4.3-8.9-9H100.2z"/>
</g>
<g>
	<g>
		<path class="st0" d="M3.9,118.5V110h1.7v6.6h4v-6.2h1.6v6.2h5.7v1.9H3.9z"/>
		<path class="st0" d="M10.3,96.8c3.6,0,6.8,2,6.8,6.2c0,3.9-3,6-6.7,6c-3.8,0-6.7-2.2-6.7-6.2C3.7,99.1,6.4,96.8,10.3,96.8z
			 M10.4,107c2.8,0,5.1-1.4,5.1-4.1c0-2.9-2.4-4.1-5.1-4.1c-2.8,0-5.1,1.3-5.1,4.1C5.3,105.7,7.6,107,10.4,107z"/>
		<path class="st0" d="M11.3,92.8h5.7v1.9H3.9v-5.2c0-2.7,1.5-4.2,3.5-4.2c1.7,0,2.7,1,3.1,2.2c0.3-1,1.1-1.9,3.3-1.9h0.6
			c0.9,0,2,0,2.6-0.2v1.9c-0.6,0.2-1.6,0.2-2.8,0.2h-0.2c-1.8,0-2.6,0.5-2.6,2.8V92.8z M9.7,92.8V90c0-1.9-0.7-2.7-2.1-2.7
			c-1.3,0-2.1,0.9-2.1,2.6v2.9H9.7z"/>
	</g>
</g>
</svg>
