<?xml version="1.0" encoding="utf-8"?>
<!-- Generator: Adobe Illustrator 24.0.1, SVG Export Plug-In . SVG Version: 6.00 Build 0)  -->
<svg version="1.1" id="Layer_1" xmlns="http://www.w3.org/2000/svg" xmlns:xlink="http://www.w3.org/1999/xlink" x="0px" y="0px"
	 viewBox="0 0 171.4 79.3" style="enable-background:new 0 0 171.4 79.3;" xml:space="preserve">
<style type="text/css">
	.st0{fill:#FFFFFF;}
</style>
<g>
	<path class="st0" d="M54.1,10.1c0.2,0.6,0.2,0.8,0.4,0.8c0.2,0,0.3-0.2,0.4-0.5c0.2-0.6,1-2.8,1.5-4l0.2-0.5l1.6,4.6
		c0.1,0.3,0.2,0.5,0.4,0.5c0.2,0,0.2-0.1,0.5-0.8c0.2-0.5,0.5-1.4,0.8-2.3c0.3-1,0.6-1.9,0.8-2.5c0.2-0.5,0.3-0.8,0.5-0.9
		c0.1,0,0.2,0,0.3,0c0.1,0,0.2-0.1,0.2-0.2c0,0,0-0.2-0.2-0.2c-0.2,0-0.4,0-0.6,0c-0.1,0-0.1,0-0.1,0c0,0-0.1,0-0.1,0
		c-0.2,0-0.4,0-0.8,0c-0.2,0-0.3,0.1-0.3,0.2c0,0.1,0.1,0.2,0.2,0.2c0.4,0,0.4,0.1,0.4,0.1c0,0.1,0,0.2-0.1,0.5
		c-0.2,0.7-0.6,2-0.9,3.1c-0.1,0.4-0.2,0.8-0.3,1.1l-1.6-4.6C57.1,4.1,57,4,56.9,4c-0.2,0-0.2,0.1-0.3,0.5l-1.7,4.6
		c-0.3-1.1-1-3.4-1.1-3.9L53.7,5c-0.1-0.2-0.1-0.5-0.1-0.5c0-0.1,0-0.1,0-0.1c0.1,0,0.2,0,0.3,0c0.2,0,0.2-0.1,0.2-0.2
		c0-0.1,0-0.2-0.3-0.2c-0.3,0-0.6,0-0.8,0C53,4,53,4,52.9,4c0,0-0.1,0-0.2,0c-0.2,0-0.5,0-0.8,0c-0.2,0-0.3,0.1-0.3,0.2
		c0,0.1,0.1,0.2,0.2,0.2c0.1,0,0.3,0,0.3,0c0.2,0.1,0.3,0.1,0.4,0.6L54.1,10.1z"/>
	<path class="st0" d="M69.9,7.2c0-2-1.4-3.4-3.5-3.4c-2.6,0-3.6,2.2-3.6,3.5c0,1.7,1.1,3.5,3.5,3.5C68.4,10.9,69.9,9.4,69.9,7.2z
		 M66.5,10.3c-1.6,0-2.7-1.3-2.7-3.2c0-1.7,0.9-2.7,2.4-2.7c1.2,0,2.5,1,2.5,3.1C68.8,10.2,66.9,10.3,66.5,10.3z"/>
	<path class="st0" d="M73.2,10.8c0,0,0,0,0.1,0c0.2,0,0.6,0,1,0c0.2,0,0.3-0.1,0.3-0.2c0-0.1-0.1-0.2-0.2-0.2c-0.1,0-0.3,0-0.4,0
		c-0.2,0-0.2-0.1-0.2-0.4c0-0.4,0-1.1,0-1.9V8l1,0c0.1,0.1,0.2,0.3,0.3,0.4c0.2,0.3,0.4,0.6,0.6,0.8l0.1,0.1c0.4,0.6,0.7,1,1.1,1.2
		c0.3,0.1,0.5,0.2,1,0.2h0.6c0.1,0,0.3,0,0.3-0.2c0-0.1-0.1-0.2-0.2-0.2c0,0-0.2,0-0.3,0c-0.2,0-0.6-0.1-1-0.6
		c-0.4-0.5-1-1.1-1.6-1.9l-0.2-0.2c0.7-0.7,1-1.3,1-2c0-0.6-0.4-1.1-0.7-1.3C75.4,4,74.8,4,74.2,4c-0.2,0-0.5,0-0.7,0
		c-0.1,0-0.3,0-0.3,0c0,0-0.1,0-0.1,0c-0.2,0-0.6,0-0.9,0C72,4,72,4.1,72,4.2c0,0.1,0.1,0.2,0.2,0.2c0.1,0,0.2,0,0.3,0
		c0.2,0,0.3,0.1,0.3,0.4c0,0.3,0,0.5,0,1.9v1.5c0,0.8,0,1.5,0,1.9c0,0.3-0.1,0.4-0.2,0.4c-0.1,0-0.2,0-0.2,0c-0.1,0-0.2,0.1-0.2,0.2
		c0,0.1,0,0.2,0.3,0.2C72.6,10.8,73,10.8,73.2,10.8L73.2,10.8z M73.7,7.4l0-2.8c0.1,0,0.3,0,0.5,0c0.9,0,1.4,0.6,1.4,1.6
		c0,0.6-0.2,1-0.5,1.2c-0.2,0.1-0.4,0.1-0.6,0.1C74.1,7.5,73.8,7.4,73.7,7.4h-0.1H73.7z"/>
	<path class="st0" d="M80.5,4.3c0.1,0,0.2,0,0.3,0c0.2,0,0.3,0.1,0.3,0.4c0,0.3,0,0.5,0,1.9v1.5c0,0.8,0,1.5,0,1.9
		c0,0.3-0.1,0.4-0.2,0.4c-0.1,0-0.2,0-0.2,0c-0.1,0-0.2,0.1-0.2,0.2c0,0.1,0,0.2,0.3,0.2c0.1,0,0.3,0,0.5,0c0.1,0,0.2,0,0.3,0l0.1,0
		c0.2,0,0.5,0,0.9,0l0.3,0c0.3,0,0.7,0,1.2,0c0.5,0,0.6,0,0.7-0.3c0.1-0.3,0.1-0.8,0.1-0.9c0-0.1,0-0.3-0.2-0.3
		c-0.1,0-0.2,0-0.2,0.2c0,0.2-0.1,0.4-0.2,0.5c-0.2,0.2-0.5,0.2-1,0.2c-0.7,0-0.9-0.1-1-0.2C82.1,9.9,82,9,82,8.2V6.6
		c0-1.4,0-1.6,0-1.9c0-0.3,0.1-0.4,0.2-0.4c0.1,0,0.2,0,0.3,0c0.1,0,0.2-0.1,0.2-0.2c0-0.1,0-0.2-0.3-0.2c-0.2,0-0.6,0-0.8,0
		c-0.1,0-0.1,0-0.2,0c0,0-0.1,0-0.1,0c-0.2,0-0.6,0-0.9,0c-0.2,0-0.3,0.1-0.3,0.2C80.3,4.3,80.4,4.3,80.5,4.3z"/>
	<path class="st0" d="M86.9,4.3c0.1,0,0.2,0,0.3,0c0.2,0,0.3,0.1,0.3,0.4c0,0.3,0,0.5,0,1.9v1.5c0,0.8,0,1.5,0,1.9
		c0,0.3-0.1,0.4-0.2,0.4c-0.1,0-0.2,0-0.2,0c-0.1,0-0.2,0.1-0.2,0.2c0,0.1,0,0.2,0.3,0.2c0.1,0,0.1,0,0.2,0c0.1,0,0.2,0,0.3,0
		c0.2,0,0.3,0,0.3,0c0,0,0.1,0,0.2,0c0.1,0,0.3,0,0.5,0c0.5,0,0.9,0.1,1.2,0.1c1.1,0,2.1-0.4,2.7-1c0.6-0.7,1-1.6,1-2.5
		c0-1.1-0.5-1.9-0.9-2.3c-1-1-2.5-1-3.4-1l-0.2,0c-0.4,0-0.7,0-1,0c-0.1,0-0.2,0-0.2,0c0,0-0.1,0-0.1,0c-0.2,0-0.6,0-0.9,0
		c-0.2,0-0.3,0.1-0.3,0.2C86.7,4.3,86.7,4.3,86.9,4.3z M89.9,10.3c-1,0-1.3-0.2-1.4-0.3c0,0-0.1-0.1-0.1-0.6c0-0.2,0-1,0-1.9V6.5
		c0-0.7,0-1.6,0-1.9c0,0,0,0,0,0l0,0c0,0,0.3,0,0.5,0c1.1,0,2,0.2,2.8,0.9c0.3,0.3,0.8,1,0.8,2.1c0,0.8-0.3,1.6-0.7,2
		C91.4,10,90.6,10.3,89.9,10.3z"/>
	<path class="st0" d="M58.4,25H59c0.1,0,0.3,0,0.3-0.2c0-0.1-0.1-0.2-0.2-0.2c0,0-0.2,0-0.3,0c-0.2,0-0.6-0.1-1-0.6
		c-0.4-0.5-1-1.1-1.6-1.9l-0.2-0.2c0.7-0.7,1-1.3,1-2c0-0.6-0.4-1.1-0.7-1.3c-0.5-0.4-1.1-0.4-1.7-0.4c-0.2,0-0.5,0-0.7,0
		c-0.1,0-0.3,0-0.3,0c0,0-0.1,0-0.1,0c-0.2,0-0.6,0-0.9,0c-0.2,0-0.3,0.1-0.3,0.2c0,0.1,0.1,0.2,0.2,0.2c0.1,0,0.2,0,0.3,0
		c0.2,0,0.3,0.1,0.3,0.4c0,0.3,0,0.5,0,1.9v1.5c0,0.8,0,1.5,0,1.9c0,0.3-0.1,0.4-0.2,0.4c-0.1,0-0.2,0-0.2,0c-0.1,0-0.2,0.1-0.2,0.2
		c0,0.1,0,0.2,0.3,0.2c0.2,0,0.7,0,0.8,0l0,0c0,0,0,0,0.1,0c0.2,0,0.6,0,1,0c0.2,0,0.3-0.1,0.3-0.2c0-0.1-0.1-0.2-0.2-0.2
		c-0.1,0-0.3,0-0.4,0c-0.2,0-0.2-0.1-0.2-0.4c0-0.4,0-1.1,0-1.9v-0.2l1,0c0.1,0.1,0.2,0.3,0.3,0.4c0.2,0.3,0.4,0.6,0.6,0.8l0.1,0.1
		c0.4,0.6,0.7,1,1.1,1.2C57.7,25,57.9,25,58.4,25z M54.2,21.6l0-2.8c0.1,0,0.3,0,0.5,0c0.9,0,1.4,0.6,1.4,1.6c0,0.6-0.2,1-0.5,1.2
		c-0.2,0.1-0.4,0.1-0.6,0.1C54.7,21.7,54.3,21.6,54.2,21.6h-0.1H54.2z"/>
	<path class="st0" d="M64.8,23.6c-0.2,0-0.2,0.2-0.2,0.2c-0.1,0.4-0.2,0.5-0.3,0.5c-0.2,0.1-0.6,0.1-0.8,0.1c-0.8,0-0.9-0.1-0.9-0.6
		c0-0.1,0-0.7,0-1.1l0-1.1c0.2,0,1,0,1.2,0c0.3,0,0.3,0.1,0.3,0.2c0,0.1,0,0.2,0,0.3c0,0.1,0.1,0.2,0.2,0.2c0.2,0,0.2-0.2,0.2-0.3
		c0-0.1,0-0.4,0-0.5c0-0.2,0-0.3,0.1-0.4c0-0.1,0-0.1,0-0.1c0-0.1-0.1-0.2-0.2-0.2c-0.1,0-0.1,0.1-0.2,0.2c0,0.1-0.1,0.1-0.3,0.1
		c-0.1,0-0.7,0-1.3,0l0-2.3c0.3,0,1,0,1.1,0c0.4,0,0.5,0.1,0.5,0.2c0,0.1,0,0.2,0,0.3c0,0.2,0.2,0.2,0.2,0.2c0.1,0,0.1,0,0.2-0.2
		c0-0.1,0-0.2,0-0.4c0-0.1,0-0.1,0-0.2c0-0.1,0-0.2,0-0.3c0-0.1,0-0.1,0-0.1c0-0.2-0.1-0.2-0.2-0.2c-0.1,0-0.1,0-0.2,0
		c-0.1,0-0.2,0-0.4,0c-0.2,0-1.3,0-2,0l-0.4,0c-0.2,0-0.4,0-0.6,0c-0.2,0-0.3,0.1-0.3,0.2c0,0.1,0.1,0.2,0.2,0.2c0.1,0,0.2,0,0.3,0
		c0.2,0,0.3,0.1,0.3,0.4c0,0.3,0,0.5,0,1.9v1.5c0,0.8,0,1.5,0,1.9c0,0.3-0.1,0.4-0.2,0.4c-0.1,0-0.2,0-0.2,0c-0.1,0-0.2,0.1-0.2,0.2
		c0,0.1,0,0.2,0.3,0.2c0.1,0,0.1,0,0.2,0c0.1,0,0.2,0,0.3,0c0.2,0,0.3,0,0.3,0c0.1,0,0.3,0,0.7,0l0.2,0c0.3,0,0.7,0,1.3,0
		c0.3,0,0.5,0,0.6-0.3c0-0.2,0.1-0.8,0.1-0.9C65,23.7,64.9,23.6,64.8,23.6z"/>
	<path class="st0" d="M69.6,21.1l-0.2-0.2c-0.8-0.6-1-0.9-1-1.4c0-0.5,0.4-0.9,0.9-0.9c0.7,0,0.9,0.3,1,0.4c0,0.1,0.1,0.3,0.1,0.4
		c0,0.1,0,0.2,0.2,0.2c0.2,0,0.2-0.2,0.2-0.3c0-0.5,0-0.7,0-0.9c0,0,0-0.1,0-0.1c0-0.1,0-0.2-0.2-0.2c-0.1,0-0.1,0-0.3,0
		c-0.3-0.1-0.5-0.1-0.8-0.1c-1.2,0-1.9,0.7-1.9,1.7c0,0.6,0.2,1.2,1.2,2l0.4,0.3c0.8,0.6,1,0.9,1,1.5c0,0.5-0.4,1-1.1,1
		c-0.3,0-1-0.1-1.2-0.8c0-0.1,0-0.2,0-0.3c0-0.2-0.1-0.2-0.2-0.2c-0.2,0-0.2,0.2-0.2,0.3l0,0.1c0,0.2,0,0.5,0,0.8
		c0,0.2,0,0.3,0.2,0.4l0,0c0.3,0.2,0.7,0.2,1.2,0.2c0.5,0,1-0.1,1.4-0.4c0.6-0.4,0.8-1.1,0.8-1.5C70.9,22.5,70.7,21.9,69.6,21.1z"/>
	<path class="st0" d="M76.6,18.1c-2.6,0-3.6,2.2-3.6,3.5c0,1.7,1.1,3.5,3.5,3.5c2.1,0,3.6-1.5,3.6-3.7
		C80.2,19.4,78.8,18.1,76.6,18.1z M76.8,24.6c-1.6,0-2.7-1.3-2.7-3.2c0-1.7,0.9-2.7,2.4-2.7c1.2,0,2.5,1,2.5,3.1
		C79.1,24.4,77.2,24.6,76.8,24.6z"/>
	<path class="st0" d="M87.2,24.5c0.7-0.7,0.8-1.8,0.8-2.7v-0.9c0-1.4,0-1.6,0-1.9c0-0.3,0.1-0.4,0.2-0.4c0.1,0,0.1,0,0.2,0
		c0.1,0,0.2-0.1,0.2-0.2c0-0.1,0-0.2-0.3-0.2c-0.2,0-0.4,0-0.6,0c-0.1,0-0.1,0-0.1,0c0,0-0.1,0-0.1,0c-0.2,0-0.5,0-0.8,0
		c-0.2,0-0.3,0.1-0.3,0.2c0,0.1,0.1,0.2,0.2,0.2c0.1,0,0.2,0,0.3,0c0.2,0,0.3,0.1,0.3,0.4c0,0.3,0,0.5,0,1.9v1.1
		c0,1-0.1,1.6-0.5,2.1c-0.3,0.4-0.8,0.6-1.3,0.6c-0.5,0-0.8-0.1-1.2-0.4c-0.3-0.3-0.6-0.8-0.6-2.1v-1.2c0-1.4,0-1.6,0-1.9
		c0-0.3,0.1-0.4,0.2-0.4c0.1,0,0.1,0,0.2,0c0.1,0,0.2-0.1,0.2-0.2c0-0.1,0-0.2-0.3-0.2c-0.2,0-0.4,0-0.6,0c-0.1,0-0.2,0-0.2,0
		c0,0-0.1,0-0.2,0c-0.2,0-0.5,0-0.8,0c-0.2,0-0.3,0.1-0.3,0.2c0,0.1,0.1,0.2,0.2,0.2c0.1,0,0.2,0,0.3,0c0.2,0,0.3,0.1,0.3,0.4
		c0,0.3,0,0.5,0,1.9v1.3c0,1.1,0.2,1.9,0.8,2.4c0.6,0.6,1.4,0.7,1.9,0.7C85.8,25.1,86.5,25.1,87.2,24.5z"/>
	<path class="st0" d="M93.4,24.8c0-0.1-0.1-0.2-0.2-0.2c-0.1,0-0.3,0-0.4,0c-0.2,0-0.2-0.1-0.2-0.4c0-0.4,0-1.1,0-1.9v-0.2l1,0
		c0.1,0.1,0.2,0.3,0.3,0.4c0.2,0.3,0.4,0.6,0.6,0.8l0.1,0.1c0.4,0.6,0.7,1,1.1,1.2c0.3,0.1,0.5,0.2,1,0.2h0.6c0.1,0,0.3,0,0.3-0.2
		c0-0.1-0.1-0.2-0.2-0.2c0,0-0.2,0-0.3,0c-0.2,0-0.6-0.1-1-0.6c-0.4-0.5-1-1.1-1.6-1.9l-0.2-0.2c0.7-0.7,1-1.3,1-2
		c0-0.6-0.4-1.1-0.7-1.3c-0.5-0.4-1.1-0.4-1.7-0.4c-0.2,0-0.5,0-0.7,0c-0.1,0-0.3,0-0.3,0c0,0-0.1,0-0.1,0c-0.2,0-0.6,0-0.9,0
		c-0.2,0-0.3,0.1-0.3,0.2c0,0.1,0.1,0.2,0.2,0.2c0.1,0,0.2,0,0.3,0c0.2,0,0.3,0.1,0.3,0.4c0,0.3,0,0.5,0,1.9v1.5c0,0.8,0,1.5,0,1.9
		c0,0.3-0.1,0.4-0.2,0.4c-0.1,0-0.2,0-0.2,0c-0.1,0-0.2,0.1-0.2,0.2c0,0.1,0,0.2,0.3,0.2c0.2,0,0.7,0,0.8,0l0,0c0,0,0,0,0.1,0
		c0.2,0,0.6,0,1,0C93.4,25,93.4,24.9,93.4,24.8z M92.6,21.6l0-2.8c0.1,0,0.3,0,0.5,0c0.9,0,1.4,0.6,1.4,1.6c0,0.6-0.2,1-0.5,1.2
		c-0.2,0.1-0.4,0.1-0.6,0.1C93,21.7,92.7,21.6,92.6,21.6h-0.1H92.6z"/>
	<path class="st0" d="M104.1,24.9c0.2-0.1,0.2-0.1,0.3-0.3c0.1-0.3,0.2-1.1,0.2-1.1c0-0.2-0.2-0.3-0.2-0.3c-0.2,0-0.2,0.2-0.2,0.2
		c0,0.1-0.1,0.5-0.3,0.7c-0.3,0.3-0.8,0.4-1.4,0.4c-1.9,0-3-1.6-3-3.1c0-0.7,0.1-1.6,0.7-2.2c0.4-0.4,1-0.6,1.9-0.6
		c0.8,0,1.4,0.2,1.7,0.5c0.2,0.2,0.3,0.5,0.3,0.8c0,0.1,0,0.3,0.2,0.3c0.2,0,0.2-0.2,0.2-0.3c0-0.1,0-0.2,0-0.3c0-0.2,0-0.4,0-0.6
		c0-0.2,0-0.3,0-0.4c0-0.1,0-0.1,0-0.1c0-0.1,0-0.2-0.2-0.2c-0.3,0-0.5-0.1-0.9-0.1c-0.5-0.1-1.1-0.1-1.3-0.1c-1.2,0-2.1,0.3-2.7,1
		c-0.7,0.7-1,1.8-1,2.5c0,1.1,0.4,2,1.1,2.7c0.7,0.7,1.7,1,3,1C103,25.1,103.7,25.1,104.1,24.9z"/>
	<path class="st0" d="M110.2,25c0.3,0,0.5,0,0.6-0.3c0-0.2,0.1-0.8,0.1-0.9c0-0.2-0.1-0.3-0.2-0.3c-0.2,0-0.2,0.2-0.2,0.2
		c-0.1,0.4-0.2,0.5-0.3,0.5c-0.2,0.1-0.6,0.1-0.8,0.1c-0.8,0-0.9-0.1-0.9-0.6c0-0.1,0-0.7,0-1.1l0-1.1c0.2,0,1,0,1.2,0
		c0.3,0,0.3,0.1,0.3,0.2c0,0.1,0,0.2,0,0.3c0,0.1,0.1,0.2,0.2,0.2c0.2,0,0.2-0.2,0.2-0.3c0-0.1,0-0.4,0-0.5c0-0.2,0-0.3,0.1-0.4
		c0-0.1,0-0.1,0-0.1c0-0.1-0.1-0.2-0.2-0.2c-0.1,0-0.1,0.1-0.2,0.2c0,0.1-0.1,0.1-0.3,0.1c-0.1,0-0.8,0-1.3,0l0-2.3c0.3,0,1,0,1.1,0
		c0.4,0,0.5,0.1,0.5,0.2c0,0.1,0,0.2,0,0.3c0,0.2,0.2,0.2,0.2,0.2c0.1,0,0.1,0,0.2-0.2c0-0.1,0-0.2,0-0.4c0-0.1,0-0.1,0-0.2
		c0-0.1,0-0.2,0.1-0.3c0-0.1,0-0.1,0-0.1c0-0.2-0.1-0.2-0.2-0.2c-0.1,0-0.1,0-0.2,0c-0.1,0-0.2,0-0.4,0c-0.2,0-1.3,0-2,0l-0.4,0
		c-0.2,0-0.4,0-0.6,0c-0.2,0-0.3,0.1-0.3,0.2c0,0.1,0.1,0.2,0.2,0.2c0.1,0,0.2,0,0.3,0c0.2,0,0.3,0.1,0.3,0.4c0,0.3,0,0.5,0,1.9v1.5
		c0,0.8,0,1.5,0,1.9c0,0.3-0.1,0.4-0.2,0.4c-0.1,0-0.2,0-0.2,0c-0.1,0-0.2,0.1-0.2,0.2c0,0.1,0,0.2,0.3,0.2c0.1,0,0.1,0,0.2,0
		c0.1,0,0.2,0,0.3,0c0.2,0,0.3,0,0.3,0c0.1,0,0.3,0,0.7,0l0.2,0C109.2,25,109.7,25,110.2,25z"/>
	<path class="st0" d="M115.5,21.1l-0.2-0.2c-0.8-0.6-1-0.9-1-1.4c0-0.5,0.4-0.9,0.9-0.9c0.7,0,0.9,0.3,1,0.4c0,0.1,0.1,0.3,0.1,0.4
		c0,0.1,0,0.2,0.2,0.2c0.2,0,0.2-0.2,0.2-0.3c0-0.5,0-0.7,0-0.9c0,0,0-0.1,0-0.1c0-0.1,0-0.2-0.2-0.2c-0.1,0-0.1,0-0.3,0
		c-0.3-0.1-0.5-0.1-0.8-0.1c-1.2,0-1.9,0.7-1.9,1.7c0,0.6,0.2,1.2,1.2,2l0.4,0.3c0.8,0.6,1,0.9,1,1.5c0,0.5-0.4,1-1.1,1
		c-0.3,0-1-0.1-1.2-0.8c0-0.1,0-0.2,0-0.3c0-0.2-0.1-0.2-0.2-0.2c-0.2,0-0.2,0.2-0.2,0.3l0,0.1c0,0.2,0,0.5,0,0.8
		c0,0.2,0,0.3,0.2,0.4l0,0c0.3,0.2,0.7,0.2,1.2,0.2c0.5,0,1-0.1,1.4-0.4c0.6-0.4,0.8-1.1,0.8-1.5C116.8,22.5,116.6,21.9,115.5,21.1z
		"/>
	<path class="st0" d="M54.9,38.9c-0.1,0-0.3,0-0.4,0c-0.2,0-0.2-0.1-0.2-0.4c0-0.4,0-1.1,0-1.9v-1.5c0-1.4,0-1.6,0-1.9
		c0-0.3,0.1-0.4,0.2-0.4c0.1,0,0.1,0,0.2,0c0.1,0,0.2-0.1,0.2-0.2c0-0.1,0-0.2-0.3-0.2c-0.2,0-0.5,0-0.7,0c-0.1,0-0.1,0-0.1,0
		c0,0-0.1,0-0.1,0c-0.2,0-0.5,0-0.7,0c-0.2,0-0.3,0.1-0.3,0.2c0,0.1,0.1,0.2,0.2,0.2c0.1,0,0.2,0,0.2,0c0.1,0,0.2,0.1,0.2,0.4
		c0,0.3,0,0.5,0,1.9v1.5c0,0.8,0,1.5,0,1.9c0,0.3-0.1,0.4-0.2,0.4c-0.1,0-0.2,0-0.2,0c-0.1,0-0.2,0.1-0.2,0.2c0,0.1,0,0.2,0.3,0.2
		c0.2,0,0.5,0,0.7,0c0.1,0,0.1,0,0.1,0c0,0,0,0,0.1,0c0.2,0,0.6,0,1,0c0.2,0,0.3-0.1,0.3-0.2C55.1,39,55,38.9,54.9,38.9z"/>
	<path class="st0" d="M64.3,32.4c-0.2,0-0.4,0-0.6,0c-0.1,0-0.1,0-0.2,0c0,0-0.1,0-0.2,0c-0.2,0-0.5,0-0.7,0c-0.1,0-0.3,0-0.3,0.2
		c0,0.1,0.1,0.2,0.2,0.2c0.1,0,0.2,0,0.4,0c0.2,0,0.2,0.1,0.2,0.7l0.1,4.1c-0.1-0.2-0.3-0.4-0.5-0.6c-0.4-0.4-0.9-1-1.3-1.4
		c-1.3-1.4-2.6-2.8-2.8-3c0,0,0,0-0.1-0.1c-0.1-0.1-0.2-0.2-0.3-0.2c-0.2,0-0.2,0.3-0.2,0.6l0,5c0,0.7,0,0.9-0.2,1
		c-0.1,0-0.2,0-0.3,0c-0.1,0-0.2,0.1-0.2,0.2c0,0.1,0.1,0.2,0.3,0.2c0.3,0,0.5,0,0.7,0c0.1,0,0.1,0,0.3,0c0.2,0,0.4,0,0.8,0
		c0.2,0,0.3-0.1,0.3-0.2c0-0.1-0.1-0.2-0.2-0.2c0,0-0.2,0-0.4,0c-0.1,0-0.2-0.2-0.3-0.9l-0.1-3.8c0.4,0.5,1.2,1.4,2,2.2
		c0.9,1,2.2,2.3,2.3,2.4c0.5,0.5,0.6,0.6,0.7,0.6c0.2,0,0.2-0.2,0.2-0.7l0-5.1c0-0.6,0.1-0.6,0.2-0.7c0.1,0,0.1,0,0.2,0
		c0.1,0,0.2-0.1,0.2-0.2C64.6,32.4,64.4,32.4,64.3,32.4z"/>
	<path class="st0" d="M69.1,35.3l-0.2-0.2c-0.8-0.6-1-0.9-1-1.4c0-0.5,0.4-0.9,0.9-0.9c0.7,0,0.9,0.3,1,0.4c0,0.1,0.1,0.3,0.1,0.4
		c0,0.1,0,0.2,0.2,0.2c0.2,0,0.2-0.2,0.2-0.3c0-0.5,0-0.7,0-0.9c0,0,0-0.1,0-0.1c0-0.1,0-0.2-0.2-0.2c-0.1,0-0.1,0-0.3,0
		c-0.3-0.1-0.5-0.1-0.8-0.1C67.8,32.3,67,33,67,34c0,0.6,0.2,1.2,1.2,2l0.4,0.3c0.8,0.6,1,0.9,1,1.5c0,0.5-0.4,1-1.1,1
		c-0.3,0-1-0.1-1.2-0.8c0-0.1,0-0.2,0-0.3c0-0.2-0.1-0.2-0.2-0.2c-0.2,0-0.2,0.2-0.2,0.3l0,0.1c0,0.2,0,0.5,0,0.8
		c0,0.2,0,0.3,0.2,0.4l0,0c0.3,0.2,0.7,0.2,1.2,0.2c0.5,0,1-0.1,1.4-0.4c0.6-0.4,0.8-1.1,0.8-1.5C70.4,36.7,70.2,36.2,69.1,35.3z"/>
	<path class="st0" d="M78,32.4c0,0-0.1,0-0.1,0c0,0-0.1,0-0.2,0c-0.1,0-0.3,0-0.6,0h-3.3c-0.1,0-0.4,0-0.7,0c-0.1,0-0.2,0-0.3-0.1
		c0,0-0.1,0-0.1,0c-0.1,0-0.2,0.1-0.2,0.3c0,0-0.2,0.8-0.2,0.9c0,0.1,0.1,0.2,0.2,0.2c0.1,0,0.2-0.1,0.2-0.2c0-0.1,0-0.1,0.1-0.3
		c0.1-0.1,0.2-0.2,0.8-0.2l1.2,0v3.6c0,0.8,0,1.5,0,1.9c0,0.3-0.1,0.4-0.2,0.4c-0.1,0-0.2,0-0.2,0c-0.1,0-0.2,0.1-0.2,0.2
		c0,0.1,0,0.2,0.3,0.2c0.2,0,0.5,0,0.7,0c0.1,0,0.1,0,0.1,0c0,0,0,0,0.1,0c0.2,0,0.6,0,1,0c0.2,0,0.3-0.1,0.3-0.2
		c0-0.1-0.1-0.2-0.2-0.2c-0.1,0-0.3,0-0.4,0c-0.2,0-0.2-0.1-0.2-0.4c0-0.4,0-1.1,0-1.9V33l1,0c0.9,0,0.9,0.3,1,0.4l0,0.1
		c0,0.1,0,0.3,0.2,0.3c0.1,0,0.2-0.1,0.2-0.2c0,0,0-0.1,0-0.3c0-0.2,0-0.5,0-0.7C78.1,32.4,78,32.4,78,32.4z"/>
	<path class="st0" d="M82.6,38.9c-0.1,0-0.3,0-0.4,0c-0.2,0-0.2-0.1-0.2-0.4c0-0.4,0-1.1,0-1.9v-1.5c0-1.4,0-1.6,0-1.9
		c0-0.3,0.1-0.4,0.2-0.4c0.1,0,0.1,0,0.2,0c0.1,0,0.2-0.1,0.2-0.2c0-0.1,0-0.2-0.3-0.2c-0.2,0-0.5,0-0.7,0c-0.1,0-0.1,0-0.1,0
		c0,0-0.1,0-0.1,0c-0.2,0-0.5,0-0.7,0c-0.2,0-0.3,0.1-0.3,0.2c0,0.1,0.1,0.2,0.2,0.2c0.1,0,0.2,0,0.2,0c0.1,0,0.2,0.1,0.2,0.4
		c0,0.3,0,0.5,0,1.9v1.5c0,0.8,0,1.5,0,1.9c0,0.3-0.1,0.4-0.2,0.4c-0.1,0-0.2,0-0.2,0c-0.1,0-0.2,0.1-0.2,0.2c0,0.1,0,0.2,0.3,0.2
		c0.2,0,0.5,0,0.7,0c0.1,0,0.1,0,0.1,0c0,0,0,0,0.1,0c0.2,0,0.6,0,1,0c0.2,0,0.3-0.1,0.3-0.2C82.8,39,82.7,38.9,82.6,38.9z"/>
	<path class="st0" d="M90.3,32.4c0,0-0.1,0-0.1,0c0,0-0.1,0-0.2,0c-0.1,0-0.3,0-0.6,0h-3.3c-0.1,0-0.4,0-0.7,0c-0.1,0-0.2,0-0.3-0.1
		c0,0-0.1,0-0.1,0c-0.1,0-0.2,0.1-0.2,0.3c0,0-0.2,0.8-0.2,0.9c0,0.1,0.1,0.2,0.2,0.2c0.1,0,0.2-0.1,0.2-0.2c0-0.1,0-0.1,0.1-0.3
		c0.1-0.1,0.2-0.2,0.8-0.2l1.2,0v3.6c0,0.8,0,1.5,0,1.9c0,0.3-0.1,0.4-0.2,0.4c-0.1,0-0.2,0-0.2,0c-0.1,0-0.2,0.1-0.2,0.2
		c0,0.1,0,0.2,0.3,0.2c0.2,0,0.5,0,0.7,0c0.1,0,0.1,0,0.1,0c0,0,0,0,0.1,0c0.2,0,0.6,0,1,0c0.2,0,0.3-0.1,0.3-0.2
		c0-0.1-0.1-0.2-0.2-0.2c-0.1,0-0.3,0-0.4,0c-0.2,0-0.2-0.1-0.2-0.4c0-0.4,0-1.1,0-1.9V33l1,0c0.9,0,0.9,0.3,1,0.4l0,0.1
		c0,0.1,0,0.3,0.2,0.3c0.1,0,0.2,0,0.2-0.2c0,0,0-0.1,0-0.3c0-0.2,0-0.5,0-0.7C90.4,32.4,90.3,32.4,90.3,32.4z"/>
	<path class="st0" d="M98.8,32.4c-0.2,0-0.4,0-0.6,0c-0.1,0-0.1,0-0.1,0c0,0-0.1,0-0.1,0c-0.2,0-0.5,0-0.8,0c-0.2,0-0.3,0.1-0.3,0.2
		c0,0.1,0.1,0.2,0.2,0.2c0.1,0,0.2,0,0.3,0c0.2,0,0.3,0.1,0.3,0.4c0,0.3,0,0.5,0,1.9v1.1c0,1-0.1,1.6-0.5,2.1
		c-0.3,0.4-0.8,0.6-1.3,0.6c-0.5,0-0.8-0.1-1.2-0.4c-0.3-0.3-0.6-0.8-0.6-2.1v-1.2c0-1.4,0-1.6,0-1.9c0-0.3,0.1-0.4,0.2-0.4
		c0.1,0,0.1,0,0.2,0c0.1,0,0.2-0.1,0.2-0.2c0-0.1,0-0.2-0.3-0.2c-0.2,0-0.5,0-0.6,0c-0.1,0-0.2,0-0.2,0c0,0-0.1,0-0.2,0
		c-0.2,0-0.5,0-0.8,0c-0.2,0-0.3,0.1-0.3,0.2c0,0.1,0.1,0.2,0.2,0.2c0.1,0,0.2,0,0.3,0c0.2,0,0.3,0.1,0.3,0.4c0,0.3,0,0.5,0,1.9v1.3
		c0,1.1,0.2,1.8,0.8,2.4c0.6,0.6,1.4,0.7,1.9,0.7c0.5,0,1.2-0.1,1.9-0.7c0.7-0.7,0.8-1.8,0.8-2.7v-0.9c0-1.4,0-1.6,0-1.9
		c0-0.3,0.1-0.4,0.2-0.4c0.1,0,0.1,0,0.2,0c0.1,0,0.2-0.1,0.2-0.2C99.1,32.5,99.1,32.4,98.8,32.4z"/>
	<path class="st0" d="M106.5,32.4c0,0-0.1,0-0.1,0c0,0-0.1,0-0.2,0c-0.1,0-0.3,0-0.6,0h-3.3c-0.1,0-0.4,0-0.7,0
		c-0.1,0-0.2,0-0.3-0.1c0,0-0.1,0-0.1,0c-0.1,0-0.2,0.1-0.2,0.3c0,0-0.2,0.8-0.2,0.9c0,0.1,0.1,0.2,0.2,0.2c0.1,0,0.2-0.1,0.2-0.2
		c0-0.1,0-0.1,0.1-0.3c0.1-0.1,0.2-0.2,0.8-0.2l1.2,0v3.6c0,0.8,0,1.5,0,1.9c0,0.3-0.1,0.4-0.2,0.4c-0.1,0-0.2,0-0.2,0
		c-0.1,0-0.2,0.1-0.2,0.2c0,0.1,0,0.2,0.3,0.2c0.2,0,0.5,0,0.7,0c0.1,0,0.1,0,0.1,0c0,0,0,0,0.1,0c0.2,0,0.6,0,1,0
		c0.2,0,0.3-0.1,0.3-0.2c0-0.1-0.1-0.2-0.2-0.2c-0.1,0-0.3,0-0.4,0c-0.2,0-0.2-0.1-0.2-0.4c0-0.4,0-1.1,0-1.9V33l1,0
		c0.9,0,0.9,0.3,1,0.4l0,0.1c0,0.1,0,0.3,0.2,0.3c0.1,0,0.2-0.1,0.2-0.2c0,0,0-0.1,0-0.3c0-0.2,0-0.5,0-0.7
		C106.7,32.4,106.6,32.4,106.5,32.4z"/>
	<path class="st0" d="M112.8,37.8c-0.2,0-0.2,0.2-0.2,0.2c-0.1,0.4-0.2,0.5-0.3,0.5c-0.2,0.1-0.6,0.1-0.8,0.1
		c-0.8,0-0.9-0.1-0.9-0.6c0-0.1,0-0.7,0-1.1l0-1.1c0.2,0,1,0,1.2,0c0.3,0,0.3,0.1,0.3,0.2c0,0.1,0,0.2,0,0.3c0,0.1,0.1,0.2,0.2,0.2
		c0.2,0,0.2-0.2,0.2-0.3c0-0.1,0-0.4,0-0.5c0-0.2,0-0.3,0.1-0.4c0-0.1,0-0.1,0-0.1c0-0.1-0.1-0.2-0.2-0.2c-0.1,0-0.1,0.1-0.2,0.2
		c0,0.1-0.1,0.1-0.3,0.1c-0.1,0-0.8,0-1.3,0l0-2.3c0.3,0,1,0,1.1,0c0.4,0,0.5,0.1,0.5,0.2c0,0.1,0,0.2,0,0.3c0,0.2,0.2,0.2,0.2,0.2
		c0.1,0,0.1,0,0.2-0.2c0-0.1,0-0.2,0-0.4c0-0.1,0-0.1,0-0.2c0-0.1,0-0.2,0.1-0.3c0-0.1,0-0.1,0-0.1c0-0.2-0.1-0.2-0.2-0.2
		c-0.1,0-0.1,0-0.2,0c-0.1,0-0.2,0-0.4,0c-0.2,0-1.3,0-2,0l-0.4,0c-0.2,0-0.4,0-0.6,0c-0.2,0-0.3,0.1-0.3,0.2c0,0.1,0.1,0.2,0.2,0.2
		c0.1,0,0.2,0,0.3,0c0.2,0,0.3,0.1,0.3,0.4c0,0.3,0,0.5,0,1.9v1.5c0,0.8,0,1.5,0,1.9c0,0.3-0.1,0.4-0.2,0.4c-0.1,0-0.2,0-0.2,0
		c-0.1,0-0.2,0.1-0.2,0.2c0,0.1,0,0.2,0.3,0.2c0.1,0,0.1,0,0.2,0c0.1,0,0.2,0,0.3,0c0.2,0,0.3,0,0.3,0c0.1,0,0.3,0,0.7,0l0.2,0
		c0.3,0,0.7,0,1.3,0c0.3,0,0.5,0,0.6-0.3c0-0.2,0.1-0.8,0.1-0.9C112.9,37.9,112.9,37.8,112.8,37.8z"/>
</g>
<g>
	<path class="st0" d="M136.7,24c0,0-0.1,0-0.3,0c-0.2,0-0.5-0.1-0.9-0.5c-0.4-0.4-0.9-1-1.4-1.7l-0.1-0.2c0.6-0.6,0.9-1.2,0.9-1.8
		c0-0.6-0.4-1-0.6-1.2c-0.5-0.3-1-0.4-1.5-0.4c-0.2,0-0.4,0-0.7,0c-0.1,0-0.2,0-0.3,0c0,0,0,0-0.1,0c-0.2,0-0.5,0-0.8,0
		c-0.2,0-0.2,0.1-0.2,0.2c0,0.1,0.1,0.2,0.2,0.2c0.1,0,0.2,0,0.2,0c0.2,0,0.2,0.1,0.2,0.3c0,0.2,0,0.5,0,1.7v1.4c0,0.7,0,1.4,0,1.7
		c0,0.2-0.1,0.3-0.1,0.3c-0.1,0-0.2,0-0.2,0c-0.1,0-0.2,0.1-0.2,0.2c0,0.1,0,0.2,0.2,0.2c0.2,0,0.6,0,0.7,0l0,0c0,0,0,0,0.1,0
		c0.2,0,0.5,0,0.9,0c0.2,0,0.2-0.2,0.2-0.2c0-0.1-0.1-0.2-0.2-0.2c-0.1,0-0.2,0-0.3,0c-0.1,0-0.2-0.1-0.2-0.3c0-0.3,0-1,0-1.7v-0.1
		l0.9,0c0.1,0.1,0.2,0.2,0.3,0.4c0.2,0.2,0.4,0.5,0.6,0.8l0.1,0.1c0.4,0.5,0.7,0.9,1,1.1c0.2,0.1,0.5,0.2,0.9,0.2h0.6
		c0.1,0,0.3,0,0.3-0.2C136.9,24.1,136.8,24,136.7,24z M132.2,21.2v-2.6c0.1,0,0.3,0,0.5,0c0.8,0,1.2,0.5,1.2,1.5
		c0,0.5-0.2,0.9-0.4,1.1c-0.2,0.1-0.4,0.1-0.5,0.1C132.6,21.3,132.3,21.3,132.2,21.2h-0.1H132.2z"/>
	<path class="st0" d="M140.4,18c-2.4,0-3.2,2-3.2,3.2c0,1.6,1,3.2,3.2,3.2c1.9,0,3.3-1.4,3.3-3.4C143.6,19.2,142.3,18,140.4,18z
		 M140.5,23.9c-1.4,0-2.4-1.2-2.4-2.9c0-1.6,0.8-2.5,2.2-2.5c1.1,0,2.3,0.9,2.3,2.8C142.6,23.8,140.9,23.9,140.5,23.9z"/>
	<path class="st0" d="M145.4,24.2L145.4,24.2c0.3,0.2,0.7,0.2,1.1,0.2c0.5,0,0.9-0.1,1.3-0.4c0.5-0.4,0.7-1,0.7-1.4
		c0-0.7-0.3-1.3-1.2-2l-0.2-0.2c-0.7-0.6-0.9-0.8-0.9-1.2c0-0.5,0.3-0.8,0.8-0.8c0.6,0,0.8,0.3,0.9,0.4c0,0.1,0.1,0.3,0.1,0.4
		c0,0.1,0,0.2,0.2,0.2c0.2,0,0.2-0.2,0.2-0.3c0-0.4,0-0.7,0-0.8c0,0,0-0.1,0-0.1c0,0,0-0.2-0.2-0.2c-0.1,0-0.1,0-0.2,0
		c-0.2-0.1-0.5-0.1-0.8-0.1c-1.1,0-1.8,0.6-1.8,1.5c0,0.6,0.2,1.1,1.1,1.8l0.4,0.3c0.7,0.6,0.9,0.8,0.9,1.3c0,0.5-0.3,0.9-1,0.9
		c-0.3,0-0.9-0.1-1.1-0.7c0-0.1,0-0.2,0-0.3c0-0.2-0.1-0.2-0.2-0.2c-0.1,0-0.2,0.1-0.2,0.2l0,0.1c0,0.2,0,0.4,0,0.8
		C145.2,24,145.2,24.1,145.4,24.2z"/>
	<path class="st0" d="M152.8,24.1c0.5-0.4,0.7-1,0.7-1.4c0-0.7-0.3-1.3-1.2-2l-0.2-0.2c-0.7-0.6-0.9-0.8-0.9-1.2
		c0-0.5,0.3-0.8,0.8-0.8c0.6,0,0.8,0.3,0.9,0.4c0,0.1,0.1,0.3,0.1,0.4c0,0.1,0,0.2,0.2,0.2c0.2,0,0.2-0.2,0.2-0.3c0-0.4,0-0.7,0-0.8
		c0,0,0-0.1,0-0.1c0,0,0-0.2-0.2-0.2c-0.1,0-0.1,0-0.2,0c-0.2-0.1-0.5-0.1-0.8-0.1c-1.1,0-1.8,0.6-1.8,1.5c0,0.6,0.2,1.1,1.1,1.8
		l0.4,0.3c0.7,0.6,0.9,0.8,0.9,1.3c0,0.5-0.3,0.9-1,0.9c-0.3,0-0.9-0.1-1.1-0.7c0-0.1,0-0.2,0-0.3c0-0.2-0.1-0.2-0.2-0.2
		c-0.1,0-0.2,0.1-0.2,0.2l0,0.1c0,0.2,0,0.4,0,0.8c0,0.2,0,0.3,0.2,0.4l0,0c0.3,0.2,0.7,0.2,1.1,0.2C152,24.4,152.5,24.3,152.8,24.1
		z"/>
	<path class="st0" d="M135.9,36.9c-0.2,0-0.2,0.2-0.2,0.2c0,0.1-0.1,0.5-0.3,0.6c-0.3,0.3-0.7,0.4-1.3,0.4c-1.7,0-2.7-1.4-2.7-2.8
		c0-0.7,0.1-1.4,0.7-2c0.4-0.4,0.9-0.5,1.7-0.5c0.7,0,1.3,0.2,1.5,0.4c0.2,0.1,0.3,0.4,0.3,0.7c0,0.1,0,0.3,0.2,0.3
		c0.2,0,0.2-0.2,0.2-0.3c0,0,0-0.2,0-0.3c0-0.2,0-0.4,0-0.5c0-0.2,0-0.3,0-0.3c0-0.1,0-0.1,0-0.1c0-0.1,0-0.2-0.2-0.2
		c-0.2,0-0.5-0.1-0.8-0.1l0,0c-0.5-0.1-1-0.1-1.2-0.1c-1.1,0-1.9,0.3-2.5,0.9c-0.7,0.7-0.9,1.6-0.9,2.2c0,1,0.3,1.8,1,2.4
		c0.7,0.6,1.5,0.9,2.7,0.9c0.5,0,1.1-0.1,1.5-0.2c0.2-0.1,0.2-0.1,0.3-0.3c0.1-0.3,0.2-1,0.2-1C136.1,36.9,136,36.9,135.9,36.9z"/>
	<path class="st0" d="M141.3,37.2c-0.2,0-0.2,0.2-0.2,0.2c-0.1,0.3-0.1,0.4-0.3,0.5c-0.2,0.1-0.5,0.1-0.7,0.1
		c-0.7,0-0.8-0.1-0.8-0.5c0-0.1,0-0.6,0-1l0-1c0.2,0,0.9,0,1.1,0c0.3,0,0.3,0.1,0.3,0.2c0,0.1,0,0.2,0,0.2c0,0.1,0.1,0.2,0.2,0.2
		c0.2,0,0.2-0.2,0.2-0.3c0,0,0-0.3,0-0.5c0-0.2,0-0.3,0-0.3c0-0.1,0-0.1,0-0.1c0-0.1-0.1-0.2-0.2-0.2c-0.1,0-0.1,0.1-0.2,0.1
		c0,0-0.1,0.1-0.3,0.1c-0.1,0-0.7,0-1.2,0l0-2.1c0.2,0,0.9,0,1,0c0.4,0,0.4,0.1,0.5,0.2c0,0.1,0,0.2,0,0.2c0,0.2,0.2,0.2,0.2,0.2
		c0.1,0,0.1,0,0.2-0.2c0-0.1,0-0.2,0-0.4c0-0.1,0-0.1,0-0.2c0-0.1,0-0.2,0-0.3c0,0,0-0.1,0-0.1c0-0.2-0.1-0.2-0.2-0.2
		c-0.1,0-0.1,0-0.1,0c0,0-0.2,0-0.3,0c-0.1,0-1.2,0-1.8,0l-0.3,0c-0.2,0-0.4,0-0.6,0c-0.2,0-0.2,0.1-0.2,0.2c0,0.1,0.1,0.2,0.2,0.2
		c0.1,0,0.2,0,0.2,0c0.2,0,0.2,0.1,0.2,0.3c0,0.2,0,0.5,0,1.7v1.4c0,0.7,0,1.4,0,1.7c0,0.2-0.1,0.3-0.1,0.3c-0.1,0-0.2,0-0.2,0
		c-0.1,0-0.2,0.1-0.2,0.2c0,0.1,0,0.2,0.2,0.2c0.1,0,0.1,0,0.2,0c0.1,0,0.2,0,0.3,0c0.2,0,0.3,0,0.3,0c0.1,0,0.3,0,0.6,0l0.2,0
		c0.3,0,0.7,0,1.2,0c0.3,0,0.5,0,0.5-0.3c0-0.2,0.1-0.7,0.1-0.8C141.5,37.3,141.4,37.2,141.3,37.2z"/>
	<path class="st0" d="M149.3,32.3c-0.2,0-0.4,0-0.5,0c-0.1,0-0.1,0-0.3,0c-0.2,0-0.4,0-0.7,0c-0.1,0-0.3,0-0.3,0.2
		c0,0.1,0.1,0.2,0.2,0.2c0.1,0,0.2,0,0.4,0c0.1,0,0.2,0.1,0.2,0.6l0.1,3.7c-0.1-0.1-0.3-0.3-0.5-0.5c-0.4-0.4-0.8-0.9-1.2-1.3
		c-1.2-1.3-2.4-2.6-2.5-2.7c0,0,0,0-0.1-0.1c-0.1-0.1-0.2-0.2-0.3-0.2c-0.2,0-0.2,0.3-0.2,0.5l0,4.5c0,0.6,0,0.9-0.2,0.9
		c-0.1,0-0.2,0-0.3,0c-0.1,0-0.2,0.1-0.2,0.2c0,0.1,0,0.2,0.2,0.2c0.2,0,0.5,0,0.6,0c0.1,0,0.1,0,0.2,0c0.1,0,0.4,0,0.7,0
		c0.2,0,0.3-0.1,0.3-0.2c0-0.1-0.1-0.2-0.2-0.2c-0.1,0-0.2,0-0.4,0c-0.1,0-0.2-0.1-0.2-0.8l-0.1-3.5c0.4,0.4,1.1,1.2,1.8,2
		c0.8,0.9,2,2.1,2.1,2.1c0.5,0.5,0.5,0.5,0.7,0.5c0.2,0,0.2-0.2,0.2-0.7l0-4.6c0-0.5,0.1-0.6,0.2-0.6c0.1,0,0.1,0,0.2,0
		c0.1,0,0.2-0.1,0.2-0.2C149.6,32.3,149.4,32.3,149.3,32.3z"/>
	<path class="st0" d="M156.1,32.3C156.1,32.3,156,32.3,156.1,32.3c-0.1,0-0.2,0-0.2,0c-0.1,0-0.3,0-0.5,0h-3c-0.1,0-0.4,0-0.6,0
		c-0.1,0-0.2,0-0.2-0.1c0,0-0.1,0-0.1,0c-0.1,0-0.2,0.1-0.2,0.2c0,0-0.2,0.7-0.2,0.9c0,0.1,0.1,0.2,0.2,0.2c0.1,0,0.2-0.1,0.2-0.2
		c0,0,0-0.1,0.1-0.2c0.1-0.1,0.2-0.2,0.7-0.2l1,0v3.2c0,0.7,0,1.4,0,1.7c0,0.2-0.1,0.3-0.1,0.3c-0.1,0-0.2,0-0.2,0
		c-0.1,0-0.2,0.1-0.2,0.2c0,0.1,0,0.2,0.2,0.2c0.2,0,0.5,0,0.6,0c0.1,0,0.1,0,0.1,0l0.1,0c0.2,0,0.5,0,0.9,0c0.2,0,0.2-0.2,0.2-0.2
		c0-0.1-0.1-0.2-0.2-0.2c-0.1,0-0.2,0-0.3,0c-0.1,0-0.2-0.1-0.2-0.3c0-0.3,0-1,0-1.7v-3.2l0.9,0c0.8,0,0.8,0.2,0.9,0.3l0,0.1
		c0,0.1,0,0.2,0.2,0.2c0.1,0,0.2,0,0.2-0.2c0,0,0-0.1,0-0.2c0-0.2,0-0.5,0-0.6C156.2,32.3,156.1,32.3,156.1,32.3z"/>
	<path class="st0" d="M161.4,37.2c-0.2,0-0.2,0.2-0.2,0.2c-0.1,0.3-0.1,0.4-0.3,0.5c-0.2,0.1-0.5,0.1-0.7,0.1
		c-0.7,0-0.8-0.1-0.8-0.5c0-0.1,0-0.6,0-1l0-1c0.2,0,0.9,0,1.1,0c0.3,0,0.3,0.1,0.3,0.2c0,0.1,0,0.2,0,0.2c0,0.1,0.1,0.2,0.2,0.2
		c0.2,0,0.2-0.2,0.2-0.3c0,0,0-0.3,0-0.5c0-0.2,0-0.3,0-0.3c0-0.1,0-0.1,0-0.1c0-0.1-0.1-0.2-0.2-0.2c-0.1,0-0.1,0.1-0.2,0.1
		c0,0-0.1,0.1-0.3,0.1c-0.1,0-0.7,0-1.2,0l0-2.1c0.2,0,0.9,0,1,0c0.4,0,0.4,0.1,0.5,0.2c0,0.1,0,0.2,0,0.2c0,0.2,0.2,0.2,0.2,0.2
		c0,0,0.1,0,0.2-0.2c0-0.1,0-0.2,0-0.4c0-0.1,0-0.1,0-0.2c0-0.1,0-0.2,0-0.3c0,0,0-0.1,0-0.1c0-0.2-0.1-0.2-0.2-0.2
		c-0.1,0-0.1,0-0.1,0c0,0-0.2,0-0.3,0c-0.1,0-1.2,0-1.8,0l-0.3,0c-0.2,0-0.4,0-0.6,0c-0.2,0-0.2,0.1-0.2,0.2c0,0.1,0.1,0.2,0.2,0.2
		c0.1,0,0.2,0,0.2,0c0.2,0,0.2,0.1,0.2,0.3c0,0.2,0,0.5,0,1.7v1.4c0,0.7,0,1.4,0,1.7c0,0.2-0.1,0.3-0.1,0.3c-0.1,0-0.2,0-0.2,0
		c-0.1,0-0.2,0.1-0.2,0.2c0,0.1,0,0.2,0.2,0.2c0.1,0,0.1,0,0.2,0c0.1,0,0.2,0,0.3,0c0.2,0,0.3,0,0.3,0c0.1,0,0.3,0,0.6,0l0.2,0
		c0.3,0,0.7,0,1.2,0c0.3,0,0.5,0,0.5-0.3c0-0.2,0.1-0.7,0.1-0.8C161.5,37.3,161.4,37.2,161.4,37.2z"/>
	<path class="st0" d="M169.2,38.2c0,0-0.1,0-0.3,0c-0.2,0-0.5-0.1-0.9-0.5c-0.4-0.4-0.9-1-1.4-1.7l-0.1-0.2c0.6-0.6,0.9-1.2,0.9-1.8
		c0-0.6-0.4-1-0.6-1.2c-0.5-0.3-1-0.4-1.5-0.4c-0.2,0-0.4,0-0.7,0c-0.1,0-0.2,0-0.3,0c0,0,0,0-0.1,0c-0.2,0-0.5,0-0.8,0
		c-0.2,0-0.2,0.1-0.2,0.2c0,0.1,0.1,0.2,0.2,0.2c0.1,0,0.2,0,0.2,0c0.2,0,0.2,0.1,0.2,0.3c0,0.2,0,0.5,0,1.7v1.4c0,0.7,0,1.4,0,1.7
		c0,0.2-0.1,0.3-0.1,0.3c-0.1,0-0.2,0-0.2,0c-0.1,0-0.2,0.1-0.2,0.2c0,0.1,0,0.2,0.2,0.2c0.2,0,0.6,0,0.7,0l0,0c0,0,0,0,0.1,0
		c0.2,0,0.5,0,0.9,0c0.2,0,0.2-0.2,0.2-0.2c0-0.1-0.1-0.2-0.2-0.2c-0.1,0-0.2,0-0.3,0c-0.1,0-0.2-0.1-0.2-0.3c0-0.3,0-1,0-1.7V36
		l0.9,0c0.1,0.1,0.2,0.2,0.3,0.4c0.2,0.2,0.4,0.5,0.6,0.8l0.1,0.1c0.4,0.5,0.7,0.9,1,1.1c0.2,0.1,0.5,0.2,0.9,0.2h0.6
		c0.1,0,0.3,0,0.3-0.2C169.4,38.3,169.3,38.2,169.2,38.2z M164.7,35.4v-2.6c0.1,0,0.3,0,0.5,0c0.8,0,1.2,0.5,1.2,1.5
		c0,0.5-0.2,0.9-0.4,1.1c-0.2,0.1-0.4,0.1-0.5,0.1C165.1,35.5,164.8,35.5,164.7,35.4h-0.1H164.7z"/>
</g>
<path class="st0" d="M124.2,17.8c-0.1,0-0.2,0.1-0.2,0.2v21.2c0,0.1,0.1,0.2,0.2,0.2s0.2-0.1,0.2-0.2V18.1
	C124.4,18,124.3,17.8,124.2,17.8z"/>
<polygon class="st0" points="11.9,3.7 9.6,6 11.8,8.2 14.1,5.9 11.9,3.7 "/>
<polygon class="st0" points="27.5,23.8 35.9,32.2 38.2,29.9 29.8,21.5 27.5,23.8 "/>
<polygon class="st0" points="9.3,11.8 11.6,14.2 20.9,4.9 24.2,8.2 26.5,5.9 20.9,0.2 "/>
<polygon class="st0" points="33.7,11.8 36,14.2 38.2,12 35.9,9.6 33.7,11.8 "/>
<rect x="9" y="31.2" transform="matrix(0.7071 -0.7071 0.7071 0.7071 -18.8456 20.2204)" class="st0" width="11.9" height="3.3"/>
<rect x="20.9" y="19.2" transform="matrix(0.7071 -0.7071 0.7071 0.7071 -6.815 25.2036)" class="st0" width="12.3" height="3.3"/>
<polygon class="st0" points="27.7,11.7 37,20.9 33.7,24.2 36,26.6 41.6,20.9 30,9.3 27.7,11.7 "/>
<polygon class="st0" points="3.6,29.9 6,32.2 8.2,30.1 5.8,27.7 3.6,29.9 "/>
<rect x="20.9" y="7.4" transform="matrix(0.7071 -0.7071 0.7071 0.7071 1.487 21.6417)" class="st0" width="11.9" height="3.3"/>
<polygon class="st0" points="0.2,20.9 11.8,32.6 14.1,30.2 4.9,20.9 8.2,17.6 5.8,15.3 0.2,20.9 "/>
<polygon class="st0" points="15.3,11.7 24,20.4 26.3,18 17.6,9.3 15.3,11.7 "/>
<rect x="28.3" y="34.4" transform="matrix(0.7071 -0.7071 0.7071 0.7071 -16.6514 31.7264)" class="st0" width="3.3" height="3.1"/>
<rect x="7.4" y="9.1" transform="matrix(0.7071 -0.7071 0.7071 0.7071 -7.9689 10.765)" class="st0" width="3.3" height="11.9"/>
<rect x="19.4" y="20.9" transform="matrix(0.7071 -0.7071 0.7071 0.7071 -12.953 22.7976)" class="st0" width="3.3" height="12.3"/>
<polygon class="st0" points="20.9,37 17.6,33.7 15.3,36 20.9,41.7 32.5,30.1 30.2,27.7 "/>
<rect x="8.7" y="19.4" transform="matrix(0.7071 -0.7071 0.7071 0.7071 -10.5485 16.6564)" class="st0" width="12.3" height="3.3"/>
<g>
	<path class="st0" d="M4.6,52.3h7.7c4.2,0,7.4,2.5,7.4,7.6c0,4.9-2.9,7.5-7.7,7.5H9.1v10.4H4.6V52.3z M9.1,63.8h2.2
		c2.6,0,3.7-1.3,3.7-4c0-2.6-1.3-3.8-3.4-3.8H9.1V63.8z"/>
	<path class="st0" d="M26.6,66.9v10.9h-4.5V52.3h7.8c4.6,0,7.3,2.5,7.3,7c0,3.7-2,5.3-3.3,5.8c2,0.9,2.9,2.6,2.9,6.4v1
		c0,2.9,0.2,4,0.3,5.4h-4.4c-0.4-1.2-0.4-3.2-0.4-5.4v-0.9c0-3.4-0.8-4.6-3.7-4.6H26.6z M26.6,63.2h2.2c2.8,0,3.8-1.2,3.8-3.7
		c0-2.2-1.1-3.5-3.4-3.5h-2.6V63.2z"/>
	<path class="st0" d="M44.9,52.3v25.5h-4.6V52.3H44.9z"/>
	<path class="st0" d="M47.2,74.6l10-18.4H48v-4h14.1v3.7l-9.6,17.9h10.1l-0.6,4H47.2V74.6z"/>
	<path class="st0" d="M77.6,66.5h-8.2v7.4h9.2L78,77.8H64.9V52.3H78v4h-8.6v6.2h8.2V66.5z"/>
</g>
<g>
	<path class="st0" d="M112.1,70.8c-0.1,1.5-0.8,7.4-6.9,7.4c-6.8,0-7.3-7.2-7.3-13.3c0-7.4,2-12.9,7.6-12.9c6.2,0,6.5,5.7,6.6,7.3
		h-2.8c-0.1-0.9-0.2-4.8-3.8-4.8c-4,0-4.7,5.5-4.7,10.4c0,5.4,0.6,10.8,4.5,10.8c3.4,0,3.9-3.7,4-5H112.1z"/>
	<path class="st0" d="M117.8,52.3v25.5H115V52.3H117.8z"/>
	<path class="st0" d="M125.8,54.8h-5.7v-2.5h14.2v2.5h-5.7v23h-2.8V54.8z"/>
	<path class="st0" d="M139.5,52.3v25.5h-2.8V52.3H139.5z"/>
	<path class="st0" d="M155,65.6h-8.5v9.8h9.5l-0.4,2.5h-11.9V52.3h11.7v2.5h-8.9v8.3h8.5V65.6z"/>
	<path class="st0" d="M160.2,71.1c0.2,2.6,1.5,4.7,4.3,4.7c2.7,0,4-1.5,4-4.4c0-2.7-1.1-4.1-4.6-5.8c-4-1.9-5.7-3.7-5.7-7.4
		c0-3.5,2.3-6.3,6.4-6.3c4.9,0,6.2,3.5,6.3,6.5h-2.7c-0.2-1.2-0.5-4.2-3.7-4.2c-2.4,0-3.5,1.7-3.5,3.7c0,2.4,1.1,3.6,4.3,5.1
		c4.5,2.1,6.1,4.3,6.1,8.1c0,4-2.3,6.9-6.9,6.9c-5.1,0-6.8-3.3-7-7H160.2z"/>
</g>
<g>
	<g>
		<path class="st0" d="M83.5,78v-6.7h1.3v5.2h3.2v-4.8h1.3v4.8h4.5V78H83.5z"/>
		<path class="st0" d="M88.5,60.7c2.8,0,5.3,1.6,5.3,4.8c0,3-2.3,4.7-5.2,4.7c-2.9,0-5.3-1.7-5.3-4.8C83.3,62.6,85.5,60.7,88.5,60.7
			z M88.5,68.7c2.2,0,4-1.1,4-3.2c0-2.3-1.9-3.2-4-3.2c-2.2,0-3.9,1-3.9,3.2C84.6,67.7,86.4,68.7,88.5,68.7z"/>
		<path class="st0" d="M89.3,57.3h4.4v1.5H83.5v-4.1c0-2.1,1.2-3.2,2.7-3.2c1.3,0,2.1,0.8,2.4,1.7c0.2-0.8,0.8-1.5,2.6-1.5h0.4
			c0.7,0,1.6,0,2-0.1v1.5c-0.4,0.2-1.2,0.2-2.2,0.2h-0.2c-1.4,0-2,0.4-2,2.2V57.3z M88,57.3v-2.1c0-1.5-0.6-2.1-1.7-2.1
			c-1,0-1.6,0.7-1.6,2v2.3H88z"/>
	</g>
</g>
</svg>
