<svg enable-background="new 0 0 100 100" viewBox="0 0 100 100" xmlns="http://www.w3.org/2000/svg"><path d="m54.7 84c-1.5 0-3.1-.2-4.6-.6-2.8-.8-5.4-3-6.7-5.8-1.4-2.8-1.4-6.1-.1-9.1.4-1 1.6-1.5 2.6-1.1s1.5 1.6 1.1 2.6c-1.1 2.5-.6 4.5 0 5.8.9 1.8 2.5 3.2 4.2 3.7 8.8 2.5 16.8-5.2 19.5-11.2 1.9-4.3 3.4-14.4-1.9-21.5-.3 3.5-1.7 6.6-4.2 8.7-2.8 2.4-6.5 3.1-9.6 1.8-2.7-1.1-4.5-3-5.3-5.4-.9-2.8-.3-6.3 1.5-9.4 3.6-6 5.5-10.5.1-19.7-3.5 10.3-8.5 14.4-13 18-3.9 3.2-7.2 5.9-9.5 12.3-.8 2.1-1.2 4.3-1.3 6.4-.2 4.3 1.1 7.6 4.2 10.4.8.7.9 2 .1 2.8-.7.8-2 .9-2.8.1-3.9-3.6-5.7-8.2-5.5-13.6.1-2.6.7-5.1 1.5-7.6 2.7-7.4 6.8-10.8 10.7-14 4.8-3.9 9.8-8 12.9-20.2.2-.8.8-1.3 1.6-1.5.8-.1 1.5.2 2 .8 8.7 12.5 7.6 18.9 2.3 27.6-1.3 2.1-1.7 4.4-1.1 6.1.4 1.3 1.4 2.3 3 3 1.7.7 3.8.3 5.4-1.1 2.5-2.2 3.4-6 2.4-10.3-.2-.8.1-1.7.8-2.1.7-.5 1.6-.5 2.3 0 5.1 3.6 8.1 9.1 8.8 16 .5 5.7-.7 11-1.9 13.8-1.8 4.1-5.2 8.1-9.2 10.7-3.2 2.5-6.8 3.6-10.3 3.6z" fill="#fff"/></svg>