<?xml version="1.0" encoding="utf-8"?>
<!-- Generator: Adobe Illustrator 24.0.1, SVG Export Plug-In . SVG Version: 6.00 Build 0)  -->
<svg version="1.1" id="Layer_1" xmlns="http://www.w3.org/2000/svg" xmlns:xlink="http://www.w3.org/1999/xlink" x="0px" y="0px"
	 viewBox="0 0 100 100" style="enable-background:new 0 0 100 100;" xml:space="preserve">
<style type="text/css">
	.st0{fill:#FFFFFF;}
</style>
<g>
	<path class="st0" d="M85.9,14.1h3.1c5.2,0,9.4-4.2,9.4-9.4V1.6h-6.2c-5.2,0-9.4,4.2-9.4,9.4v1.6v1.6v8.5l-13,8.6H59.4
		c0-0.5,0-1,0-1.6V17.2h-7.5L50,24.8l-1.9-7.6h-7.5v9.4h-6.9l-4-6.7v-8.2l-6.9-5.2l-1.9,2.5l5.6,4.2v7.5l4.2,7L26.4,31L18.5,27
		l-1.3-5.4v-1.4c0-5.2-4.2-9.4-9.4-9.4H1.6v3.1c0,5.2,4.2,9.4,9.4,9.4h3.5l1.4,5.8l7.8,3.9l-4.2,3.2l1.9,2.5l12.1-9.1h7.3
		c0,12.9-2.5,25.5-7.3,37.5H1.6v3.1h23.2L18,78.1H7.8v3.1h9.9l3,7.4l6.8,3.4l1.4-2.8l-5.7-2.9L20.6,80l8.3-9.7h14.9v2.4l-7.8,6.2v7
		h3.1v-5.5l5.7-4.6l2.6,5.2l5.8,1.4v3l-2.5,3.7l-10,1.7v7.6h3.1v-4.9l8.7-1.5l2.6-3.9l4.9,3.7l1.9-2.5l-5.6-4.2V80l-3.5-0.9l4.6-4.6
		l-2.2-2.2l-5.8,5.8l-2.5-5v-2.8h25V76l-5.1,6.8l7,8.8l2.4-2l-5.5-6.9l3.4-4.5l5.9,1.2l1.6,6.2l7.2,1.8l0.8-3l-5.3-1.3l-1.6-6.3
		L75,75.3v-5h23.4v-3.1H66.7c-4.3-10.5-6.7-21.5-7.2-32.8h10.3l9.4,7.8h5.3h1.6h3.1c4.3,0,7.8-3.5,7.8-7.8v-1.6h-4.7
		c-3.8,0-6.9,2.7-7.7,6.2h-4.3L72.9,33l13-8.7V14.1z M92.2,4.7h3.1c0,3.4-2.8,6.2-6.2,6.2h-3.1C85.9,7.5,88.7,4.7,92.2,4.7z
		 M10.9,20.3c-3.4,0-6.2-2.8-6.2-6.2h3.1c3.4,0,6.2,2.8,6.2,6.2H10.9z M36.7,67.2c1.5-3.9,2.8-7.9,3.9-11.9l1.8,1.8l1.8,7h7.5v-3.1
		h-5l-1.1-4.2l5.6-5.6l-2.2-2.2L43.8,54l-2.4-2.4c1.6-7.2,2.4-14.5,2.4-22v-9.4h1.9l2.7,11l-1.5,7.5l3.1,0.6l1.6-7.8l2.8-11.3h1.9
		v9.4c0,12.9,2.4,25.5,7.1,37.5H36.7z M92.2,35.9h1.3c-0.6,1.8-2.4,3.1-4.4,3.1h-1.3C88.4,37.2,90.2,35.9,92.2,35.9z"/>
	<path class="st0" d="M12.5,60.9h4.7c4.3,0,7.8-3.5,7.8-7.8v-1.6h-4.7c-4.3,0-7.8,3.5-7.8,7.8V60.9z M20.3,54.7h1.3
		c-0.6,1.8-2.4,3.1-4.4,3.1h-1.3C16.5,56,18.3,54.7,20.3,54.7z"/>
	<path class="st0" d="M85.9,56.2v-1.6h-4.7c-4.3,0-7.8,3.5-7.8,7.8v1.6h4.7C82.4,64.1,85.9,60.6,85.9,56.2z M81.2,57.8h1.3
		c-0.6,1.8-2.4,3.1-4.4,3.1h-1.3C77.5,59.1,79.2,57.8,81.2,57.8z"/>
	<path class="st0" d="M9.4,45.3h4.7v-1.6c0-4.3-3.5-7.8-7.8-7.8H1.6v1.6C1.6,41.8,5.1,45.3,9.4,45.3z M6.2,39.1c2,0,3.8,1.3,4.4,3.1
		H9.4c-2,0-3.8-1.3-4.4-3.1H6.2z"/>
	<path class="st0" d="M75,50c0-4.3-3.5-7.8-7.8-7.8h-4.7v1.6c0,4.3,3.5,7.8,7.8,7.8H75V50z M70.3,48.4c-2,0-3.8-1.3-4.4-3.1h1.3
		c2,0,3.8,1.3,4.4,3.1H70.3z"/>
</g>
</svg>
